<?xml version="1.0" encoding="UTF-8"?>
<svg version="1.1" xmlns="http://www.w3.org/2000/svg" width="500" height="500">
<path d="M0 0 C2.36208526 -0.00542959 4.72416713 -0.01255693 7.08624268 -0.02124023 C13.46227678 -0.03937671 19.83805015 -0.03244606 26.21408844 -0.01972389 C30.20521762 -0.01365682 34.19630986 -0.01396662 38.18743896 -0.01768494 C38.85271319 -0.01829787 39.51798742 -0.0189108 40.20342147 -0.01954231 C41.55546651 -0.02082138 42.90751153 -0.02211823 44.25955653 -0.02343267 C56.89874094 -0.03480311 69.53780878 -0.02178059 82.17697406 -0.00023121 C92.99108789 0.01763658 103.80502989 0.01453148 114.61914062 -0.00390625 C127.2171441 -0.02537581 139.81504574 -0.0337048 152.41306496 -0.0214572 C153.75977197 -0.02018317 155.10647899 -0.01892569 156.45318604 -0.01768494 C157.11556522 -0.01706783 157.77794441 -0.01645073 158.46039569 -0.01581493 C163.09876538 -0.01238021 167.7370672 -0.01834819 172.37542725 -0.02760315 C178.63338663 -0.03921913 184.89102382 -0.0310311 191.14894867 -0.00802612 C193.43571184 -0.00276967 195.72250247 -0.00419977 198.00925446 -0.01307678 C220.72548844 -0.09308096 240.66883539 3.84738927 258.3203125 19.51757812 C258.3203125 20.17757812 258.3203125 20.83757812 258.3203125 21.51757812 C258.9803125 21.51757812 259.6403125 21.51757812 260.3203125 21.51757812 C260.3203125 22.17757812 260.3203125 22.83757812 260.3203125 23.51757812 C260.9803125 23.51757812 261.6403125 23.51757812 262.3203125 23.51757812 C269.35688224 31.84502937 275.05595317 41.06573195 278.3203125 51.51757812 C278.69873842 52.70431846 278.69873842 52.70431846 279.0848093 53.91503334 C282.14937257 65.1163227 281.74969894 76.35134067 281.72436523 87.87841797 C281.73007538 90.23035505 281.73704213 92.58228937 281.74516296 94.93421936 C281.76303827 101.29173224 281.76193654 107.64910667 281.75622058 114.0066371 C281.75272738 120.00171035 281.76070451 125.99676682 281.76758123 131.99183483 C281.78127432 144.5914043 281.77589113 157.19091149 281.76439602 169.7904795 C281.75446716 181.28676533 281.76740393 192.78289012 281.79133021 204.27915113 C281.81578316 216.11879174 281.82531391 227.95835754 281.81867748 239.79802287 C281.81519896 246.43097601 281.81766662 253.06382133 281.83492851 259.69675827 C281.85046016 265.93662114 281.84637303 272.17617792 281.82762337 278.41602898 C281.82395468 280.69634508 281.82699527 282.97668418 281.83750916 285.25697899 C281.90314813 300.67913789 281.034113 314.68435213 273.7578125 328.64257812 C273.42048096 329.29871094 273.08314941 329.95484375 272.7355957 330.63085938 C263.49415118 347.7979892 248.2783435 359.32839915 229.93566895 365.69176483 C217.86820957 369.03446807 206.18509629 369.08405554 193.7265625 369.03515625 C191.3856564 369.04058701 189.04475372 369.04771499 186.70385742 369.05639648 C180.38979594 369.07451912 174.07599803 369.06760813 167.76193237 369.05488014 C161.80256146 369.04573004 155.84321377 369.05274316 149.88384342 369.05858892 C137.36193952 369.06995534 124.84015336 369.05694323 112.31826878 369.03538746 C101.60795364 369.01752003 90.89781201 369.02062526 80.1875 369.0390625 C67.7059418 369.06053924 55.2244864 369.06885707 42.74291229 369.05661345 C36.15189787 369.05032186 29.5609797 369.04947315 22.9699707 369.0627594 C16.77108978 369.0743842 10.57253386 369.06617154 4.37368774 369.04318237 C2.10991961 369.03793057 -0.15387627 369.03934787 -2.41763306 369.04823303 C-18.11244226 369.10411637 -32.98097572 368.34554694 -47.1171875 360.70507812 C-48.10138672 360.19340088 -48.10138672 360.19340088 -49.10546875 359.67138672 C-54.32685142 356.88140383 -59.52579672 353.78685475 -63.6796875 349.51757812 C-63.6796875 348.85757812 -63.6796875 348.19757813 -63.6796875 347.51757812 C-64.23785156 347.32035156 -64.79601562 347.123125 -65.37109375 346.91992188 C-68.61949757 344.94669519 -70.48316908 342.14595397 -72.6171875 339.08007812 C-73.05885254 338.44827637 -73.50051758 337.81647461 -73.95556641 337.16552734 C-85.92669055 319.657703 -87.27800456 301.49444993 -87.19726562 280.92382812 C-87.20269639 278.58292202 -87.20982436 276.24201935 -87.21850586 273.90112305 C-87.23662849 267.58706157 -87.2297175 261.27326365 -87.21698952 254.959198 C-87.20783942 248.99982708 -87.21485254 243.04047939 -87.2206983 237.08110905 C-87.23206471 224.55920515 -87.2190526 212.03741898 -87.19749683 199.5155344 C-87.17962941 188.80521926 -87.18273463 178.09507764 -87.20117188 167.38476562 C-87.22264862 154.90320742 -87.23096644 142.42175202 -87.21872282 129.94017792 C-87.21243123 123.34916349 -87.21158252 116.75824533 -87.22486877 110.16723633 C-87.23649358 103.96835541 -87.22828092 97.76979949 -87.20529175 91.57095337 C-87.20003994 89.30718523 -87.20145725 87.04338936 -87.21034241 84.77963257 C-87.26622574 69.08482336 -86.50765631 54.2162899 -78.8671875 40.08007812 C-78.52606934 39.42394531 -78.18495117 38.7678125 -77.83349609 38.09179688 C-75.04351321 32.8704142 -71.94896413 27.6714689 -67.6796875 23.51757812 C-67.0196875 23.51757812 -66.3596875 23.51757812 -65.6796875 23.51757812 C-65.6796875 22.85757813 -65.6796875 22.19757813 -65.6796875 21.51757812 C-65.0196875 21.51757812 -64.3596875 21.51757812 -63.6796875 21.51757812 C-63.6796875 20.85757813 -63.6796875 20.19757813 -63.6796875 19.51757812 C-44.19772831 3.4485169 -24.59540225 -0.09547762 0 0 Z " fill="#FDFDFD" transform="translate(152.6796875,65.482421875)"/>
<path d="M0 0 C0.66580078 -0.04576172 1.33160156 -0.09152344 2.01757812 -0.13867188 C12.03540707 -0.35831922 20.1931668 7.52936633 27.8125 13.25 C28.63903076 13.86456055 29.46556152 14.47912109 30.31713867 15.11230469 C35.74600662 19.15332977 41.1495484 23.2281068 46.5546875 27.30078125 C49.79718153 29.70409322 53.08159569 32.04228434 56.375 34.375 C61.50339586 38.00977688 66.51579276 41.76483973 71.47900391 45.62133789 C76.12640273 49.22331673 80.85685822 52.70272731 85.60742188 56.16699219 C92.93791411 61.51863134 100.18702473 66.97820653 107.4375 72.4375 C110.26971729 71.09710331 112.77121319 69.58553852 115.30859375 67.75 C116.04102295 67.22132324 116.77345215 66.69264648 117.52807617 66.14794922 C118.30256104 65.58350098 119.0770459 65.01905273 119.875 64.4375 C121.08216675 63.56182373 121.08216675 63.56182373 122.3137207 62.66845703 C128.02633534 58.50814005 133.64170012 54.24151983 139.22265625 49.90625 C146.15222699 44.55089462 153.27536449 39.44287179 160.375 34.31640625 C168.43390442 28.49478489 176.37048284 22.5088151 184.12109375 16.28125 C191.46292373 10.4375 191.46292373 10.4375 194.4375 10.4375 C194.4375 9.7775 194.4375 9.1175 194.4375 8.4375 C196.703125 6.74609375 196.703125 6.74609375 199.6875 4.875 C200.66203125 4.25496094 201.6365625 3.63492188 202.640625 2.99609375 C209.29923188 -0.71449863 217.02094352 -0.36815639 224.4375 0.4375 C230.02425724 2.62238468 234.43420335 5.99140078 238.4375 10.4375 C238.4375 11.0975 238.4375 11.7575 238.4375 12.4375 C239.0975 12.4375 239.7575 12.4375 240.4375 12.4375 C243.07409343 17.00466304 243.81729981 20.30577482 243.83863831 25.55905151 C243.84543498 26.25273744 243.85223164 26.94642336 243.85923427 27.66113007 C243.87814469 29.97329737 243.87577355 32.28493216 243.87329102 34.59716797 C243.88227238 36.25993528 243.89248149 37.92269634 243.90382385 39.58544922 C243.93028849 44.09378532 243.93735578 48.60195053 243.93927121 53.11035681 C243.94140572 55.92898803 243.9478143 58.74757598 243.95576286 61.56619644 C243.9835038 71.4049988 243.99576985 81.24367935 243.9934082 91.08251953 C243.99160584 100.24514741 244.02326582 109.40724543 244.07063919 118.56973922 C244.10989841 126.44425533 244.12595856 134.31859847 244.12404197 142.19321167 C244.12327802 146.89291215 244.13177569 151.59214149 244.16357613 156.29174423 C244.19267649 160.71284291 244.19281987 165.13302185 244.17102623 169.55415344 C244.16789571 171.17304456 244.17493631 172.79199352 244.1931076 174.41078568 C244.34790704 189.16090139 244.34790704 189.16090139 239.11500454 194.97174263 C223.49005717 208.62439228 203.39472653 201.4375 182.4375 201.4375 C182.4375 167.4475 182.4375 133.4575 182.4375 98.4375 C170.79433803 106.74707399 170.79433803 106.74707399 159.25 115.1875 C157.62504039 116.38807551 156.00003916 117.58859467 154.375 118.7890625 C153.5603125 119.39137695 152.745625 119.99369141 151.90625 120.61425781 C149.46060998 122.42043262 147.01211363 124.22265642 144.5625 126.0234375 C136.875053 131.67544672 129.19932156 137.3422005 121.5625 143.0625 C120.91450439 143.54734863 120.26650879 144.03219727 119.59887695 144.53173828 C116.16415343 147.11062763 112.77583438 149.73382995 109.4375 152.4375 C106.51836156 151.06779118 104.00245112 149.49090343 101.41796875 147.56640625 C100.6504126 146.99752686 99.88285645 146.42864746 99.09204102 145.8425293 C98.27791748 145.23449463 97.46379395 144.62645996 96.625 144 C94.90899114 142.72637793 93.19284368 141.45294258 91.4765625 140.1796875 C90.62481445 139.54643555 89.77306641 138.91318359 88.89550781 138.26074219 C85.44218811 135.69922137 81.97160672 133.16164459 78.5 130.625 C73.14279751 126.7038362 67.82473937 122.73352212 62.51953125 118.7421875 C57.17438642 114.7451844 51.78330962 110.8109675 46.39599609 106.87109375 C44.39401507 105.4056696 42.39398586 103.93761904 40.39453125 102.46875 C39.73171143 101.98196777 39.0688916 101.49518555 38.38598633 100.99365234 C37.13170603 100.07239046 35.87762133 99.15086219 34.6237793 98.22900391 C33.75813354 97.59357666 33.75813354 97.59357666 32.875 96.9453125 C32.31425781 96.5318457 31.75351563 96.11837891 31.17578125 95.69238281 C29.95771773 94.81305044 28.72440873 93.95463331 27.48046875 93.11230469 C22.53958242 89.74374725 22.53958242 89.74374725 21.4375 86.4375 C18.22402893 84.42120442 15.0876651 82.72646227 11.625 81.1875 C7.75703073 79.06390903 4.57298682 76.42709371 1.171875 73.62890625 C-2.50610007 70.68127194 -6.34799343 67.98976069 -10.21484375 65.296875 C-12.47701455 63.50520562 -13.88262253 61.75474274 -15.5625 59.4375 C-17.9055809 58.31664688 -17.9055809 58.31664688 -20.5625 57.4375 C-22.56889095 56.45038534 -24.56969768 55.45176767 -26.5625 54.4375 C-26.637057 49.72358601 -26.69129273 45.01002071 -26.72729492 40.2956543 C-26.74231466 38.69435644 -26.76273663 37.09309925 -26.78881836 35.49194336 C-26.82550438 33.18072429 -26.84229435 30.87005244 -26.85546875 28.55859375 C-26.87095261 27.85101425 -26.88643646 27.14343475 -26.90238953 26.41441345 C-26.90508024 18.33754508 -23.74522875 13.06297682 -18.40234375 7.234375 C-12.88417305 1.84507877 -7.63865032 0.20606592 0 0 Z " fill="#EB4235" transform="translate(141.5625,149.5625)"/>
<path d="M0 0 C0.14030742 17.59394672 0.24603788 35.18771827 0.31087303 52.78209686 C0.3417805 60.95192697 0.38390087 69.12140898 0.45263672 77.29101562 C0.51253479 84.41361622 0.55117177 91.53596467 0.56453097 98.65881014 C0.57233739 102.42869574 0.59061727 106.19786014 0.63438034 109.96751404 C0.67528721 113.52012375 0.6876335 117.07171937 0.67864609 120.62454224 C0.68106855 122.5411273 0.71326293 124.45760336 0.746521 126.37390137 C0.69887674 133.04758747 0.0954199 137.28896189 -4.32082176 142.42786407 C-11.10030377 148.77517551 -17.4895948 149.29211274 -26.4296875 149.1953125 C-27.42001984 149.1924826 -28.41035217 149.18965271 -29.43069458 149.18673706 C-32.57892176 149.1755847 -35.72685949 149.15048907 -38.875 149.125 C-41.01562088 149.11496382 -43.15624624 149.10583908 -45.296875 149.09765625 C-50.53134797 149.07566158 -55.7656533 149.04223333 -61 149 C-61.11580579 135.6569148 -61.20467113 122.31394898 -61.25906086 108.97046375 C-61.28516414 102.77464369 -61.32057664 96.57916722 -61.37719727 90.38354492 C-61.43148929 84.40537319 -61.46141503 78.42753214 -61.47438622 72.44913292 C-61.48363101 70.16731243 -61.50168387 67.88551021 -61.52865028 65.60383034 C-61.564902 62.40972283 -61.5699468 59.21698491 -61.56762695 56.02270508 C-61.59459152 54.60498055 -61.59459152 54.60498055 -61.62210083 53.15861511 C-61.58615076 48.58971735 -61.52520526 46.65872733 -58.59391785 42.98222351 C-57.73792496 42.32808975 -56.88193207 41.67395599 -56 41 C-55.31679688 40.42636719 -54.63359375 39.85273438 -53.9296875 39.26171875 C-49.05707345 35.52851825 -44.12349935 31.89229785 -39.1484375 28.296875 C-35.429117 25.58352456 -31.74345589 22.82756176 -28.0625 20.0625 C-27.37994141 19.54977539 -26.69738281 19.03705078 -25.99414062 18.50878906 C-23.40376457 16.56168561 -20.81444277 14.61318531 -18.22558594 12.6640625 C-1.4024408 0 -1.4024408 0 0 0 Z " fill="#35A855" transform="translate(385,202)"/>
<path d="M0 0 C4.75 0.75 4.75 0.75 7 3 C7.763125 3.268125 8.52625 3.53625 9.3125 3.8125 C12.68685492 5.30349403 14.41651743 7.35780192 17 10 C19.14388327 11.74749928 21.33354322 13.42355117 23.53515625 15.09765625 C26.11690998 17.09023005 28.61508724 19.16795669 31.125 21.25 C35.0010643 24.37005176 38.3851236 26.22504754 43 28 C48.81538462 31.44615385 48.81538462 31.44615385 50 35 C50.81382645 35.40118042 51.62765289 35.80236084 52.46614075 36.21569824 C56.23064483 38.08115894 58.36843755 39.69297165 61 43 C63.13605405 50.50845145 62.2742626 58.81655089 62.07421875 66.53125 C62.05368803 68.85148424 62.03803672 71.17176635 62.02705383 73.49206543 C61.98516519 79.58265141 61.87721467 85.67032576 61.75531006 91.75976562 C61.64253662 97.98006807 61.5924919 104.20084371 61.53710938 110.421875 C61.41933504 122.61585874 61.23173726 134.80768675 61 147 C54.5955166 147.10185277 48.19124393 147.17165458 41.78613281 147.21972656 C39.60962112 147.23977764 37.43316286 147.26702571 35.25683594 147.30175781 C32.11900607 147.35056212 28.98189165 147.37303438 25.84375 147.390625 C24.87884644 147.41127014 23.91394287 147.43191528 22.9197998 147.45318604 C15.75279357 147.45553875 10.3807393 145.98300527 4.94140625 141.18359375 C4.48636719 140.60738281 4.03132813 140.03117188 3.5625 139.4375 C3.08941406 138.85871094 2.61632812 138.27992188 2.12890625 137.68359375 C-0.09106036 134.3728477 -0.12389328 131.45076821 -0.12025452 127.59004211 C-0.12162918 126.46683563 -0.12300385 125.34362915 -0.12442017 124.18638611 C-0.12082489 122.95352371 -0.11722961 121.72066132 -0.11352539 120.45043945 C-0.11374443 118.50394501 -0.11374443 118.50394501 -0.1139679 116.51812744 C-0.11425514 112.95848745 -0.10837019 109.39888107 -0.10139394 105.8392489 C-0.09514826 102.11965622 -0.09455564 98.40006281 -0.09336853 94.6804657 C-0.0902588 87.63632227 -0.08205023 80.59219434 -0.07201904 73.54805773 C-0.06084679 65.52879585 -0.05534465 57.50953322 -0.05032361 49.49026549 C-0.03986733 32.99350125 -0.02227481 16.4967526 0 0 Z " fill="#4385F4" transform="translate(115,204)"/>
<path d="M0 0 C2.16616958 1.79895226 4.16573729 3.6095773 6.05078125 5.703125 C6.05078125 6.363125 6.05078125 7.023125 6.05078125 7.703125 C6.71078125 7.703125 7.37078125 7.703125 8.05078125 7.703125 C11.87671898 14.33937855 11.85584246 20.70328649 11.99121094 28.1328125 C12.03076653 29.67353511 12.09892939 31.21380102 12.19628906 32.75195312 C12.97403015 45.10057692 12.97403015 45.10057692 9.83493042 49.34841919 C6.33848232 52.80459919 2.2729627 55.2304282 -1.94921875 57.703125 C-3.24078208 58.61263132 -4.52396831 59.53449081 -5.7890625 60.48046875 C-6.81128906 61.19332031 -7.83351563 61.90617187 -8.88671875 62.640625 C-15.03346764 66.9706952 -20.94295859 71.56240522 -26.83203125 76.234375 C-33.03679032 81.14841978 -39.39369132 85.74640106 -45.9453125 90.1875 C-48.05918261 91.55339069 -48.05918261 91.55339069 -48.94921875 93.703125 C-49.60921875 93.373125 -50.26921875 93.043125 -50.94921875 92.703125 C-51.06503497 82.47200898 -51.15389461 72.24104872 -51.20827961 62.00941086 C-51.23438101 57.2584799 -51.26978872 52.50799718 -51.32641602 47.75732422 C-51.38071682 43.17317547 -51.41063519 38.58945803 -51.42360497 34.00501251 C-51.43284837 32.25544697 -51.45089883 30.50590521 -51.47786903 28.75652313 C-51.51413528 26.30688861 -51.51916536 23.85903918 -51.5168457 21.40917969 C-51.53482208 20.68485245 -51.55279846 19.96052521 -51.57131958 19.21424866 C-51.53333859 15.51072683 -51.2721151 14.02667722 -48.61296082 11.36212158 C-47.73392593 10.81465271 -46.85489105 10.26718384 -45.94921875 9.703125 C-44.89734375 8.960625 -43.84546875 8.218125 -42.76171875 7.453125 C-39.94921875 5.703125 -39.94921875 5.703125 -37.94921875 5.703125 C-37.94921875 5.043125 -37.94921875 4.383125 -37.94921875 3.703125 C-35.68359375 2.01171875 -35.68359375 2.01171875 -32.69921875 0.140625 C-31.7246875 -0.47941406 -30.75015625 -1.09945312 -29.74609375 -1.73828125 C-20.56647838 -6.8537373 -8.48026835 -5.79997628 0 0 Z " fill="#F9BC06" transform="translate(373.94921875,154.296875)"/>
<path d="M0 0 C2.28515625 1.33203125 2.28515625 1.33203125 4.41235352 3.05395508 C6.81208545 4.74806345 8.57003503 5.64117127 11.23828125 6.69335938 C16.52808527 9.14140394 20.43679722 11.88898643 23.28515625 17.08203125 C25.94103262 28.94080144 24.86514191 41.54396402 24.38378906 53.60028076 C24.21898818 58.1646328 24.14680631 62.73039463 24.06640625 67.296875 C23.89569173 76.22899034 23.623299 85.15479415 23.28515625 94.08203125 C22.69992188 93.78039062 22.1146875 93.47875 21.51171875 93.16796875 C19.09041953 91.94520426 19.09041953 91.94520426 15.66015625 90.70703125 C11.91280921 88.90275305 11.95631093 88.52878777 10.28515625 85.08203125 C7.06889802 83.04094429 3.94725632 81.37629795 0.47265625 79.83203125 C-3.39531302 77.70844028 -6.57935693 75.07162496 -9.98046875 72.2734375 C-13.65844382 69.32580319 -17.50033718 66.63429194 -21.3671875 63.94140625 C-23.6293583 62.14973687 -25.03496628 60.39927399 -26.71484375 58.08203125 C-29.05792465 56.96117813 -29.05792465 56.96117813 -31.71484375 56.08203125 C-33.7212347 55.09491659 -35.72204143 54.09629892 -37.71484375 53.08203125 C-37.78940075 48.36811726 -37.84363648 43.65455196 -37.87963867 38.94018555 C-37.89465841 37.33888769 -37.91508038 35.7376305 -37.94116211 34.13647461 C-37.97784813 31.82525554 -37.9946381 29.51458369 -38.0078125 27.203125 C-38.02329636 26.4955455 -38.03878021 25.787966 -38.05473328 25.0589447 C-38.05742399 16.98207633 -34.8975725 11.70750807 -29.5546875 5.87890625 C-21.8333199 -1.66213217 -10.19721971 -3.44798076 0 0 Z " fill="#C51611" transform="translate(152.71484375,150.91796875)"/>
<path d="M0 0 C0.66 0.33 1.32 0.66 2 1 C-3 7.57142857 -3 7.57142857 -8 9 C-7.83734146 10.01365128 -7.67468292 11.02730255 -7.50709534 12.07167053 C-7.03543001 15.72553334 -6.87941126 19.17326459 -6.88647461 22.85327148 C-6.88632858 23.49802933 -6.88618256 24.14278717 -6.8860321 24.80708313 C-6.88672183 26.91178907 -6.89446958 29.01640351 -6.90234375 31.12109375 C-6.90421128 32.59082491 -6.9056336 34.06055669 -6.90663147 35.5302887 C-6.9104303 39.37879181 -6.92023779 43.22725656 -6.93133545 47.07574463 C-6.9416065 51.0107776 -6.94614124 54.94581683 -6.95117188 58.88085938 C-6.96186268 66.58725698 -6.97890708 74.29362309 -7 82 C-6.5875 81.505 -6.175 81.01 -5.75 80.5 C-4 79 -4 79 0 79 C0 78.01 0 77.02 0 76 C2.475 75.505 2.475 75.505 5 75 C1.98659435 79.45459966 -1.58504992 81.88336157 -6.07421875 84.66796875 C-8.13197226 85.86294235 -8.13197226 85.86294235 -9 88 C-9.66 87.67 -10.32 87.34 -11 87 C-11.11581622 76.76888398 -11.20467586 66.53792372 -11.25906086 56.30628586 C-11.28516226 51.5553549 -11.32056997 46.80487218 -11.37719727 42.05419922 C-11.43149807 37.47005047 -11.46141644 32.88633303 -11.47438622 28.30188751 C-11.48362962 26.55232197 -11.50168008 24.80278021 -11.52865028 23.05339813 C-11.56491653 20.60376361 -11.56994661 18.15591418 -11.56762695 15.70605469 C-11.58560333 14.98172745 -11.60357971 14.25740021 -11.62210083 13.51112366 C-11.58333262 9.73083943 -11.30843117 8.30583418 -8.57707214 5.59747314 C-7.30142143 4.80672394 -7.30142143 4.80672394 -6 4 C-5.40574219 3.58234375 -4.81148438 3.1646875 -4.19921875 2.734375 C-2.79947917 1.82291667 -1.39973958 0.91145833 0 0 Z " fill="#FCAF17" transform="translate(334,160)"/>
<path d="M0 0 C0 43.89 0 87.78 0 133 C-0.33 133 -0.66 133 -1 133 C-1 90.43 -1 47.86 -1 4 C-2.32 3.67 -3.64 3.34 -5 3 C-1.125 0 -1.125 0 0 0 Z " fill="#39944F" transform="translate(385,202)"/>
<path d="M0 0 C2.475 0.495 2.475 0.495 5 1 C5.33 1.66 5.66 2.32 6 3 C4.35 3 2.7 3 1 3 C1 44.91 1 86.82 1 130 C0.67 130 0.34 130 0 130 C0 87.1 0 44.2 0 0 Z " fill="#427ACD" transform="translate(115,204)"/>
<path d="M0 0 C0.69931641 -0.020625 1.39863281 -0.04125 2.11914062 -0.0625 C6.91056977 -0.09835728 10.08602236 0.80327864 14.1875 3.25 C11.1875 4.25 11.1875 4.25 8.75 3.375 C3.641654 1.76183811 -1.48670626 1.57747599 -6.8125 1.25 C-6.8125 1.91 -6.8125 2.57 -6.8125 3.25 C-8.6378125 3.745 -8.6378125 3.745 -10.5 4.25 C-15.02425992 5.89663877 -16.57859473 8.31241055 -18.70703125 12.5078125 C-19.8125 14.25 -19.8125 14.25 -22.8125 15.25 C-23.1425 15.91 -23.4725 16.57 -23.8125 17.25 C-23.8125 12.06721443 -22.13139893 10.81958244 -18.7578125 7.15234375 C-13.06851274 1.58871126 -7.88199578 0.05716769 0 0 Z " fill="#B63134" transform="translate(141.8125,149.75)"/>
<path d="M0 0 C0 0.66 0 1.32 0 2 C-1.0725 2.53625 -2.145 3.0725 -3.25 3.625 C-7.03312744 5.75965625 -8.66414919 8.34050039 -11 12 C-13.4375 13.625 -13.4375 13.625 -16 15 C-16.825 15.721875 -17.65 16.44375 -18.5 17.1875 C-21.31627361 19.22929837 -22.60715864 19.3877533 -26 19 C-22.82651015 15.65663965 -19.35237412 12.83983285 -15.6875 10.0625 C-15.11153076 9.62373535 -14.53556152 9.1849707 -13.94213867 8.73291016 C-12.29806808 7.48414916 -10.64999898 6.24091266 -9 5 C-8.22914063 4.41863281 -7.45828125 3.83726562 -6.6640625 3.23828125 C-2.2659384 0 -2.2659384 0 0 0 Z " fill="#5CA63A" transform="translate(367,216)"/>
<path d="M0 0 C1.44096586 0.42594588 2.87768712 0.86626633 4.3125 1.3125 C5.11300781 1.55613281 5.91351563 1.79976562 6.73828125 2.05078125 C9.09964573 3.04182023 10.33879993 4.08074943 12 6 C12.33 5.01 12.66 4.02 13 3 C13.66 3 14.32 3 15 3 C15 3.99 15 4.98 15 6 C15.66 6 16.32 6 17 6 C17.33 8.31 17.66 10.62 18 13 C17.113125 12.38125 16.22625 11.7625 15.3125 11.125 C12.25404535 8.98855011 12.25404535 8.98855011 9.5625 8.125 C5.81264425 6.47872187 2.90185286 3.86840211 0 1 C0 0.67 0 0.34 0 0 Z " fill="#BC191D" transform="translate(143,222)"/>
<path d="M0 0 C4.11336093 1.45177445 7.50833145 3.38124858 11 6 C11.33 6.99 11.66 7.98 12 9 C13.85811713 10.66589237 13.85811713 10.66589237 16.0625 12.1875 C16.79597656 12.71730469 17.52945313 13.24710938 18.28515625 13.79296875 C18.85105469 14.19128906 19.41695312 14.58960938 20 15 C18.68 15.33 17.36 15.66 16 16 C16 15.34 16 14.68 16 14 C13.69 14 11.38 14 9 14 C9.2475 13.4225 9.495 12.845 9.75 12.25 C10.28410758 9.82566126 10.28410758 9.82566126 8.25 7.75 C6.08039699 5.69302969 6.08039699 5.69302969 3 6 C2.01 4.02 1.02 2.04 0 0 Z " fill="#597BDA" transform="translate(153,230)"/>
<path d="M0 0 C1.65 0 3.3 0 5 0 C5 0.66 5 1.32 5 2 C20.84 2.33 36.68 2.66 53 3 C53 3.33 53 3.66 53 4 C46.25568885 4.07612011 39.51148866 4.12862932 32.7668457 4.16479492 C30.47285828 4.17987308 28.17889963 4.2003387 25.88500977 4.22631836 C22.58602795 4.26274358 19.2874276 4.27973631 15.98828125 4.29296875 C14.45207878 4.31619453 14.45207878 4.31619453 12.88484192 4.33988953 C3.92427787 4.34200317 3.92427787 4.34200317 0 1 C0 0.67 0 0.34 0 0 Z " fill="#467CDA" transform="translate(122,346)"/>
<path d="M0 0 C0.66 0.33 1.32 0.66 2 1 C-4.66666667 6 -11.33333333 11 -18 16 C-18 13.16032769 -17.59732819 10.76264289 -17 8 C-15.35 8 -13.7 8 -12 8 C-11.67 7.34 -11.34 6.68 -11 6 C-9.66666667 5.66666667 -8.33333333 5.33333333 -7 5 C-6.67 4.34 -6.34 3.68 -6 3 C-3.0625 1.3125 -3.0625 1.3125 0 0 Z " fill="#E9BE18" transform="translate(371,210)"/>
<path d="M0 0 C0 0.99 0 1.98 0 3 C-0.99 3.33 -1.98 3.66 -3 4 C-2.67 4.99 -2.34 5.98 -2 7 C-2.804375 7.45375 -3.60875 7.9075 -4.4375 8.375 C-7.08856572 9.74725665 -7.08856572 9.74725665 -8 12 C-9.32 11.67 -10.64 11.34 -12 11 C-12 11.66 -12 12.32 -12 13 C-12.99 13 -13.98 13 -15 13 C-15 13.66 -15 14.32 -15 15 C-16.65 15.33 -18.3 15.66 -20 16 C-16.23938761 12.00973189 -12.24982069 8.86813301 -7.75 5.75 C-3.69642307 3.0876775 -3.69642307 3.0876775 0 0 Z " fill="#DC574E" transform="translate(280,200)"/>
<path d="M0 0 C2.64 0.33 5.28 0.66 8 1 C8.33 2.32 8.66 3.64 9 5 C12.73437848 5.87867729 16.16774573 6.08912219 20 6 C18.35 7.65 16.7 9.3 15 11 C11.43503982 9.37879192 8.40991178 7.2405574 5.25 4.9375 C3.77273437 3.86822266 3.77273437 3.86822266 2.265625 2.77734375 C1.51796875 2.19082031 0.7703125 1.60429687 0 1 C0 0.67 0 0.34 0 0 Z " fill="#DA554E" transform="translate(236,291)"/>
<path d="M0 0 C0 1.65 0 3.3 0 5 C-0.78246094 5.18175781 -1.56492187 5.36351562 -2.37109375 5.55078125 C-3.38300781 5.80214844 -4.39492188 6.05351562 -5.4375 6.3125 C-6.44683594 6.55613281 -7.45617187 6.79976562 -8.49609375 7.05078125 C-9.32238281 7.36402344 -10.14867187 7.67726563 -11 8 C-11.33 8.99 -11.66 9.98 -12 11 C-13.65 11.33 -15.3 11.66 -17 12 C-13.0637025 7.67007275 -6.06457203 0 0 0 Z " fill="#FCF0E8" transform="translate(323,249)"/>
<path d="M0 0 C0.33 0.99 0.66 1.98 1 3 C-0.70091889 4.30141481 -2.41110541 5.59072165 -4.125 6.875 C-5.07632812 7.59429687 -6.02765625 8.31359375 -7.0078125 9.0546875 C-9.97248274 10.98211019 -12.61122655 12.04470778 -16 13 C-11.3126338 7.82773385 -5.68271819 4.01074507 0 0 Z " fill="#FDE3DD" transform="translate(275,283)"/>
<path d="M0 0 C10.15176429 -0.73092703 16.71884042 -0.54698734 25 6 C23 7 23 7 19.875 6.0625 C18.92625 5.711875 17.9775 5.36125 17 5 C17 4.34 17 3.68 17 3 C16.195625 3.020625 15.39125 3.04125 14.5625 3.0625 C12 3 12 3 11 2 C9.15108054 1.76636119 7.29511969 1.58696365 5.4375 1.4375 C4.42558594 1.35371094 3.41367187 1.26992187 2.37109375 1.18359375 C1.19740234 1.09271484 1.19740234 1.09271484 0 1 C0 0.67 0 0.34 0 0 Z " fill="#EEBD33" transform="translate(351,150)"/>
<path d="M0 0 C1.07765625 0.00902344 2.1553125 0.01804688 3.265625 0.02734375 C4.08546875 0.03894531 4.9053125 0.05054688 5.75 0.0625 C5.75 0.3925 5.75 0.7225 5.75 1.0625 C4.78320312 1.13726562 3.81640625 1.21203125 2.8203125 1.2890625 C-5.89989593 2.16971721 -12.05655169 3.68010809 -19.25 9.0625 C-19.25 8.0725 -19.25 7.0825 -19.25 6.0625 C-18.59 6.0625 -17.93 6.0625 -17.25 6.0625 C-17.25 5.4025 -17.25 4.7425 -17.25 4.0625 C-11.18025922 1.37780696 -6.72960916 -0.07314793 0 0 Z " fill="#FEF3CA" transform="translate(356.25,148.9375)"/>
<path d="M0 0 C0 9.57 0 19.14 0 29 C-0.33 29 -0.66 29 -1 29 C-1 20.75 -1 12.5 -1 4 C-2.32 3.67 -3.64 3.34 -5 3 C-1.125 0 -1.125 0 0 0 Z " fill="#469849" transform="translate(385,202)"/>
<path d="M0 0 C5.40838443 3.56879789 10.74979781 7.20198139 16 11 C15.01 11.495 15.01 11.495 14 12 C13.01 11.67 12.02 11.34 11 11 C11 10.34 11 9.68 11 9 C9.865625 8.731875 8.73125 8.46375 7.5625 8.1875 C6.386875 7.795625 5.21125 7.40375 4 7 C3.67 6.01 3.34 5.02 3 4 C2.34 4 1.68 4 1 4 C0.67 2.68 0.34 1.36 0 0 Z " fill="#D95450" transform="translate(182,173)"/>
<path d="M0 0 C0.99 0.66 1.98 1.32 3 2 C-2.445 5.96 -2.445 5.96 -8 10 C-8.33 8.68 -8.66 7.36 -9 6 C-8.01 6.33 -7.02 6.66 -6 7 C-5.67 5.35 -5.34 3.7 -5 2 C-3.35 2 -1.7 2 0 2 C0 1.34 0 0.68 0 0 Z " fill="#DC5045" transform="translate(300,261)"/>
<path d="M0 0 C0.66 0.33 1.32 0.66 2 1 C-1.18654032 3.72021735 -4.37010064 6.29773516 -7.8125 8.6875 C-11.00813282 10.63180503 -11.00813282 10.63180503 -12 13 C-12.66 12.67 -13.32 12.34 -14 12 C-12.60746468 8.51866169 -11.36823784 7.52113967 -8 6 C-7.67 5.34 -7.34 4.68 -7 4 C-5.68 4 -4.36 4 -3 4 C-3 3.01 -3 2.02 -3 1 C-2.01 0.67 -1.02 0.34 0 0 Z " fill="#D2BC2D" transform="translate(337,235)"/>
<path d="M0 0 C2.97 0.495 2.97 0.495 6 1 C6.33 1.99 6.66 2.98 7 4 C8.175625 4.0928125 8.175625 4.0928125 9.375 4.1875 C10.674375 4.5896875 10.674375 4.5896875 12 5 C13.3125 7.5625 13.3125 7.5625 14 10 C10.19136032 8.65378455 7.34590149 6.94641263 4.1875 4.4375 C3.39730469 3.81746094 2.60710937 3.19742188 1.79296875 2.55859375 C0.90544922 1.78708984 0.90544922 1.78708984 0 1 C0 0.67 0 0.34 0 0 Z " fill="#A23152" transform="translate(129,212)"/>
<path d="M0 0 C3.58513106 1.62184501 6.58992323 3.79256239 9.75 6.125 C11.22726563 7.21167969 11.22726563 7.21167969 12.734375 8.3203125 C13.48203125 8.87460938 14.2296875 9.42890625 15 10 C14.01 10.33 13.02 10.66 12 11 C11.34 10.67 10.68 10.34 10 10 C10 9.34 10 8.68 10 8 C8.68 7.67 7.36 7.34 6 7 C6 6.34 6 5.68 6 5 C4.35 5 2.7 5 1 5 C0.67 3.35 0.34 1.7 0 0 Z " fill="#D85A52" transform="translate(198,185)"/>
<path d="M0 0 C0 0.99 0 1.98 0 3 C-0.66 3 -1.32 3 -2 3 C-2.226875 3.61875 -2.45375 4.2375 -2.6875 4.875 C-4.41733064 7.67567818 -5.90912017 7.99366703 -9 9 C-9.928125 9.37125 -10.85625 9.7425 -11.8125 10.125 C-12.534375 10.41375 -13.25625 10.7025 -14 11 C-9.85989729 6.45924219 -5.17609824 3.28157862 0 0 Z " fill="#D85A52" transform="translate(308,180)"/>
<path d="M0 0 C1.48484412 0.39595843 2.9628831 0.81750706 4.4375 1.25 C5.26121094 1.48203125 6.08492187 1.7140625 6.93359375 1.953125 C7.61550781 2.29859375 8.29742187 2.6440625 9 3 C9.6640625 5.04296875 9.6640625 5.04296875 10 7 C11.93330603 8.09166275 11.93330603 8.09166275 14 9 C14.99 10.485 14.99 10.485 16 12 C12.46433646 10.38753587 9.45224677 8.28040353 6.3125 6 C5.33925781 5.29875 4.36601562 4.5975 3.36328125 3.875 C1 2 1 2 0 0 Z " fill="#C4535B" transform="translate(170,242)"/>
<path d="M0 0 C4.83540096 2.61111652 8.87103901 5.37457083 13 9 C12.01 9.33 11.02 9.66 10 10 C8.0625 8.6875 8.0625 8.6875 6 7 C4.68163705 6.30419733 3.35208914 5.62775567 2 5 C2 4.01 2 3.02 2 2 C1.34 2 0.68 2 0 2 C0 1.34 0 0.68 0 0 Z " fill="#FCE3DA" transform="translate(232,289)"/>
<path d="M0 0 C1.32 0 2.64 0 4 0 C4 0.66 4 1.32 4 2 C4.99 2.33 5.98 2.66 7 3 C7 3.66 7 4.32 7 5 C7.94875 5.2475 8.8975 5.495 9.875 5.75 C13 7 13 7 14.1953125 9.078125 C14.59363281 10.02945313 14.59363281 10.02945313 15 11 C9.4973915 8.12641556 4.57358578 5.22177149 0 1 C0 0.67 0 0.34 0 0 Z " fill="#FCDED6" transform="translate(217,198)"/>
<path d="M0 0 C0.66 0.33 1.32 0.66 2 1 C1.34 5.29 0.68 9.58 0 14 C-0.33 14 -0.66 14 -1 14 C-1.33 11.36 -1.66 8.72 -2 6 C-3.32 5.67 -4.64 5.34 -6 5 C-4.02 3.35 -2.04 1.7 0 0 Z " fill="#DF4D42" transform="translate(322,169)"/>
<path d="M0 0 C2.475 0.495 2.475 0.495 5 1 C5.33 1.66 5.66 2.32 6 3 C4.35 3 2.7 3 1 3 C1 8.61 1 14.22 1 20 C0.67 20 0.34 20 0 20 C0 13.4 0 6.8 0 0 Z " fill="#4B78D3" transform="translate(115,204)"/>
<path d="M0 0 C3.25 0.125 3.25 0.125 7 1 C9.3125 4 9.3125 4 11 7 C11.66 7.33 12.32 7.66 13 8 C12.67 8.66 12.34 9.32 12 10 C9.99708788 8.52464063 7.99763223 7.04497707 6 5.5625 C5.42765625 5.14162109 4.8553125 4.72074219 4.265625 4.28710938 C2.82546081 3.21555864 1.41048004 2.11033324 0 1 C0 0.67 0 0.34 0 0 Z " fill="#DB5F57" transform="translate(205,268)"/>
<path d="M0 0 C0.99 0.33 1.98 0.66 3 1 C0.375 5.875 0.375 5.875 -3 7 C-3.33 7.66 -3.66 8.32 -4 9 C-4 4.31908701 -3.00354129 3.37898396 0 0 Z " fill="#BC2629" transform="translate(122,158)"/>
<path d="M0 0 C1.65 0 3.3 0 5 0 C5 0.66 5 1.32 5 2 C10.61 2.33 16.22 2.66 22 3 C22 3.33 22 3.66 22 4 C19.27022936 4.08126109 16.5428983 4.14061663 13.8125 4.1875 C13.04357422 4.21263672 12.27464844 4.23777344 11.48242188 4.26367188 C6.81536232 4.32376277 3.80608266 4.02808581 0 1 C0 0.67 0 0.34 0 0 Z " fill="#508ADD" transform="translate(122,346)"/>
<path d="M0 0 C7.50219619 1.35285505 7.50219619 1.35285505 9.875 4.4375 C10.24625 5.283125 10.6175 6.12875 11 7 C11.99 8.485 11.99 8.485 13 10 C9.74035658 8.51222697 7.06830707 6.64333184 4.25 4.4375 C3.45078125 3.81746094 2.6515625 3.19742187 1.828125 2.55859375 C1.22484375 2.04425781 0.6215625 1.52992188 0 1 C0 0.67 0 0.34 0 0 Z " fill="#DA5952" transform="translate(192,258)"/>
<path d="M0 0 C0.66 0.33 1.32 0.66 2 1 C0.62087597 4.40136289 -0.62611859 5.69605565 -3.9375 7.25 C-4.62714844 7.58515625 -5.31679688 7.9203125 -6.02734375 8.265625 C-8 9 -8 9 -11 9 C-7.37 6.03 -3.74 3.06 0 0 Z " fill="#61A635" transform="translate(378,206)"/>
<path d="M0 0 C0.66 0.33 1.32 0.66 2 1 C-2.29245283 6.76415094 -2.29245283 6.76415094 -5.625 7.875 C-7.41467404 7.96919337 -9.2078489 8 -11 8 C-7.45960866 5.0843836 -3.8373228 2.49872182 0 0 Z " fill="#F2C751" transform="translate(334,160)"/>
<path d="M0 0 C-1.45365269 1.17249353 -2.91307419 2.33783816 -4.375 3.5 C-5.18710937 4.1496875 -5.99921875 4.799375 -6.8359375 5.46875 C-9 7 -9 7 -11 7 C-10.34 5.68 -9.68 4.36 -9 3 C-8.01 3 -7.02 3 -6 3 C-6 2.01 -6 1.02 -6 0 C-3.50907189 -1.24546405 -2.58919267 -0.7767578 0 0 Z " fill="#D7554B" transform="translate(284,277)"/>
<path d="M0 0 C0 3 0 3 -1.625 5.1875 C-4.60499012 7.46170299 -6.33924624 7.3327958 -10 7 C-10.33 6.01 -10.66 5.02 -11 4 C-10.29875 4.268125 -9.5975 4.53625 -8.875 4.8125 C-5.53988725 5.03000735 -5.13449613 4.63169388 -2.6875 2.5625 C-1.800625 1.716875 -0.91375 0.87125 0 0 Z " fill="#D9564F" transform="translate(257,217)"/>
<path d="M0 0 C4.10839064 1.45002023 7.50344613 3.3979134 11 6 C11 6.66 11 7.32 11 8 C6.86017278 7.12426732 4.52039356 6.54708041 1.5625 3.4375 C0 1 0 1 0 0 Z " fill="#84548D" transform="translate(153,230)"/>
<path d="M0 0 C2.97 0.99 5.94 1.98 9 3 C9.33 4.65 9.66 6.3 10 8 C6.05205855 6.32971708 3.18203882 3.8204435 0 1 C0 0.67 0 0.34 0 0 Z " fill="#A33356" transform="translate(143,222)"/>
<path d="M0 0 C1.32 0.33 2.64 0.66 4 1 C-1.445 4.96 -1.445 4.96 -7 9 C-7 8.01 -7 7.02 -7 6 C-6.34 6 -5.68 6 -5 6 C-5 5.34 -5 4.68 -5 4 C-2.75 1.8125 -2.75 1.8125 0 0 Z " fill="#FDE2DA" transform="translate(294,187)"/>
<path d="M0 0 C0.99 0.33 1.98 0.66 3 1 C1.8758824 2.29243468 0.75067408 3.58392075 -0.375 4.875 C-1.00148438 5.59429687 -1.62796875 6.31359375 -2.2734375 7.0546875 C-3.47426834 8.4076598 -4.7208345 9.7208345 -6 11 C-5.62671065 5.64951939 -4.0042343 3.49087093 0 0 Z " fill="#F8D7D3" transform="translate(122,155)"/>
<path d="M0 0 C0.66 0.33 1.32 0.66 2 1 C-0.54984172 4.11647321 -3.21681307 4.84188155 -7 6 C-8.34721283 6.63815344 -9.68747118 7.29325371 -11 8 C-7.85225194 3.34133287 -5.20221474 1.73407158 0 0 Z " fill="#B7443E" transform="translate(134,150)"/>
<path d="M0 0 C0.99 0.33 1.98 0.66 3 1 C-1.455 4.465 -1.455 4.465 -6 8 C-6.66 6.68 -7.32 5.36 -8 4 C-7.236875 3.71125 -6.47375 3.4225 -5.6875 3.125 C-2.84970692 2.03730987 -2.84970692 2.03730987 0 0 Z " fill="#D5554F" transform="translate(269,285)"/>
<path d="M0 0 C0.66 0.33 1.32 0.66 2 1 C-1.17320782 4.53586014 -3.16743695 6.58578031 -8 7 C-5.42215154 4.35247996 -3.08351902 2.05567935 0 0 Z " fill="#5BA538" transform="translate(333,240)"/>
<path d="M0 0 C2 1.375 2 1.375 4 3 C4 3.66 4 4.32 4 5 C4.66 5 5.32 5 6 5 C6.33 6.32 6.66 7.64 7 9 C6.01 9 5.02 9 4 9 C1.81299059 6.81299059 1.6197515 5.92168566 1 3 C0.67 2.01 0.34 1.02 0 0 Z " fill="#EEBF33" transform="translate(376,157)"/>
<path d="M0 0 C0.99 0.33 1.98 0.66 3 1 C1.54634731 2.17249353 0.08692581 3.33783816 -1.375 4.5 C-2.18710937 5.1496875 -2.99921875 5.799375 -3.8359375 6.46875 C-6 8 -6 8 -8 8 C-7.67 7.01 -7.34 6.02 -7 5 C-5.66666667 4.66666667 -4.33333333 4.33333333 -3 4 C-2.67 3.01 -2.34 2.02 -2 1 C-1.34 0.67 -0.68 0.34 0 0 Z " fill="#FDE5DF" transform="translate(265,209)"/>
<path d="M0 0 C0.99 0.33 1.98 0.66 3 1 C-1.455 4.465 -1.455 4.465 -6 8 C-6.33 6.68 -6.66 5.36 -7 4 C-5.68 4 -4.36 4 -3 4 C-3 3.34 -3 2.68 -3 2 C-2.01 1.34 -1.02 0.68 0 0 Z " fill="#D65953" transform="translate(319,248)"/>
<path d="M0 0 C3.53372712 1.96318174 6.24479785 4.04070881 9 7 C5.2241456 6.47557578 2.77627845 5.67345333 0 3 C0 2.01 0 1.02 0 0 Z " fill="#D75852" transform="translate(228,207)"/>
<path d="M0 0 C0.99 0.33 1.98 0.66 3 1 C-1.455 4.465 -1.455 4.465 -6 8 C-6.33 7.01 -6.66 6.02 -7 5 C-2.25 2 -2.25 2 0 2 C0 1.34 0 0.68 0 0 Z " fill="#FDE1D8" transform="translate(320,168)"/>
<path d="M0 0 C2.64 0.33 5.28 0.66 8 1 C8.33 1.99 8.66 2.98 9 4 C8.34 4.66 7.68 5.32 7 6 C5.83054208 5.19152271 4.66449539 4.37810888 3.5 3.5625 C2.8503125 3.11003906 2.200625 2.65757812 1.53125 2.19140625 C1.0259375 1.79824219 0.520625 1.40507812 0 1 C0 0.67 0 0.34 0 0 Z " fill="#FCE6E2" transform="translate(175,167)"/>
<path d="M0 0 C0.66 0.33 1.32 0.66 2 1 C-1.08290155 5.22797927 -1.08290155 5.22797927 -3 7 C-5.8125 7.375 -5.8125 7.375 -8 7 C-5.4837822 4.39391727 -2.94865641 2.10618315 0 0 Z " fill="#FDDED7" transform="translate(284,276)"/>
<path d="M0 0 C0.66 0 1.32 0 2 0 C1.58578031 4.83256305 -0.46413986 6.82679218 -4 10 C-3.34 8.02 -2.68 6.04 -2 4 C-1.34 4 -0.68 4 0 4 C0 2.68 0 1.36 0 0 Z " fill="#52A56C" transform="translate(383,335)"/>
<path d="M0 0 C0.66 0.33 1.32 0.66 2 1 C0.625 2.5 0.625 2.5 -1 4 C-1.66 4 -2.32 4 -3 4 C-3.33 4.99 -3.66 5.98 -4 7 C-5.65 7.33 -7.3 7.66 -9 8 C-6.14723863 5.06799526 -3.34920216 2.35684596 0 0 Z " fill="#FDDED6" transform="translate(315,253)"/>
<path d="M0 0 C0.66 0.33 1.32 0.66 2 1 C0.29374499 3.78388975 -0.47626739 4.85384206 -3.6875 5.75 C-4.8321875 5.87375 -4.8321875 5.87375 -6 6 C-6 5.34 -6 4.68 -6 4 C-4.03852126 2.61061923 -2.03833424 1.2739589 0 0 Z " fill="#F0C74C" transform="translate(342,154)"/>
<path d="M0 0 C0 3 0 3 -1.5 4.6875 C-1.995 5.120625 -2.49 5.55375 -3 6 C-3.99 5.67 -4.98 5.34 -6 5 C-3.375 1.125 -3.375 1.125 0 0 Z " fill="#E14842" transform="translate(262,215)"/>
<path d="M0 0 C0.66 0.33 1.32 0.66 2 1 C-0.64 2.98 -3.28 4.96 -6 7 C-6.33 6.34 -6.66 5.68 -7 5 C-5.47058649 1.94117299 -3.05780454 1.31048766 0 0 Z " fill="#D3C127" transform="translate(371,210)"/>
<path d="M0 0 C5.75 1.625 5.75 1.625 8 5 C4.62537285 4.45276317 2.91765 3.9451 0 2 C0 1.34 0 0.68 0 0 Z " fill="#795DA1" transform="translate(121,207)"/>
<path d="M0 0 C4.455 2.97 4.455 2.97 9 6 C8.01 6.495 8.01 6.495 7 7 C2.96794098 5.08477197 2.07324061 4.14648122 0 0 Z " fill="#FEE1DA" transform="translate(181,251)"/>
<path d="M0 0 C1.65 0 3.3 0 5 0 C5.66 1.32 6.32 2.64 7 4 C4 4 4 4 1.8125 2 C1.214375 1.34 0.61625 0.68 0 0 Z " fill="#FAD9D3" transform="translate(210,193)"/>
</svg>
