<?xml version="1.0" encoding="UTF-8"?>
<svg version="1.1" xmlns="http://www.w3.org/2000/svg" width="602" height="415">
<path d="M0 0 C0.9861417 -0.00679667 1.97228341 -0.01359334 2.98830819 -0.02059597 C6.29620636 -0.03960234 9.60373536 -0.03712886 12.91168213 -0.03465271 C15.28202797 -0.04362815 17.65236942 -0.0538359 20.02270508 -0.06518555 C25.79561507 -0.0889571 31.56841287 -0.09834933 37.34136936 -0.10002268 C42.03559914 -0.10144918 46.72979866 -0.10761849 51.42401886 -0.11712456 C64.74058439 -0.14354141 78.05707744 -0.15738339 91.37366936 -0.15513314 C92.09133076 -0.15501327 92.80899216 -0.1548934 93.54840088 -0.1547699 C94.26694135 -0.15464726 94.98548183 -0.15452461 95.72579625 -0.15439826 C107.36573765 -0.15317941 119.00538767 -0.18187492 130.64524481 -0.224185 C142.60438855 -0.26731163 154.56339031 -0.28799356 166.52261376 -0.28540367 C173.23383979 -0.28440885 179.94471471 -0.29318637 186.65587616 -0.32493782 C192.96958539 -0.35399248 199.28265013 -0.35421133 205.59638214 -0.33238792 C207.911473 -0.32925164 210.22660405 -0.33633197 212.54162598 -0.3544693 C215.70721726 -0.37766068 218.8705886 -0.36368101 222.03613281 -0.34057617 C223.40410779 -0.36372221 223.40410779 -0.36372221 224.79971862 -0.38733584 C231.61728595 -0.27768806 236.15913478 1.89262053 241.27203369 6.40113831 C244.85312105 10.66485828 245.39572246 13.92414793 245.36296082 19.41610718 C245.35829803 20.67368332 245.35363525 21.93125946 245.34883118 23.22694397 C245.33878685 24.62330636 245.32873091 26.01966866 245.31866455 27.41603088 C245.31187489 28.8845495 245.30566341 30.35307089 245.29998779 31.82159424 C245.2875296 34.98584899 245.27293654 38.15008477 245.25730705 41.31432533 C245.23459676 46.31915862 245.22891012 51.32391667 245.22798157 56.32879639 C245.2277998 57.173393 245.22761804 58.01798962 245.22743076 58.88818008 C245.22698089 62.37253074 245.22706314 65.85688126 245.22726619 69.34123194 C245.22700137 79.2365578 245.21022885 89.13125109 245.14532471 99.02638245 C245.09388915 106.88570588 245.07767957 114.74421076 245.10278612 122.60367507 C245.11473241 126.76279796 245.10878678 130.92017377 245.06010246 135.07906532 C245.01467545 138.99266822 245.01597474 142.90348967 245.05284882 146.81715584 C245.05811229 148.25146946 245.04633146 149.68596458 245.01606178 151.11996841 C244.93140229 155.39392617 244.97973967 159.30854351 246.27203369 163.40113831 C248.6674966 165.66196736 250.81768643 166.90361833 253.83414555 168.20437145 C256.68250705 169.60264095 257.77114286 170.61284613 259.27203369 173.40113831 C259.65235043 176.22920609 259.65235043 176.22920609 259.65971375 179.56086731 C259.67457069 181.45757927 259.67457069 181.45757927 259.68972778 183.39260864 C259.68548969 184.79161169 259.68093182 186.19061379 259.67608643 187.58961487 C259.6817896 189.06489581 259.68875366 190.54017233 259.69688416 192.01544189 C259.71484163 196.02187627 259.71364176 200.02809193 259.70794177 204.03455448 C259.70485207 207.38175431 259.71094029 210.728912 259.71698052 214.07610583 C259.73103411 221.97664054 259.72945899 229.87706716 259.71807861 237.77760315 C259.70661047 245.91876151 259.72064907 254.05958995 259.74747509 262.20070481 C259.76966024 269.19620525 259.77626273 276.19160235 259.77039868 283.18713546 C259.76703292 287.36249545 259.76941802 291.53764423 259.7866497 295.71297455 C259.80216058 299.64309564 259.79811786 303.57273025 259.77934456 307.50283241 C259.77566934 308.94110079 259.77873597 310.37940552 259.78923035 311.8176403 C259.84274643 319.76185926 259.66962215 325.65140383 255.27203369 332.40113831 C253.45562744 334.24098206 253.45562744 334.24098206 251.70953369 335.33863831 C251.13074463 335.71891174 250.55195557 336.09918518 249.95562744 336.49098206 C246.82971124 338.18086251 244.24112373 338.52851945 240.76098537 338.54094601 C239.8311126 338.54663725 238.90123982 338.55232849 237.94318908 338.55819219 C236.91986561 338.55937207 235.89654214 338.56055195 234.84220886 338.56176758 C233.75639277 338.5668554 232.67057667 338.57194322 231.55185705 338.57718521 C227.89470044 338.59294574 224.23756364 338.6014443 220.5803833 338.60987854 C217.96565626 338.61941413 215.3509305 338.62930516 212.73620605 338.63952637 C204.87528359 338.6688065 197.01434955 338.68799879 189.15339193 338.70491871 C186.93254102 338.70971443 184.7116906 338.71469767 182.4908402 338.71972394 C168.69601319 338.75069842 154.90118196 338.77738055 141.10632992 338.79414272 C137.91099477 338.79809215 134.7156597 338.80209515 131.52032471 338.8061676 C130.72615017 338.80717596 129.93197564 338.80818432 129.11373521 338.80922324 C116.2554316 338.82622147 103.39732074 338.8673209 90.53911119 338.91819059 C77.3336436 338.97000363 64.12827504 338.99908992 50.92270666 339.00633961 C43.50998231 339.0109975 36.09757346 339.02570236 28.68494987 339.06608391 C21.70895267 339.10404088 14.73350155 339.11136235 7.75741577 339.09807777 C5.19923818 339.09813174 2.6410368 339.10843399 0.08294868 339.12982941 C-3.41510111 339.15751846 -6.91118928 339.14799621 -10.40925598 339.12939453 C-11.4169644 339.14618946 -12.42467282 339.16298439 -13.46291786 339.18028826 C-20.8370007 339.08257927 -25.89872473 336.91868923 -31.72796631 332.40113831 C-37.13768399 326.71566765 -36.24275586 319.44288015 -36.11859131 312.03004456 C-36.11293152 310.75257858 -36.10727173 309.47511261 -36.10144043 308.15893555 C-36.08290451 304.78344933 -36.04704926 301.40906988 -36.00262451 298.03388977 C-35.96150443 294.58153279 -35.94339397 291.12906088 -35.92327881 287.67652893 C-35.87926311 280.91776257 -35.81238798 274.15951426 -35.72796631 267.40113831 C-37.23347298 267.41113106 -37.23347298 267.41113106 -38.76939392 267.42132568 C-48.23028249 267.48215355 -57.69113135 267.52711901 -67.15217113 267.55657482 C-72.01614218 267.57222747 -76.87995529 267.59345851 -81.74383545 267.62745667 C-86.43818526 267.66006429 -91.13238321 267.67799434 -95.82683754 267.68577003 C-97.6173981 267.69131101 -99.4079504 267.70213121 -101.19844627 267.71832848 C-103.70741074 267.74012151 -106.21574852 267.74310447 -108.72479248 267.74171448 C-109.83394264 267.75789322 -109.83394264 267.75789322 -110.96549988 267.7743988 C-115.41508125 267.7477435 -118.17696919 267.10708544 -121.72796631 264.40113831 C-126.57038512 259.1551846 -126.85129294 255.44273489 -126.87513733 248.44416809 C-126.87881402 247.74402391 -126.88249071 247.04387973 -126.88627881 246.32251906 C-126.89729106 243.9766477 -126.90115529 241.63082068 -126.90496826 239.28492737 C-126.91123473 237.60275635 -126.9178817 235.92058671 -126.92488098 234.23841858 C-126.94590061 228.71454326 -126.95628089 223.19066772 -126.96624756 217.66676331 C-126.97029579 215.76378617 -126.97441273 213.86080918 -126.97859764 211.95783234 C-126.9976441 203.01760826 -127.01187671 194.07739242 -127.02020961 185.13715196 C-127.02998265 174.8226428 -127.05630619 164.50834821 -127.0967105 154.19391465 C-127.12688221 146.21755233 -127.14167946 138.24125149 -127.14499062 130.26483321 C-127.14733975 125.5025974 -127.15628246 120.74059096 -127.1814518 115.97841644 C-127.20475623 111.49679077 -127.20895626 107.01554511 -127.19869041 102.53387451 C-127.19819553 100.89241012 -127.20450194 99.25092688 -127.21824646 97.60951996 C-127.35276376 80.58775841 -127.35276376 80.58775841 -122.72796631 75.40113831 C-117.83605263 71.00183389 -112.62141445 70.84063521 -106.30438232 70.94703674 C-105.38652451 70.94645264 -104.46866669 70.94586853 -103.522995 70.94526672 C-100.50889402 70.94803892 -97.49579937 70.97909011 -94.48187256 71.01051331 C-92.38437948 71.01797877 -90.2868794 71.02367026 -88.18937683 71.02766418 C-82.68354856 71.04289641 -77.17814605 71.0821577 -71.67248535 71.1264801 C-66.04845946 71.16748471 -60.4243644 71.18568629 -54.80023193 71.20582581 C-43.7759569 71.24865407 -32.75199708 71.31687637 -21.72796631 71.40113831 C-21.73795906 70.33118118 -21.73795906 70.33118118 -21.74815369 69.23960876 C-21.80838516 62.50152642 -21.85400165 55.76351974 -21.88340282 49.0252285 C-21.89902672 45.56138453 -21.92020426 42.09776391 -21.95428467 38.63404846 C-21.99326091 34.64758522 -22.00770268 30.66121091 -22.02093506 26.67457581 C-22.03641891 25.43686432 -22.05190277 24.19915283 -22.06785583 22.92393494 C-22.06926323 15.71437068 -21.69442628 10.86200827 -16.85296631 5.21363831 C-11.23088651 0.41833494 -7.18177913 -0.03623078 0 0 Z " fill="#0F77D2" transform="translate(230.72796630859375,28.598861694335938)"/>
<path d="M0 0 C0.33 0 0.66 0 1 0 C0.9939037 1.15129363 0.9939037 1.15129363 0.98768425 2.32584572 C0.89221471 21.00463901 0.85193709 39.68280571 0.87302971 58.3618412 C0.88190019 67.39500329 0.87211559 76.42742482 0.81835938 85.46044922 C0.77155029 93.33406313 0.75979898 101.206817 0.7900821 109.08052576 C0.8048945 113.24971187 0.80219524 117.41722305 0.75750351 121.58623123 C0.71597178 125.5121537 0.72138587 129.43523765 0.76252174 133.36113739 C0.76937972 134.80026645 0.75920959 136.23959496 0.73056984 137.67845535 C0.65083861 141.96570841 0.70355736 145.89493363 2 150 C4.39581618 152.26335079 6.54399616 153.50445737 9.56266975 154.80490685 C12.41159355 156.20181616 13.49919021 157.21177016 15 160 C15.38031673 162.82806778 15.38031673 162.82806778 15.38768005 166.159729 C15.402537 168.05644096 15.402537 168.05644096 15.41769409 169.99147034 C15.41345599 171.39047338 15.40889813 172.78947549 15.40405273 174.18847656 C15.40975591 175.6637575 15.41671997 177.13903403 15.42485046 178.61430359 C15.44280794 182.62073797 15.44160807 186.62695362 15.43590808 190.63341618 C15.43281838 193.98061601 15.4389066 197.32777369 15.44494683 200.67496753 C15.45900041 208.57550224 15.4574253 216.47592886 15.44604492 224.37646484 C15.43457678 232.51762321 15.44861537 240.65845165 15.4754414 248.79956651 C15.49762655 255.79506695 15.50422903 262.79046405 15.49836498 269.78599715 C15.49499923 273.96135715 15.49738432 278.13650593 15.51461601 282.31183624 C15.53012688 286.24195734 15.52608417 290.17159195 15.50731087 294.10169411 C15.50363564 295.53996248 15.50670228 296.97826721 15.51719666 298.416502 C15.57071274 306.36072096 15.39758846 312.25026553 11 319 C9.18359375 320.83984375 9.18359375 320.83984375 7.4375 321.9375 C6.85871094 322.31777344 6.27992188 322.69804687 5.68359375 323.08984375 C2.55767755 324.7797242 -0.03090996 325.12738114 -3.51104832 325.1398077 C-4.44092109 325.14549894 -5.37079387 325.15119018 -6.32884461 325.15705389 C-7.35216808 325.15823376 -8.37549155 325.15941364 -9.42982483 325.16062927 C-10.51564093 325.16571709 -11.60145702 325.17080491 -12.72017664 325.17604691 C-16.37733325 325.19180743 -20.03447005 325.20030599 -23.69165039 325.20874023 C-26.30637743 325.21827583 -28.92110319 325.22816686 -31.53582764 325.23838806 C-39.3967501 325.2676682 -47.25768414 325.28686048 -55.11864176 325.30378041 C-57.33949267 325.30857612 -59.5603431 325.31355937 -61.78119349 325.31858563 C-75.5760205 325.34956011 -89.37085173 325.37624224 -103.16570377 325.39300442 C-106.36103892 325.39695385 -109.55637399 325.40095685 -112.75170898 325.4050293 C-113.54588352 325.40603766 -114.34005805 325.40704602 -115.15829848 325.40808494 C-128.01660209 325.42508316 -140.87471295 325.46618259 -153.7329225 325.51705229 C-166.93839009 325.56886532 -180.14375866 325.59795161 -193.34932703 325.6052013 C-200.76205139 325.60985919 -208.17446023 325.62456405 -215.58708382 325.6649456 C-222.56308102 325.70290258 -229.53853214 325.71022405 -236.51461792 325.69693947 C-239.07279551 325.69699343 -241.63099689 325.70729569 -244.18908501 325.7286911 C-247.6871348 325.75638015 -251.18322298 325.7468579 -254.68128967 325.72825623 C-255.68899809 325.74505115 -256.69670652 325.76184608 -257.73495156 325.77914995 C-265.1090344 325.68144097 -270.17075842 323.51755093 -276 319 C-281.40971769 313.31452935 -280.51478955 306.04174184 -280.390625 298.62890625 C-280.38496521 297.35144028 -280.37930542 296.0739743 -280.37347412 294.75779724 C-280.3549382 291.38231102 -280.31908295 288.00793157 -280.2746582 284.63275146 C-280.23353812 281.18039448 -280.21542766 277.72792258 -280.1953125 274.27539062 C-280.1512968 267.51662426 -280.08442167 260.75837595 -280 254 C-279.67 254 -279.34 254 -279 254 C-278.67 256.64 -278.34 259.28 -278 262 C-277.01 260.02 -277.01 260.02 -276 258 C-274.35 258 -272.7 258 -271 258 C-271 259.32 -271 260.64 -271 262 C-270.34 262 -269.68 262 -269 262 C-268.505 260.02 -268.505 260.02 -268 258 C-267.36191406 258.01160156 -266.72382813 258.02320313 -266.06640625 258.03515625 C-265.24011719 258.04417969 -264.41382813 258.05320312 -263.5625 258.0625 C-262.32693359 258.07990234 -262.32693359 258.07990234 -261.06640625 258.09765625 C-259.00836062 258.23267348 -259.00836062 258.23267348 -258 257 C-256.50855666 256.94136017 -255.01425778 256.95345192 -253.5222168 256.99414062 C-252.56578781 257.0174646 -251.60935883 257.04078857 -250.62394714 257.06481934 C-249.57628677 257.09499146 -248.5286264 257.12516357 -247.44921875 257.15625 C-245.21940352 257.20973895 -242.98958572 257.26312057 -240.75976562 257.31640625 C-237.25424105 257.40621059 -233.74879796 257.49834013 -230.2434082 257.59326172 C-217.05876507 257.942987 -203.99527066 258.07417091 -190.82739258 257.23632812 C-188.22203468 257.07545637 -185.61031981 257 -183 257 C-183 257.66 -183 258.32 -183 259 C-181.01735205 258.34410262 -181.01735205 258.34410262 -179 257 C-178.28272222 255.35448038 -177.61674772 253.68577711 -177 252 C-176 251 -175 250 -174 249 C-172.90564546 245.79251706 -172.95294907 242.94101868 -173.12109375 239.578125 C-173.16943359 238.55332031 -173.21777344 237.52851563 -173.26757812 236.47265625 C-173.35168945 234.87744141 -173.35168945 234.87744141 -173.4375 233.25 C-173.48970703 232.17105469 -173.54191406 231.09210938 -173.59570312 229.98046875 C-173.72519469 227.32000578 -173.86015361 224.65993548 -174 222 C-170.68408012 222.67834356 -167.99384475 223.91114256 -165 225.4765625 C-163.55379272 226.23114746 -163.55379272 226.23114746 -162.07836914 227.00097656 C-161.06250732 227.5369043 -160.04664551 228.07283203 -159 228.625 C-157.44430298 229.43662598 -157.44430298 229.43662598 -155.85717773 230.26464844 C-150.46974375 233.09386512 -145.22035196 236.02385321 -140.0625 239.25 C-133.4173718 243.22357448 -128.49096974 242.49819395 -121 241 C-121 240.34 -121 239.68 -121 239 C-120.1234375 238.57332031 -119.246875 238.14664063 -118.34375 237.70703125 C-108.79504541 233.01567201 -99.42699125 228.02724228 -90.08691406 222.93432617 C-82.89756277 219.01652723 -75.66829735 215.18532186 -68.40600586 211.40478516 C-63.93377372 209.06262647 -59.5761148 206.6020938 -55.25 204 C-51.19055013 201.57687332 -47.62907823 199.94685691 -43 199 C-43 198.34 -43 197.68 -43 197 C-56.53 197 -70.06 197 -84 197 C-84 169.61 -84 142.22 -84 114 C-112.71 114 -141.42 114 -171 114 C-173.25 109.5 -173.25 109.5 -173.22705078 105.87402344 C-173.22689972 105.07349548 -173.22674866 104.27296753 -173.22659302 103.44818115 C-173.21627045 102.59387512 -173.20594788 101.73956909 -173.1953125 100.859375 C-173.1924826 99.97719299 -173.18965271 99.09501099 -173.18673706 98.18609619 C-173.17555961 95.37392501 -173.15045951 92.5620746 -173.125 89.75 C-173.11496705 87.84115044 -173.10584175 85.93229588 -173.09765625 84.0234375 C-173.07562824 79.34883511 -173.04111511 74.67447191 -173 70 C-173.66 70 -174.32 70 -175 70 C-175 56.8 -175 43.6 -175 30 C-117.25 30 -59.5 30 0 30 C0 20.1 0 10.2 0 0 Z " fill="#1F94DD" transform="translate(475,42)"/>
<path d="M0 0 C0.33 0 0.66 0 1 0 C1 49.5 1 99 1 150 C0.67 150 0.34 150 0 150 C0 138.12 0 126.24 0 114 C-56.43 114 -112.86 114 -171 114 C-173.25 109.5 -173.25 109.5 -173.22705078 105.87402344 C-173.22689972 105.07349548 -173.22674866 104.27296753 -173.22659302 103.44818115 C-173.21627045 102.59387512 -173.20594788 101.73956909 -173.1953125 100.859375 C-173.1924826 99.97719299 -173.18965271 99.09501099 -173.18673706 98.18609619 C-173.17555961 95.37392501 -173.15045951 92.5620746 -173.125 89.75 C-173.11496705 87.84115044 -173.10584175 85.93229588 -173.09765625 84.0234375 C-173.07562824 79.34883511 -173.04111511 74.67447191 -173 70 C-173.66 70 -174.32 70 -175 70 C-175 56.8 -175 43.6 -175 30 C-117.25 30 -59.5 30 0 30 C0 20.1 0 10.2 0 0 Z " fill="#30ABE8" transform="translate(475,42)"/>
<path d="M0 0 C0.9861417 -0.00679667 1.97228341 -0.01359334 2.98830819 -0.02059597 C6.29620636 -0.03960234 9.60373536 -0.03712886 12.91168213 -0.03465271 C15.28202797 -0.04362815 17.65236942 -0.0538359 20.02270508 -0.06518555 C25.79561507 -0.0889571 31.56841287 -0.09834933 37.34136936 -0.10002268 C42.03559914 -0.10144918 46.72979866 -0.10761849 51.42401886 -0.11712456 C64.74058439 -0.14354141 78.05707744 -0.15738339 91.37366936 -0.15513314 C92.09133076 -0.15501327 92.80899216 -0.1548934 93.54840088 -0.1547699 C94.26694135 -0.15464726 94.98548183 -0.15452461 95.72579625 -0.15439826 C107.36573765 -0.15317941 119.00538767 -0.18187492 130.64524481 -0.224185 C142.60438855 -0.26731163 154.56339031 -0.28799356 166.52261376 -0.28540367 C173.23383979 -0.28440885 179.94471471 -0.29318637 186.65587616 -0.32493782 C192.96958539 -0.35399248 199.28265013 -0.35421133 205.59638214 -0.33238792 C207.911473 -0.32925164 210.22660405 -0.33633197 212.54162598 -0.3544693 C215.70721726 -0.37766068 218.8705886 -0.36368101 222.03613281 -0.34057617 C223.40410779 -0.36372221 223.40410779 -0.36372221 224.79971862 -0.38733584 C231.61728595 -0.27768806 236.15913478 1.89262053 241.27203369 6.40113831 C248.69631817 16.30018428 244.27203369 31.02733084 244.27203369 43.40113831 C156.82203369 43.40113831 69.37203369 43.40113831 -20.72796631 43.40113831 C-20.72796631 9.88389693 -20.72796631 9.88389693 -16.91546631 5.15113831 C-11.14299675 0.53316266 -7.23407735 -0.03649462 0 0 Z " fill="#0B6BB2" transform="translate(230.72796630859375,28.598861694335938)"/>
<path d="M0 0 C30.03 0 60.06 0 91 0 C91 27.39 91 54.78 91 83 C104.53 83 118.06 83 132 83 C132 83.66 132 84.32 132 85 C130.58074219 85.69222656 130.58074219 85.69222656 129.1328125 86.3984375 C120.81156533 90.49087161 112.65990447 94.80649199 104.57910156 99.35473633 C100.06433644 101.88493053 95.52090046 104.28178523 90.875 106.5625 C85.75795603 109.07655173 80.77097184 111.75341867 75.8125 114.5625 C75.14114014 114.94277344 74.46978027 115.32304687 73.77807617 115.71484375 C71.85123245 116.80846415 69.9253962 117.90383348 68 119 C65.89980772 120.19451496 63.79615506 121.38298846 61.6875 122.5625 C60.84574219 123.03816406 60.00398438 123.51382813 59.13671875 124.00390625 C57 125 57 125 54 125 C54 125.66 54 126.32 54 127 C47.94651122 129.42139551 42.64761574 130.07092431 36.60424805 127.62646484 C35.50121338 126.99434082 34.39817871 126.3622168 33.26171875 125.7109375 C32.65544144 125.37003082 32.04916412 125.02912415 31.42451477 124.67788696 C29.50270803 123.5926601 27.59524506 122.48472298 25.6875 121.375 C24.42082371 120.65336263 23.15325022 119.93329774 21.88476562 119.21484375 C19.51190038 117.86949869 17.14621026 116.51397709 14.78393555 115.14990234 C9.8913194 112.37008573 4.94007005 109.69458366 0 107 C0 71.69 0 36.38 0 0 Z " fill="#0074CD" transform="translate(300,156)"/>
<path d="M0 0 C7.26065101 5.39660595 11.23673047 11.51160276 15.17578125 19.6171875 C15.50707031 20.29394531 15.83835937 20.97070312 16.1796875 21.66796875 C22.10233915 34.57191026 20.48845886 53.41974548 16.17578125 66.6171875 C10.72855937 80.31777587 2.68277921 88.69066979 -10.6484375 94.94140625 C-22.53232834 99.36873813 -37.98087991 99.85744731 -50.01171875 95.6171875 C-64.26661071 88.96490459 -72.06767741 79.79152348 -77.87890625 65.37890625 C-83.02276585 50.35118418 -81.32246594 31.06490582 -74.5390625 16.94140625 C-67.9924374 4.9240638 -57.86605853 -2.83265135 -44.89550781 -7.00292969 C-29.81948551 -11.13869913 -13.04358182 -8.58186562 0 0 Z " fill="#F7FCFD" transform="translate(232.82421875,153.3828125)"/>
<path d="M0 0 C27.72 0 55.44 0 84 0 C84 11.88 84 23.76 84 36 C85.98 36.66 87.96 37.32 90 38 C92.30078125 39.4375 92.30078125 39.4375 94.3125 41 C94.98925781 41.515625 95.66601562 42.03125 96.36328125 42.5625 C98 44 98 44 99 46 C99.10246147 47.97102171 99.13951235 49.94555174 99.14717102 51.91921997 C99.15790398 53.81180794 99.15790398 53.81180794 99.16885376 55.74263 C99.1716942 57.14889502 99.17440591 58.5551603 99.17700195 59.96142578 C99.18326573 61.43640809 99.18991245 62.91138881 99.19691467 64.3863678 C99.21797377 69.23933815 99.22832112 74.09230888 99.23828125 78.9453125 C99.2423286 80.61611828 99.24644551 82.2869239 99.25063133 83.95772934 C99.26968977 91.80979837 99.28391749 99.66185798 99.2922433 107.5139457 C99.30200826 116.57369725 99.32830555 125.63320399 99.36874419 134.69286931 C99.39893196 141.69680045 99.41371484 148.70066155 99.41702431 155.70465648 C99.41937247 159.8867833 99.4283016 164.06864878 99.45348549 168.25070572 C99.47681689 172.18896664 99.4809793 176.12679515 99.47072411 180.06510735 C99.4702298 181.50661472 99.47651914 182.94814372 99.49028015 184.38958549 C99.56195834 192.34634457 99.41052293 198.24105371 95 205 C93.18359375 206.83984375 93.18359375 206.83984375 91.4375 207.9375 C90.56931641 208.50791016 90.56931641 208.50791016 89.68359375 209.08984375 C86.55767755 210.7797242 83.96909004 211.12738114 80.48895168 211.1398077 C79.55907891 211.14549894 78.62920613 211.15119018 77.67115539 211.15705389 C76.64783192 211.15823376 75.62450845 211.15941364 74.57017517 211.16062927 C72.94145103 211.168261 72.94145103 211.168261 71.27982336 211.17604691 C67.62266675 211.19180743 63.96552995 211.20030599 60.30834961 211.20874023 C57.69362257 211.21827583 55.07889681 211.22816686 52.46417236 211.23838806 C44.6032499 211.2676682 36.74231586 211.28686048 28.88135824 211.30378041 C26.66050733 211.30857612 24.4396569 211.31355937 22.21880651 211.31858563 C8.4239795 211.34956011 -5.37085173 211.37624224 -19.16570377 211.39300442 C-22.36103892 211.39695385 -25.55637399 211.40095685 -28.75170898 211.4050293 C-29.54588352 211.40603766 -30.34005805 211.40704602 -31.15829848 211.40808494 C-44.01660209 211.42508316 -56.87471295 211.46618259 -69.7329225 211.51705229 C-82.93839009 211.56886532 -96.14375866 211.59795161 -109.34932703 211.6052013 C-116.76205139 211.60985919 -124.17446023 211.62456405 -131.58708382 211.6649456 C-138.56308102 211.70290258 -145.53853214 211.71022405 -152.51461792 211.69693947 C-155.07279551 211.69699343 -157.63099689 211.70729569 -160.18908501 211.7286911 C-163.6871348 211.75638015 -167.18322298 211.7468579 -170.68128967 211.72825623 C-171.68899809 211.74505115 -172.69670652 211.76184608 -173.73495156 211.77914995 C-181.1090344 211.68144097 -186.17075842 209.51755093 -192 205 C-197.40971769 199.31452935 -196.51478955 192.04174184 -196.390625 184.62890625 C-196.38496521 183.35144028 -196.37930542 182.0739743 -196.37347412 180.75779724 C-196.3549382 177.38231102 -196.31908295 174.00793157 -196.2746582 170.63275146 C-196.23353812 167.18039448 -196.21542766 163.72792258 -196.1953125 160.27539062 C-196.1512968 153.51662426 -196.08442167 146.75837595 -196 140 C-195.67 140 -195.34 140 -195 140 C-194.93941406 141.07378906 -194.87882813 142.14757812 -194.81640625 143.25390625 C-194.73192349 144.69011315 -194.64727946 146.12631058 -194.5625 147.5625 C-194.50352539 148.61920898 -194.50352539 148.61920898 -194.44335938 149.69726562 C-194.38051758 150.74624023 -194.38051758 150.74624023 -194.31640625 151.81640625 C-194.27974854 152.45006104 -194.24309082 153.08371582 -194.20532227 153.73657227 C-194.0379056 155.58213692 -193.77472651 157.41880722 -193.48413086 159.24902344 C-192.96671507 163.25788691 -192.89083659 167.16790251 -192.9375 171.19921875 C-192.94128662 171.956689 -192.94507324 172.71415924 -192.94897461 173.49458313 C-192.96109396 175.89228274 -192.97972803 178.28985634 -193 180.6875 C-193.02663012 183.85806967 -193.04658957 187.02857921 -193.0625 190.19921875 C-193.07079834 190.9221965 -193.07909668 191.64517426 -193.08764648 192.39006042 C-193.10398292 195.74234175 -193.05087429 198.79617804 -192 202 C-190.02 202 -188.04 202 -186 202 C-185.938125 202.598125 -185.87625 203.19625 -185.8125 203.8125 C-185.15154962 206.13527472 -185.15154962 206.13527472 -183.11236095 207.61332989 C-178.54765586 209.64707219 -174.33427493 209.41027755 -169.38972473 209.3742218 C-168.30880592 209.37819621 -167.2278871 209.38217061 -166.11421317 209.38626546 C-162.48592113 209.3959034 -158.85801754 209.38406102 -155.22973633 209.37231445 C-152.63129022 209.37474187 -150.03284505 209.3784607 -147.43440247 209.38337708 C-141.10635219 209.39286378 -134.77841597 209.38626694 -128.45037416 209.37411413 C-121.08473289 209.36049513 -113.7191188 209.36213182 -106.35346814 209.36424746 C-93.21552108 209.36743699 -80.07762825 209.35577043 -66.93969727 209.33618164 C-54.18284454 209.31716598 -41.42605534 209.31009717 -28.66918945 209.31567383 C-14.78262471 209.32172637 -0.8960879 209.3215651 12.99047452 209.310188 C14.46994579 209.30898067 15.94941705 209.30777469 17.42888832 209.30657005 C18.15685707 209.30596651 18.88482582 209.30536298 19.63485422 209.30474115 C24.77312021 209.30085644 29.91137581 209.30125771 35.04964256 209.3031559 C41.95821909 209.30549474 48.86671219 209.29697788 55.77527046 209.2810955 C58.31743404 209.27683681 60.85960591 209.27601266 63.40177155 209.27878571 C66.85816428 209.28198525 70.3143085 209.27298225 73.77067566 209.26069641 C74.78864973 209.26447573 75.8066238 209.26825506 76.85544556 209.27214891 C77.7759606 209.26631671 78.69647563 209.26048452 79.64488506 209.25447559 C80.84263436 209.25317543 80.84263436 209.25317543 82.06458062 209.251849 C84.23744901 209.16918509 84.23744901 209.16918509 86 207 C86.99 207 87.98 207 89 207 C89 204.36 89 201.72 89 199 C89.33 200.32 89.66 201.64 90 203 C91.65 202.67 93.3 202.34 95 202 C94.9690625 200.7934375 94.9690625 200.7934375 94.9375 199.5625 C95 197 95 197 96 196 C96.10052946 193.30981631 96.13616001 190.6452803 96.12939453 187.95458984 C96.13114685 187.11047043 96.13289917 186.26635101 96.13470459 185.39665222 C96.13913114 182.58472681 96.13617866 179.77286364 96.1328125 176.9609375 C96.13348619 175.00289905 96.13445676 173.04486068 96.13571167 171.08682251 C96.13719043 166.96575124 96.13503163 162.84470157 96.13037109 158.72363281 C96.12472611 153.4799492 96.12791805 148.23631736 96.13394356 142.99263573 C96.13758947 138.9378929 96.13639135 134.88316195 96.13381577 130.82841873 C96.13315484 128.89822 96.13394529 126.96802014 96.13629532 125.03782272 C96.14579146 115.02821592 95.98466489 105.11845915 95.22460938 95.13415527 C94.94642701 91.25245297 94.88619694 87.4265381 94.90234375 83.53515625 C94.90446617 82.50158241 94.90446617 82.50158241 94.90663147 81.4471283 C94.91207808 79.31886791 94.92459575 77.19072669 94.9375 75.0625 C94.942535 73.58919426 94.9470943 72.11588682 94.95117188 70.64257812 C94.96199623 67.0950156 94.97914545 63.54751948 95 60 C94.236875 60.309375 93.47375 60.61875 92.6875 60.9375 C90.81210323 61.67893593 88.91315348 62.36228217 87 63 C87 63.66 87 64.32 87 65 C86.0925 64.979375 85.185 64.95875 84.25 64.9375 C81.57327412 64.9889755 79.53011948 65.2215017 77 66 C76.67 65.34 76.34 64.68 76 64 C75.34 64.33 74.68 64.66 74 65 C73.34786708 67.02463255 73.34786708 67.02463255 73 69 C72.67 68.34 72.34 67.68 72 67 C66.80273636 68.86316999 64.54887058 69.90225884 62 75 C61.34 75.33 60.68 75.66 60 76 C60 75.34 60 74.68 60 74 C59.51789063 74.433125 59.03578125 74.86625 58.5390625 75.3125 C57.90742188 75.869375 57.27578125 76.42625 56.625 77 C55.99851562 77.556875 55.37203125 78.11375 54.7265625 78.6875 C53 80 53 80 51 80 C51 79.34 51 78.68 51 78 C47.9254644 78.7763932 47.9254644 78.7763932 46 81 C45.34 81 44.68 81 44 81 C42.36323743 82.9600281 42.36323743 82.9600281 41 85 C41 84.34 41 83.68 41 83 C27.47 83 13.94 83 0 83 C0 55.61 0 28.22 0 0 Z " fill="#239DE2" transform="translate(391,156)"/>
<path d="M0 0 C0.33 0 0.66 0 1 0 C1 49.5 1 99 1 150 C0.67 150 0.34 150 0 150 C0 138.12 0 126.24 0 114 C-27.72 114 -55.44 114 -84 114 C-84 86.61 -84 59.22 -84 31 C-56.28 31 -28.56 31 0 31 C0 20.77 0 10.54 0 0 Z " fill="#53D9FE" transform="translate(475,42)"/>
<path d="M0 0 C2.31 0.33 4.62 0.66 7 1 C6.2884375 1.7734375 6.2884375 1.7734375 5.5625 2.5625 C2.36579401 7.54936135 2.89124551 13.7280519 2.97265625 19.48046875 C2.98531194 20.90689853 2.99767219 22.33333096 3.00976562 23.75976562 C3.03440845 25.96664076 3.06228446 28.17337036 3.09594727 30.38012695 C3.22504897 39.44266006 2.90721879 48.08859239 1 57 C1.66 57 2.32 57 3 57 C3 65.58 3 74.16 3 83 C44.91 83.33 86.82 83.66 130 84 C130 84.66 130 85.32 130 86 C129.19820312 86.38929688 128.39640625 86.77859375 127.5703125 87.1796875 C119.80589649 91.00027316 112.22339502 95.06335234 104.68066406 99.30395508 C100.13161069 101.849627 95.55453519 104.26537054 90.875 106.5625 C85.75795603 109.07655173 80.77097184 111.75341867 75.8125 114.5625 C75.14114014 114.94277344 74.46978027 115.32304687 73.77807617 115.71484375 C71.85123245 116.80846415 69.9253962 117.90383348 68 119 C65.89980772 120.19451496 63.79615506 121.38298846 61.6875 122.5625 C60.84574219 123.03816406 60.00398438 123.51382813 59.13671875 124.00390625 C57 125 57 125 54 125 C54 125.66 54 126.32 54 127 C47.94651122 129.42139551 42.64761574 130.07092431 36.60424805 127.62646484 C35.50121338 126.99434082 34.39817871 126.3622168 33.26171875 125.7109375 C32.65544144 125.37003082 32.04916412 125.02912415 31.42451477 124.67788696 C29.50270803 123.5926601 27.59524506 122.48472298 25.6875 121.375 C24.42082371 120.65336263 23.15325022 119.93329774 21.88476562 119.21484375 C19.51190038 117.86949869 17.14621026 116.51397709 14.78393555 115.14990234 C9.8913194 112.37008573 4.94007005 109.69458366 0 107 C0 71.69 0 36.38 0 0 Z " fill="#0251A0" transform="translate(300,156)"/>
<path d="M0 0 C8.09011721 4.31472918 12.91817427 9.92679621 15.75390625 18.625 C18.67641473 31.05077034 18.20723077 45.43529588 11.75 56.6875 C7.33078431 63.03270222 1.66855424 67.71869486 -6 69.3125 C-14.43571591 70.36258912 -21.01155602 69.26264782 -28 64.3125 C-34.9815854 58.53087459 -39.20048382 50.1321735 -40.25439453 41.14257812 C-41.05764772 29.36824612 -40.4845765 17.5340912 -32.67578125 8.09765625 C-23.80473659 -1.35238434 -12.73510302 -5.3496096 0 0 Z " fill="#1077D2" transform="translate(214,164.6875)"/>
<path d="M0 0 C2.70990884 2.70990884 2.25588116 4.1259887 2.26742554 7.91921997 C2.28022049 9.81180794 2.28022049 9.81180794 2.29327393 11.74263 C2.29257482 13.14889539 2.29165171 14.55516067 2.29052734 15.96142578 C2.29650916 17.43640993 2.3033139 18.91139094 2.31088257 20.3863678 C2.32859217 24.40113794 2.33324022 28.41582288 2.33451414 32.4306283 C2.33641147 35.78269157 2.34376768 39.13473492 2.35085833 42.48679054 C2.3671612 50.39973256 2.37202582 58.31262906 2.37060547 66.22558594 C2.36940574 74.38145789 2.39046924 82.53706447 2.4220928 90.69286931 C2.44827998 97.696811 2.45897164 104.70066622 2.45769465 111.70465648 C2.45718543 115.88676762 2.46284547 120.06864341 2.48405075 124.25070572 C2.50347262 128.18898698 2.50353095 132.12680953 2.48901749 136.06510735 C2.48693266 137.50660691 2.49161086 138.94813544 2.5037384 140.38958549 C2.5662968 148.34384236 2.40730624 154.24276748 -2 161 C-3.81640625 162.83984375 -3.81640625 162.83984375 -5.5625 163.9375 C-6.43068359 164.50791016 -6.43068359 164.50791016 -7.31640625 165.08984375 C-10.44232245 166.7797242 -13.03090996 167.12738114 -16.51104832 167.1398077 C-17.44092109 167.14549894 -18.37079387 167.15119018 -19.32884461 167.15705389 C-20.35216808 167.15823376 -21.37549155 167.15941364 -22.42982483 167.16062927 C-24.05854897 167.168261 -24.05854897 167.168261 -25.72017664 167.17604691 C-29.37733325 167.19180743 -33.03447005 167.20030599 -36.69165039 167.20874023 C-39.30637743 167.21827583 -41.92110319 167.22816686 -44.53582764 167.23838806 C-52.3967501 167.2676682 -60.25768414 167.28686048 -68.11864176 167.30378041 C-70.33949267 167.30857612 -72.5603431 167.31355937 -74.78119349 167.31858563 C-88.5760205 167.34956011 -102.37085173 167.37624224 -116.16570377 167.39300442 C-119.36103892 167.39695385 -122.55637399 167.40095685 -125.75170898 167.4050293 C-126.54588352 167.40603766 -127.34005805 167.40704602 -128.15829848 167.40808494 C-141.01660209 167.42508316 -153.87471295 167.46618259 -166.7329225 167.51705229 C-179.93839009 167.56886532 -193.14375866 167.59795161 -206.34932703 167.6052013 C-213.76205139 167.60985919 -221.17446023 167.62456405 -228.58708382 167.6649456 C-235.56308102 167.70290258 -242.53853214 167.71022405 -249.51461792 167.69693947 C-252.07279551 167.69699343 -254.63099689 167.70729569 -257.18908501 167.7286911 C-260.6871348 167.75638015 -264.18322298 167.7468579 -267.68128967 167.72825623 C-268.68899809 167.74505115 -269.69670652 167.76184608 -270.73495156 167.77914995 C-278.1090344 167.68144097 -283.17075842 165.51755093 -289 161 C-294.40971769 155.31452935 -293.51478955 148.04174184 -293.390625 140.62890625 C-293.38496521 139.35144028 -293.37930542 138.0739743 -293.37347412 136.75779724 C-293.3549382 133.38231102 -293.31908295 130.00793157 -293.2746582 126.63275146 C-293.23353812 123.18039448 -293.21542766 119.72792258 -293.1953125 116.27539062 C-293.1512968 109.51662426 -293.08442167 102.75837595 -293 96 C-292.67 96 -292.34 96 -292 96 C-291.93941406 97.07378906 -291.87882813 98.14757812 -291.81640625 99.25390625 C-291.73192349 100.69011315 -291.64727946 102.12631058 -291.5625 103.5625 C-291.52318359 104.26697266 -291.48386719 104.97144531 -291.44335938 105.69726562 C-291.40146484 106.39658203 -291.35957031 107.09589844 -291.31640625 107.81640625 C-291.26141968 108.76688843 -291.26141968 108.76688843 -291.20532227 109.73657227 C-291.0379056 111.58213692 -290.77472651 113.41880722 -290.48413086 115.24902344 C-289.96671507 119.25788691 -289.89083659 123.16790251 -289.9375 127.19921875 C-289.94128662 127.956689 -289.94507324 128.71415924 -289.94897461 129.49458313 C-289.96109396 131.89228274 -289.97972803 134.28985634 -290 136.6875 C-290.02663012 139.85806967 -290.04658957 143.02857921 -290.0625 146.19921875 C-290.07079834 146.9221965 -290.07909668 147.64517426 -290.08764648 148.39006042 C-290.10398292 151.74234175 -290.05087429 154.79617804 -289 158 C-287.02 158 -285.04 158 -283 158 C-282.938125 158.598125 -282.87625 159.19625 -282.8125 159.8125 C-282.15154962 162.13527472 -282.15154962 162.13527472 -280.11236095 163.61332989 C-275.54765586 165.64707219 -271.33427493 165.41027755 -266.38972473 165.3742218 C-265.30880592 165.37819621 -264.2278871 165.38217061 -263.11421317 165.38626546 C-259.48592113 165.3959034 -255.85801754 165.38406102 -252.22973633 165.37231445 C-249.63129022 165.37474187 -247.03284505 165.3784607 -244.43440247 165.38337708 C-238.10635219 165.39286378 -231.77841597 165.38626694 -225.45037416 165.37411413 C-218.08473289 165.36049513 -210.7191188 165.36213182 -203.35346814 165.36424746 C-190.21552108 165.36743699 -177.07762825 165.35577043 -163.93969727 165.33618164 C-151.18284454 165.31716598 -138.42605534 165.31009717 -125.66918945 165.31567383 C-111.78262471 165.32172637 -97.8960879 165.3215651 -84.00952548 165.310188 C-82.53005421 165.30898067 -81.05058295 165.30777469 -79.57111168 165.30657005 C-78.84314293 165.30596651 -78.11517418 165.30536298 -77.36514578 165.30474115 C-72.22687979 165.30085644 -67.08862419 165.30125771 -61.95035744 165.3031559 C-55.04178091 165.30549474 -48.13328781 165.29697788 -41.22472954 165.2810955 C-38.68256596 165.27683681 -36.14039409 165.27601266 -33.59822845 165.27878571 C-30.14183572 165.28198525 -26.6856915 165.27298225 -23.22932434 165.26069641 C-22.21135027 165.26447573 -21.1933762 165.26825506 -20.14455444 165.27214891 C-19.2240394 165.26631671 -18.30352437 165.26048452 -17.35511494 165.25447559 C-16.15736564 165.25317543 -16.15736564 165.25317543 -14.93541938 165.251849 C-12.76255099 165.16918509 -12.76255099 165.16918509 -11 163 C-10.01 163 -9.02 163 -8 163 C-8 160.36 -8 157.72 -8 155 C-7.67 156.32 -7.34 157.64 -7 159 C-5.35 158.67 -3.7 158.34 -2 158 C-2.0309375 156.7934375 -2.0309375 156.7934375 -2.0625 155.5625 C-2 153 -2 153 -1 152 C-0.89137 150.1907588 -0.85311964 148.37726805 -0.84178162 146.56480408 C-0.8319928 145.38544785 -0.82220398 144.20609161 -0.81211853 142.99099731 C-0.80636307 141.6854892 -0.8006076 140.37998108 -0.79467773 139.03491211 C-0.78510443 137.65546878 -0.77509468 136.27602841 -0.76467896 134.89659119 C-0.73756446 131.14059077 -0.71659046 127.3845777 -0.69667697 123.62853312 C-0.67485764 119.7073743 -0.64744919 115.78625474 -0.62062073 111.86512756 C-0.57063886 104.43491238 -0.52572049 97.00467546 -0.48259836 89.57441765 C-0.43327284 81.11745573 -0.37833739 72.6605332 -0.32291877 64.20360935 C-0.20901442 46.80244262 -0.10219389 29.40123936 0 12 C-1.32 12.33 -2.64 12.66 -4 13 C-3.34 12.34 -2.68 11.68 -2 11 C0.67905902 6.98141147 0.32182663 4.74694284 0 0 Z " fill="#9DBACD" transform="translate(488,200)"/>
<path d="M0 0 C0.91785782 -0.00058411 1.83571564 -0.00116821 2.78138733 -0.00177002 C5.7954883 0.00100218 8.80858295 0.03205336 11.82250977 0.06347656 C13.92000285 0.07094202 16.01750293 0.07663351 18.11500549 0.08062744 C23.62083377 0.09585967 29.12623628 0.13512096 34.63189697 0.17944336 C40.25592287 0.22044797 45.88001792 0.23864955 51.50415039 0.25878906 C62.52842543 0.30161733 73.55238524 0.36983963 84.57641602 0.45410156 C84.57641602 0.78410156 84.57641602 1.11410156 84.57641602 1.45410156 C82.85206581 1.44291542 82.85206581 1.44291542 81.09288025 1.4315033 C70.24904227 1.36703154 59.40602094 1.34991872 48.56201839 1.37894344 C42.98708541 1.39234924 37.41319645 1.38918171 31.83837891 1.34790039 C26.45620293 1.30865926 21.07567232 1.31326415 15.69348335 1.34802437 C13.64222009 1.35361502 11.59085103 1.34351617 9.53974724 1.31733513 C-1.3818983 0.74571526 -1.3818983 0.74571526 -11.24215698 4.42556763 C-15.63847362 9.90553867 -16.61069161 15.26435366 -16.97898865 22.13169861 C-17.02114295 22.88907127 -17.06329726 23.64644394 -17.10672897 24.42676729 C-17.50710655 32.15596382 -17.55765972 39.8745704 -17.53710938 47.61254883 C-17.53682624 49.14213051 -17.53698769 50.67171234 -17.53755188 52.20129395 C-17.53783494 56.2931443 -17.53201889 60.38496441 -17.52497792 64.47680783 C-17.5186614 68.77554747 -17.5181341 73.07428805 -17.51695251 77.37303162 C-17.51386339 85.48627015 -17.50568312 93.59949496 -17.49560302 101.71272749 C-17.48436612 110.96082778 -17.47891247 120.20892879 -17.47390759 129.45703423 C-17.46349807 148.45606441 -17.44594622 167.45508188 -17.42358398 186.45410156 C-18.41358398 185.79410156 -19.40358398 185.13410156 -20.42358398 184.45410156 C-20.80390072 181.54416466 -20.80390072 181.54416466 -20.81126404 177.73764038 C-20.81664958 177.03920505 -20.82203511 176.34076972 -20.82758385 175.62116969 C-20.84194903 173.26891697 -20.83473884 170.91722027 -20.82763672 168.56494141 C-20.83333611 166.88306218 -20.84029869 165.20118683 -20.84843445 163.51931763 C-20.86643595 158.94047716 -20.86518354 154.36182761 -20.85949206 149.78296232 C-20.85640799 145.96116708 -20.86248446 142.13940894 -20.86853081 138.31761897 C-20.88259951 129.29716403 -20.8809974 120.27680373 -20.86962891 111.25634766 C-20.85816565 101.95531445 -20.87218778 92.6545702 -20.89902538 83.35357511 C-20.92120141 75.3687418 -20.92781487 67.38399905 -20.92194897 59.39913714 C-20.91858027 54.63019123 -20.9209877 49.86143021 -20.9382 45.09251022 C-20.95369561 40.60266738 -20.94968462 36.11325069 -20.93089485 31.62342453 C-20.92721513 29.97875041 -20.93029944 28.33404456 -20.94078064 26.68939972 C-21.04114419 9.63308631 -21.04114419 9.63308631 -16.42358398 4.45410156 C-11.53163721 0.05480835 -6.31705213 -0.10640187 0 0 Z " fill="#4B97D5" transform="translate(124.423583984375,99.5458984375)"/>
<path d="M0 0 C12.87 0 25.74 0 39 0 C39 0.66 39 1.32 39 2 C37.79730469 2.58394531 37.79730469 2.58394531 36.5703125 3.1796875 C28.63832021 7.08273133 20.88601062 11.21880133 13.21923828 15.62255859 C9.22281258 17.88877545 5.44788694 19.72615896 1 21 C0 20 0 20 -0.11352539 18.05053711 C-0.10567017 16.8015564 -0.10567017 16.8015564 -0.09765625 15.52734375 C-0.09515869 14.71773193 -0.09266113 13.90812012 -0.09008789 13.07397461 C-0.08098389 12.03893799 -0.07187988 11.00390137 -0.0625 9.9375 C-0.0315625 5.0184375 -0.0315625 5.0184375 0 0 Z " fill="#015EB6" transform="translate(391,240)"/>
<path d="M0 0 C32.01 0 64.02 0 97 0 C95.71352802 2.57294396 94.63135328 2.92409574 92 4 C89.93598938 4.32678223 89.93598938 4.32678223 87.7043457 4.43164062 C86.85784958 4.47301147 86.01135345 4.51438232 85.13920593 4.55700684 C83.76512321 4.6061322 83.76512321 4.6061322 82.36328125 4.65625 C81.39771805 4.69512329 80.43215485 4.73399658 79.43733215 4.77404785 C67.68132719 5.1774255 55.94109213 4.83494011 44.1875 4.5 C40.8505233 4.40807492 37.51354517 4.31845483 34.17634583 4.23498535 C32.12403502 4.18341498 30.07184155 4.12687968 28.01982117 4.06481934 C27.10988907 4.04149536 26.19995697 4.01817139 25.26245117 3.99414062 C24.05959724 3.95963806 24.05959724 3.95963806 22.83244324 3.92443848 C20.9806369 3.79357199 20.9806369 3.79357199 20 5 C18.47480724 4.91062197 16.95318071 4.75462854 15.4375 4.5625 C14.61121094 4.46066406 13.78492188 4.35882813 12.93359375 4.25390625 C12.29550781 4.17011719 11.65742188 4.08632813 11 4 C10.67 5.32 10.34 6.64 10 8 C9.34 8 8.68 8 8 8 C8 6.68 8 5.36 8 4 C6.35 4.33 4.7 4.66 3 5 C2.34 8.63 1.68 12.26 1 16 C0.67 16 0.34 16 0 16 C0 10.72 0 5.44 0 0 Z " fill="#145A83" transform="translate(196,296)"/>
<path d="M0 0 C0.33 0 0.66 0 1 0 C1 7.26 1 14.52 1 22 C1.66 22.33 2.32 22.66 3 23 C3.25563842 26.89456849 3.47484769 30.79036669 3.6875 34.6875 C3.76033203 35.79029297 3.83316406 36.89308594 3.90820312 38.02929688 C3.96298828 39.09599609 4.01777344 40.16269531 4.07421875 41.26171875 C4.13182373 42.24100342 4.18942871 43.22028809 4.2487793 44.22924805 C3.95027658 47.55378907 2.88357008 49.27720144 1 52 C0.0409375 53.546875 0.0409375 53.546875 -0.9375 55.125 C-2.80652032 57.73030105 -4.33162965 59.28461906 -7 61 C-7.66 60.67 -8.32 60.34 -9 60 C-8.34 58.68 -7.68 57.36 -7 56 C-8.34097606 55.99503478 -8.34097606 55.99503478 -9.70904255 55.98996925 C-31.44105521 55.90882146 -53.17299756 55.81675617 -74.90491199 55.71247292 C-85.41421357 55.66230725 -95.92350718 55.61586483 -106.43286133 55.578125 C-115.5906171 55.54522948 -124.74831184 55.50541186 -133.90600032 55.45720994 C-138.75690405 55.43192064 -143.60776717 55.41014658 -148.45871925 55.39665604 C-153.02149329 55.3838577 -157.5841282 55.36182753 -162.14682579 55.33261681 C-163.82422256 55.32352356 -165.50164174 55.31784674 -167.17906189 55.31578636 C-169.46404176 55.3124761 -171.74862421 55.29703275 -174.03352356 55.2784729 C-175.31389401 55.27294214 -176.59426447 55.26741138 -177.91343403 55.26171303 C-181 55 -181 55 -184 53 C-182.02 52.505 -182.02 52.505 -180 52 C-180 52.66 -180 53.32 -180 54 C-158.18178934 53.93949314 -136.36369788 53.86201282 -114.54562092 53.76428509 C-104.41527153 53.71930556 -94.28495746 53.67989586 -84.15454102 53.65356445 C-75.3256203 53.63060185 -66.49681118 53.5972233 -57.66797894 53.55129844 C-52.99249084 53.52734277 -48.31711342 53.50862936 -43.64156532 53.50238609 C-39.24124117 53.49634584 -34.84120028 53.47638443 -30.44098091 53.44572449 C-28.82570613 53.43692725 -27.21039436 53.43322517 -25.59509659 53.43499184 C-23.38947038 53.43664257 -21.18470978 53.41996374 -18.97920227 53.39872742 C-17.74492146 53.39411845 -16.51064066 53.38950949 -15.23895741 53.38476086 C-10.51513616 52.82361068 -7.93052292 50.75740238 -4.3125 47.8125 C-2 46 -2 46 0 46 C0 38.41 0 30.82 0 23 C-0.66 23 -1.32 23 -2 23 C-1.84660156 22.19304687 -1.69320312 21.38609375 -1.53515625 20.5546875 C-0.9111048 16.40952821 -0.65372796 12.3077704 -0.4375 8.125 C-0.37272461 6.949375 -0.37272461 6.949375 -0.30664062 5.75 C-0.20146649 3.83349351 -0.10032075 1.91676667 0 0 Z " fill="#1667B6" transform="translate(299,241)"/>
<path d="M0 0 C2.70990884 2.70990884 2.25588116 4.1259887 2.26742554 7.91921997 C2.27595551 9.18094528 2.28448547 10.44267059 2.29327393 11.74263 C2.29257482 13.14889539 2.29165171 14.55516067 2.29052734 15.96142578 C2.29650916 17.43640993 2.3033139 18.91139094 2.31088257 20.3863678 C2.32859217 24.40113794 2.33324022 28.41582288 2.33451414 32.4306283 C2.33641147 35.78269157 2.34376768 39.13473492 2.35085833 42.48679054 C2.3671612 50.39973256 2.37202582 58.31262906 2.37060547 66.22558594 C2.36940574 74.38145789 2.39046924 82.53706447 2.4220928 90.69286931 C2.44827998 97.696811 2.45897164 104.70066622 2.45769465 111.70465648 C2.45718543 115.88676762 2.46284547 120.06864341 2.48405075 124.25070572 C2.50347262 128.18898698 2.50353095 132.12680953 2.48901749 136.06510735 C2.48693266 137.50660691 2.49161086 138.94813544 2.5037384 140.38958549 C2.57277368 149.16737319 2.53947257 156.30921168 -3.875 162.9375 C-6.55010119 164.27505059 -9.04281317 164.66395604 -12 165 C-11.505 164.01 -11.505 164.01 -11 163 C-10.01 163 -9.02 163 -8 163 C-8 160.36 -8 157.72 -8 155 C-7.67 156.32 -7.34 157.64 -7 159 C-5.35 158.67 -3.7 158.34 -2 158 C-2.020625 157.195625 -2.04125 156.39125 -2.0625 155.5625 C-2 153 -2 153 -1 152 C-0.89137 150.1907588 -0.85311964 148.37726805 -0.84178162 146.56480408 C-0.8319928 145.38544785 -0.82220398 144.20609161 -0.81211853 142.99099731 C-0.80636307 141.6854892 -0.8006076 140.37998108 -0.79467773 139.03491211 C-0.78510443 137.65546878 -0.77509468 136.27602841 -0.76467896 134.89659119 C-0.73756446 131.14059077 -0.71659046 127.3845777 -0.69667697 123.62853312 C-0.67485764 119.7073743 -0.64744919 115.78625474 -0.62062073 111.86512756 C-0.57063886 104.43491238 -0.52572049 97.00467546 -0.48259836 89.57441765 C-0.43327284 81.11745573 -0.37833739 72.6605332 -0.32291877 64.20360935 C-0.20901442 46.80244262 -0.10219389 29.40123936 0 12 C-1.32 12.33 -2.64 12.66 -4 13 C-3.34 12.34 -2.68 11.68 -2 11 C0.67905902 6.98141147 0.32182663 4.74694284 0 0 Z " fill="#67AFDB" transform="translate(488,200)"/>
<path d="M0 0 C0.33 0 0.66 0 1 0 C1 49.5 1 99 1 150 C0.67 150 0.34 150 0 150 C0 138.12 0 126.24 0 114 C-0.66 114 -1.32 114 -2 114 C-2.33 87.27 -2.66 60.54 -3 33 C-5.97 32.67 -8.94 32.34 -12 32 C-12 31.67 -12 31.34 -12 31 C-8.04 31 -4.08 31 0 31 C0 20.77 0 10.54 0 0 Z " fill="#87E2F7" transform="translate(475,42)"/>
<path d="M0 0 C5.72669747 0.95444958 9.21056563 1.62201587 13 6 C14.20582886 9.09589549 14.50761347 11.71544226 14 15 C11.08558664 19.0625156 7.58483133 21.10626532 3 23 C2.01 23 1.02 23 0 23 C0 15.41 0 7.82 0 0 Z " fill="#0D3361" transform="translate(475,193)"/>
<path d="M0 0 C2.31 0.33 4.62 0.66 7 1 C6.2884375 1.7734375 6.2884375 1.7734375 5.5625 2.5625 C2.38356912 7.52163218 2.89043537 13.652722 2.97265625 19.375 C2.98532045 20.78775781 2.99768005 22.20051837 3.00976562 23.61328125 C3.03431491 25.79354944 3.06209103 27.97366443 3.09594727 30.15380859 C3.24311357 40.30712483 2.62792577 49.96401568 1 60 C0.67 60 0.34 60 0 60 C0 40.2 0 20.4 0 0 Z " fill="#005EA1" transform="translate(300,156)"/>
<path d="M0 0 C0.33 0 0.66 0 1 0 C1.06058594 1.07378906 1.12117187 2.14757812 1.18359375 3.25390625 C1.26807651 4.69011315 1.35272054 6.12631058 1.4375 7.5625 C1.47681641 8.26697266 1.51613281 8.97144531 1.55664062 9.69726562 C1.59853516 10.39658203 1.64042969 11.09589844 1.68359375 11.81640625 C1.72025146 12.45006104 1.75690918 13.08371582 1.79467773 13.73657227 C1.9620944 15.58213692 2.22527349 17.41880722 2.51586914 19.24902344 C3.03328493 23.25788691 3.10916341 27.16790251 3.0625 31.19921875 C3.05871338 31.956689 3.05492676 32.71415924 3.05102539 33.49458313 C3.03890604 35.89228274 3.02027197 38.28985634 3 40.6875 C2.97336988 43.85806967 2.95341043 47.02857921 2.9375 50.19921875 C2.92920166 50.9221965 2.92090332 51.64517426 2.91235352 52.39006042 C2.89601708 55.74234175 2.94912571 58.79617804 4 62 C5.98 62 7.96 62 10 62 C10.103125 62.598125 10.20625 63.19625 10.3125 63.8125 C11.08876455 66.28243264 12.07088921 67.32251235 14 69 C10.14146168 68.73079965 8.31904314 68.26710588 5.3125 65.75 C1.47865087 61.19082806 -0.38005113 58.14782311 -0.34057617 52.1081543 C-0.34034958 50.94732834 -0.34012299 49.78650238 -0.33988953 48.59049988 C-0.32440567 47.34762711 -0.30892181 46.10475433 -0.29296875 44.82421875 C-0.28872391 43.54392288 -0.28447906 42.26362701 -0.28010559 40.9445343 C-0.26869137 37.55286867 -0.23925455 34.16159293 -0.20599365 30.77008057 C-0.17521835 27.30445631 -0.16158439 23.83876861 -0.14648438 20.37304688 C-0.11342192 13.58186271 -0.06322669 6.7909667 0 0 Z " fill="#6AAED4" transform="translate(195,296)"/>
<path d="M0 0 C0.33 0 0.66 0 1 0 C1.17428129 2.16606746 1.33881215 4.33291885 1.5 6.5 C1.5928125 7.7065625 1.685625 8.913125 1.78125 10.15625 C2.09472465 17.09747442 2 24.05170072 2 31 C-25.72 31 -53.44 31 -82 31 C-77.8331518 28.9165759 -75.07427874 28.73220223 -70.58520508 28.78881836 C-69.47483131 28.79078972 -69.47483131 28.79078972 -68.34202576 28.7928009 C-65.90106308 28.79927996 -63.46041602 28.81970207 -61.01953125 28.83984375 C-59.32370849 28.84611449 -57.62788163 28.85135447 -55.93205261 28.85560608 C-51.4722724 28.8689007 -47.01262947 28.8933362 -42.55291748 28.92095947 C-35.40363961 28.96411086 -28.25432305 28.99373283 -21.10495567 29.0170002 C-18.60261933 29.02725934 -16.1003922 29.04430231 -13.59809875 29.06199646 C-12.07427061 29.06882052 -10.55044149 29.07542933 -9.02661133 29.08178711 C-8.32583466 29.08852448 -7.62505798 29.09526184 -6.90304565 29.10220337 C-5.26834673 29.10610474 -3.63365384 29.05857403 -2 29 C-0.16780354 27.16780354 -0.76098672 24.24286259 -0.68359375 21.77734375 C-0.64169922 20.51728516 -0.59980469 19.25722656 -0.55664062 17.95898438 C-0.51682404 16.61849264 -0.47711186 15.2779978 -0.4375 13.9375 C-0.39431958 12.59308477 -0.35070544 11.2486834 -0.30664062 9.90429688 C-0.20014642 6.6029766 -0.0981354 3.30157764 0 0 Z " fill="#075F9F" transform="translate(473,41)"/>
<path d="M0 0 C0.91785782 -0.00058411 1.83571564 -0.00116821 2.78138733 -0.00177002 C5.7954883 0.00100218 8.80858295 0.03205336 11.82250977 0.06347656 C13.92000285 0.07094202 16.01750293 0.07663351 18.11500549 0.08062744 C23.62083377 0.09585967 29.12623628 0.13512096 34.63189697 0.17944336 C40.25592287 0.22044797 45.88001792 0.23864955 51.50415039 0.25878906 C62.52842543 0.30161733 73.55238524 0.36983963 84.57641602 0.45410156 C84.57641602 0.78410156 84.57641602 1.11410156 84.57641602 1.45410156 C83.41796677 1.46440903 82.25951752 1.47471649 81.06596375 1.4853363 C70.16218141 1.58298506 59.25845724 1.68571105 48.35476971 1.79344082 C42.74874031 1.848665 37.14270569 1.90208427 31.53662109 1.95141602 C26.12902534 1.99906691 20.72149371 2.05141011 15.31397438 2.10704231 C13.24827478 2.12746255 11.1825576 2.14617618 9.11682701 2.16317558 C6.22918706 2.18722681 3.34166852 2.21728055 0.45410156 2.2487793 C-0.40473129 2.25453476 -1.26356415 2.26029022 -2.14842224 2.26622009 C-5.48271126 2.30771142 -8.23909621 2.39260564 -11.42358398 3.45410156 C-11.42358398 4.11410156 -11.42358398 4.77410156 -11.42358398 5.45410156 C-13.23608398 7.57910156 -13.23608398 7.57910156 -15.42358398 9.45410156 C-16.41358398 9.45410156 -17.40358398 9.45410156 -18.42358398 9.45410156 C-17.50034348 5.76113953 -16.56756256 4.55694414 -13.42271423 2.31060791 C-8.98673029 -0.08473958 -4.95270204 -0.08342131 0 0 Z " fill="#66AFE7" transform="translate(124.423583984375,99.5458984375)"/>
<path d="M0 0 C0.66 0 1.32 0 2 0 C3.05994967 10.41022 3.0733758 20.74479731 2.96289062 31.19873047 C2.95451172 32.2920166 2.94613281 33.38530273 2.9375 34.51171875 C2.92589844 35.49615967 2.91429687 36.48060059 2.90234375 37.49487305 C2.88839795 40.13025008 2.88839795 40.13025008 4 43 C5.98 43.33 7.96 43.66 10 44 C10 44.33 10 44.66 10 45 C2.25 45.125 2.25 45.125 0 44 C0 29.48 0 14.96 0 0 Z " fill="#187DB6" transform="translate(300,112)"/>
<path d="M0 0 C0.66 0 1.32 0 2 0 C2 5.61 2 11.22 2 17 C1.34 17 0.68 17 0 17 C0.06058594 17.9286084 0.12117188 18.8572168 0.18359375 19.81396484 C0.4077413 23.25419867 0.63131318 26.69446889 0.85449219 30.13476562 C0.9512658 31.62468954 1.0482699 33.1145985 1.14550781 34.60449219 C1.28510951 36.74410184 1.42388644 38.88376363 1.5625 41.0234375 C1.64628906 42.31169434 1.73007812 43.59995117 1.81640625 44.92724609 C1.91732296 46.61625899 2 48.30797495 2 50 C1.01 50 0.02 50 -1 50 C-1.02532254 43.36141777 -1.04285528 36.72284797 -1.05493164 30.08422852 C-1.05996526 27.8251092 -1.06679262 25.56599314 -1.07543945 23.30688477 C-1.08754745 20.06265457 -1.09323799 16.81846739 -1.09765625 13.57421875 C-1.10281754 12.56163498 -1.10797882 11.54905121 -1.11329651 10.50578308 C-1.11337204 9.56503433 -1.11344757 8.62428558 -1.11352539 7.6550293 C-1.115746 6.82674118 -1.11796661 5.99845306 -1.12025452 5.14506531 C-1 3 -1 3 0 0 Z " fill="#004E92" transform="translate(301,213)"/>
<path d="M0 0 C0.66 0.33 1.32 0.66 2 1 C2.25563842 4.89456849 2.47484769 8.79036669 2.6875 12.6875 C2.76033203 13.79029297 2.83316406 14.89308594 2.90820312 16.02929688 C2.96298828 17.09599609 3.01777344 18.16269531 3.07421875 19.26171875 C3.13182373 20.24100342 3.18942871 21.22028809 3.2487793 22.22924805 C2.95027658 25.55378907 1.88357008 27.27720144 0 30 C-0.639375 31.03125 -1.27875 32.0625 -1.9375 33.125 C-3.80652032 35.73030105 -5.33162965 37.28461906 -8 39 C-8.66 38.67 -9.32 38.34 -10 38 C-9.00769103 36.32874278 -8.00509214 34.66360078 -7 33 C-6.59007812 32.30261719 -6.18015625 31.60523438 -5.7578125 30.88671875 C-5.32210938 30.16097656 -4.88640625 29.43523437 -4.4375 28.6875 C-4.02371094 27.99011719 -3.60992187 27.29273438 -3.18359375 26.57421875 C-2.59771484 25.79498047 -2.59771484 25.79498047 -2 25 C-1.34 25 -0.68 25 0 25 C0 16.75 0 8.5 0 0 Z " fill="#1A7AB1" transform="translate(300,263)"/>
<path d="M0 0 C0 16.83 0 33.66 0 51 C-0.33 51 -0.66 51 -1 51 C-1.86032949 40.32978048 -2.12737806 29.76248343 -2.0625 19.0625 C-2.057465 17.58919426 -2.0529057 16.11588682 -2.04882812 14.64257812 C-2.03800377 11.0950156 -2.02085455 7.54751948 -2 4 C-3.41152344 4.50660156 -3.41152344 4.50660156 -4.8515625 5.0234375 C-7.938476 5.98091687 -9.06911688 6.12726274 -12 5 C-8.08072092 1.52863853 -5.248603 0 0 0 Z " fill="#31A2E3" transform="translate(488,212)"/>
<path d="M0 0 C-6.51862555 6.2945478 -11.92062879 9.10142779 -21.0625 9.375 C-26.10443512 9.25997486 -29.59191358 8.40441077 -34 6 C-31.00519083 5.1276588 -28.36424089 4.89170234 -25.25 4.9375 C-24.45078125 4.94652344 -23.6515625 4.95554688 -22.828125 4.96484375 C-22.22484375 4.97644531 -21.6215625 4.98804688 -21 5 C-21.33 5.99 -21.66 6.98 -22 8 C-21.40832031 7.7834375 -20.81664062 7.566875 -20.20703125 7.34375 C-12.35852373 4.57820738 -12.35852373 4.57820738 -8 5 C-8 4.34 -8 3.68 -8 3 C-8.66 2.67 -9.32 2.34 -10 2 C-4.10714286 -1.34821429 -4.10714286 -1.34821429 0 0 Z " fill="#1D72C2" transform="translate(223,225)"/>
<path d="M0 0 C0.33 0.66 0.66 1.32 1 2 C7.6 2 14.2 2 21 2 C20.67 2.66 20.34 3.32 20 4 C17.03 3.67 14.06 3.34 11 3 C10.67 4.32 10.34 5.64 10 7 C9.34 7 8.68 7 8 7 C8 5.68 8 4.36 8 3 C6.35 3.33 4.7 3.66 3 4 C2.34 7.63 1.68 11.26 1 15 C0.67 15 0.34 15 0 15 C0 10.05 0 5.1 0 0 Z " fill="#20688C" transform="translate(196,297)"/>
<path d="M0 0 C0.66 0 1.32 0 2 0 C2.96288008 10.6948466 3.10947633 21.27132003 3 32 C2.34 32 1.68 32 1 32 C0.67 21.44 0.34 10.88 0 0 Z " fill="#2389B8" transform="translate(300,112)"/>
<path d="M0 0 C0.33 0 0.66 0 1 0 C1 15.51 1 31.02 1 47 C0.67 47 0.34 47 0 47 C0 39.08 0 31.16 0 23 C-0.66 23 -1.32 23 -2 23 C-1.84660156 22.19304687 -1.69320313 21.38609375 -1.53515625 20.5546875 C-0.9111048 16.40952821 -0.65372796 12.3077704 -0.4375 8.125 C-0.39431641 7.34125 -0.35113281 6.5575 -0.30664062 5.75 C-0.20146649 3.83349351 -0.10032075 1.91676667 0 0 Z " fill="#0F67C1" transform="translate(299,241)"/>
<path d="M0 0 C0.33 0 0.66 0 1 0 C1 9.57 1 19.14 1 29 C1.99 28.67 2.98 28.34 4 28 C4.33 28.66 4.66 29.32 5 30 C-1.34241995 31.15316726 -7.56688704 31.09507063 -14 31 C-14 30.34 -14 29.68 -14 29 C-7.565 28.505 -7.565 28.505 -1 28 C-0.67 18.76 -0.34 9.52 0 0 Z " fill="#1781CA" transform="translate(210,72)"/>
<path d="M0 0 C6.49287046 1.08214508 8.08315381 2.16485997 13 6 C12.01 6.495 12.01 6.495 11 7 C7.9533855 5.98446183 5.68856164 4.79237442 3 3 C3 2.34 3 1.68 3 1 C2.34 1 1.68 1 1 1 C1 7.6 1 14.2 1 21 C2.32 21.33 3.64 21.66 5 22 C3.35 22.33 1.7 22.66 0 23 C0 15.41 0 7.82 0 0 Z " fill="#033F75" transform="translate(475,193)"/>
<path d="M0 0 C0.33 0 0.66 0 1 0 C3.35027369 10.14029376 2.71883722 21.25937591 -1 31 C-1.66 31.33 -2.32 31.66 -3 32 C-2.86287598 31.41299316 -2.72575195 30.82598633 -2.58447266 30.22119141 C-1.13367403 23.58544369 -0.59221437 17.15389857 -0.375 10.375 C-0.33632812 9.37082031 -0.29765625 8.36664063 -0.2578125 7.33203125 C-0.16471378 4.88818995 -0.07889087 2.44433404 0 0 Z " fill="#2878BF" transform="translate(229,186)"/>
<path d="M0 0 C3.7364797 0.93411993 6.60899585 2.22742965 10 4 C9.67 4.66 9.34 5.32 9 6 C7.35 6 5.7 6 4 6 C3.95101563 6.63808594 3.90203125 7.27617187 3.8515625 7.93359375 C3.77679688 8.75988281 3.70203125 9.58617187 3.625 10.4375 C3.52058594 11.67306641 3.52058594 11.67306641 3.4140625 12.93359375 C3.27742188 13.61550781 3.14078125 14.29742187 3 15 C2.01 15.495 2.01 15.495 1 16 C0.67 10.72 0.34 5.44 0 0 Z " fill="#278ABF" transform="translate(301,264)"/>
<path d="M0 0 C0.33 0 0.66 0 1 0 C1.32589516 4.67116396 0.84137634 7.24532412 -2 11 C-5.08168075 13.9754159 -7.79278701 14.52190761 -12 15 C-11.67 14.34 -11.34 13.68 -11 13 C-10.01 13 -9.02 13 -8 13 C-8 10.36 -8 7.72 -8 5 C-7.67 6.32 -7.34 7.64 -7 9 C-5.35 8.67 -3.7 8.34 -2 8 C-2.061875 6.8553125 -2.061875 6.8553125 -2.125 5.6875 C-2 3 -2 3 0 0 Z " fill="#2F84C8" transform="translate(488,350)"/>
<path d="M0 0 C2.60366013 1.01964832 5.16263263 2.07555004 7.69921875 3.25390625 C17.12674866 7.3823017 25.81601864 7.87427184 36 8 C36 8.33 36 8.66 36 9 C32.97892098 9.0543251 29.95883472 9.09382927 26.9375 9.125 C26.08994141 9.14175781 25.24238281 9.15851563 24.36914062 9.17578125 C17.00658093 9.23263499 11.13253411 7.79501776 4.5625 4.375 C3.69753906 3.92898437 2.83257812 3.48296875 1.94140625 3.0234375 C1.30074219 2.68570313 0.66007813 2.34796875 0 2 C0 1.34 0 0.68 0 0 Z " fill="#3C7FBF" transform="translate(172,243)"/>
<path d="M0 0 C0.33 0.66 0.66 1.32 1 2 C0.01 2.99 -0.98 3.98 -2 5 C-1.01 5.33 -0.02 5.66 1 6 C-1.64738916 7.4606285 -2.89448334 8 -6 8 C-6.26554688 8.54269531 -6.53109375 9.08539063 -6.8046875 9.64453125 C-7.33449219 10.71767578 -7.33449219 10.71767578 -7.875 11.8125 C-8.22304687 12.52019531 -8.57109375 13.22789062 -8.9296875 13.95703125 C-10 16 -10 16 -12 19 C-13 16 -13 16 -12.28515625 13.984375 C-9.06100981 8.09232464 -5.30672603 4.095265 0 0 Z " fill="#267EC6" transform="translate(189,166)"/>
<path d="M0 0 C1.85625 -0.00773438 1.85625 -0.00773438 3.75 -0.015625 C7 0.25 7 0.25 10 2.25 C8.25 3.8125 8.25 3.8125 6 5.25 C3.75 4.9375 3.75 4.9375 2 4.25 C2 3.92 2 3.59 2 3.25 C-1.96 2.92 -5.92 2.59 -10 2.25 C-6.32077133 -0.20281911 -4.37740649 -0.01823919 0 0 Z " fill="#2B7FC6" transform="translate(202,162.75)"/>
<path d="M0 0 C0.33 0.99 0.66 1.98 1 3 C2.93618425 3.67156616 2.93618425 3.67156616 5 4 C5.66 4.33 6.32 4.66 7 5 C7 5.99 7 6.98 7 8 C4.64561267 9.42944945 3.51967567 10.08661261 0.75 9.625 C0.1725 9.41875 -0.405 9.2125 -1 9 C-0.34 8.67 0.32 8.34 1 8 C0.67 6.35 0.34 4.7 0 3 C-0.99 2.67 -1.98 2.34 -3 2 C-2.01 1.34 -1.02 0.68 0 0 Z " fill="#1787DC" transform="translate(473,355)"/>
<path d="M0 0 C0.99 0.495 0.99 0.495 2 1 C1.01 1.495 1.01 1.495 0 2 C0 1.34 0 0.68 0 0 Z M-2 2 C-1.34 2.33 -0.68 2.66 0 3 C-1.21236328 4.17949219 -1.21236328 4.17949219 -2.44921875 5.3828125 C-5.90590165 9.53083198 -5.7771615 13.66060835 -5.8125 18.875 C-5.83763672 19.75414063 -5.86277344 20.63328125 -5.88867188 21.5390625 C-5.94718195 23.6922332 -5.97654236 25.84616221 -6 28 C-6.33 28 -6.66 28 -7 28 C-7 20.74 -7 13.48 -7 6 C-6.01 6 -5.02 6 -4 6 C-3.34 4.68 -2.68 3.36 -2 2 Z " fill="#1E83D0" transform="translate(113,103)"/>
<path d="M0 0 C0 0.33 0 0.66 0 1 C-0.68707031 1.06058594 -1.37414062 1.12117188 -2.08203125 1.18359375 C-3.43361328 1.30927734 -3.43361328 1.30927734 -4.8125 1.4375 C-6.15248047 1.55931641 -6.15248047 1.55931641 -7.51953125 1.68359375 C-10.12743559 1.93489767 -10.12743559 1.93489767 -13 3 C-13 3.66 -13 4.32 -13 5 C-14.8125 7.125 -14.8125 7.125 -17 9 C-17.99 9 -18.98 9 -20 9 C-19.08651532 5.34606128 -18.06236171 4.04909326 -15.0625 1.6875 C-10.29220501 -0.82903274 -5.24525809 -0.34146346 0 0 Z " fill="#7DB7E2" transform="translate(126,100)"/>
<path d="M0 0 C2.31 0.33 4.62 0.66 7 1 C7.33 1.99 7.66 2.98 8 4 C8.66 4.33 9.32 4.66 10 5 C10 5.66 10 6.32 10 7 C10.66 7 11.32 7 12 7 C12.33 9.31 12.66 11.62 13 14 C10.99640337 11.49550421 8.99700404 8.9960376 7.0625 6.4375 C4.91935419 3.90469131 2.64862111 1.98646583 0 0 Z " fill="#D9F2FC" transform="translate(215,165)"/>
<path d="M0 0 C4.29 0 8.58 0 13 0 C12.67 0.99 12.34 1.98 12 3 C14.31 3 16.62 3 19 3 C19 3.33 19 3.66 19 4 C11.90370975 4.31461385 6.31715405 4.44572039 0 1 C0 0.67 0 0.34 0 0 Z " fill="#3C89CD" transform="translate(189,230)"/>
<path d="M0 0 C1.29474635 3.88423904 0.63372371 5.28699157 -1 9 C-3.625 11.875 -3.625 11.875 -6 14 C-6.66 13.67 -7.32 13.34 -8 13 C-5.4014643 8.62351881 -2.70604116 4.31041339 0 0 Z " fill="#1D76A6" transform="translate(298,288)"/>
<path d="M0 0 C0.33 0 0.66 0 1 0 C1.04898438 1.0621875 1.09796875 2.124375 1.1484375 3.21875 C1.68360215 13.74501287 1.68360215 13.74501287 4 24 C2.02441406 22.80541992 2.02441406 22.80541992 0 21 C-0.45410156 18.73168945 -0.45410156 18.73168945 -0.390625 16.11328125 C-0.37773437 15.17548828 -0.36484375 14.23769531 -0.3515625 13.27148438 C-0.31804687 12.29501953 -0.28453125 11.31855469 -0.25 10.3125 C-0.23195312 9.32443359 -0.21390625 8.33636719 -0.1953125 7.31835938 C-0.14815447 4.87793158 -0.08236042 2.43945231 0 0 Z " fill="#CEEBFC" transform="translate(173,192)"/>
<path d="M0 0 C1.32 0.66 2.64 1.32 4 2 C3.3503125 2.61875 3.3503125 2.61875 2.6875 3.25 C0.94161728 5.06054505 -0.52619271 6.96474232 -2 9 C-3.32 8.34 -4.64 7.68 -6 7 C-4.02 4.69 -2.04 2.38 0 0 Z " fill="#1F74C7" transform="translate(240,234)"/>
<path d="M0 0 C-0.33 1.32 -0.66 2.64 -1 4 C-1.66 4 -2.32 4 -3 4 C-2.67 5.65 -2.34 7.3 -2 9 C-3.32 9.33 -4.64 9.66 -6 10 C-6.8125 7.8125 -6.8125 7.8125 -7 5 C-2.88888889 0 -2.88888889 0 0 0 Z " fill="#478DBD" transform="translate(218,32)"/>
<path d="M0 0 C0.66 0 1.32 0 2 0 C2.33 4.62 2.66 9.24 3 14 C2.34 14 1.68 14 1 14 C0.06380187 10.84493858 -0.1057123 8.03413498 -0.0625 4.75 C-0.05347656 3.85796875 -0.04445313 2.9659375 -0.03515625 2.046875 C-0.02355469 1.37140625 -0.01195312 0.6959375 0 0 Z " fill="#2592C9" transform="translate(300,112)"/>
<path d="M0 0 C0.66 0.33 1.32 0.66 2 1 C1.20928784 2.75043149 0.41739082 4.50032778 -0.375 6.25 C-0.81585938 7.22453125 -1.25671875 8.1990625 -1.7109375 9.203125 C-2.76638138 11.49311839 -3.85543935 13.75366601 -5 16 C-4.70887831 9.58076669 -3.54784971 5.37899794 0 0 Z " fill="#2A7FC4" transform="translate(159,166)"/>
<path d="M0 0 C3.77545388 1.09068668 6.47043472 1.9083091 9 5 C6.69 5.33 4.38 5.66 2 6 C1.33333333 4 0.66666667 2 0 0 Z " fill="#2CA1E2" transform="translate(320,274)"/>
<path d="M0 0 C1.22589844 0.01353516 1.22589844 0.01353516 2.4765625 0.02734375 C3.41628906 0.04474609 3.41628906 0.04474609 4.375 0.0625 C0.625 2.0625 0.625 2.0625 -1.625 2.0625 C-1.955 3.0525 -2.285 4.0425 -2.625 5.0625 C-3.945 4.7325 -5.265 4.4025 -6.625 4.0625 C-6.625 3.0725 -6.625 2.0825 -6.625 1.0625 C-4.21954362 -0.14022819 -2.67503047 -0.03821472 0 0 Z " fill="#0D6FAD" transform="translate(224.625,30.9375)"/>
<path d="M0 0 C3.93673644 1.31224548 6.22719294 2.91910327 9 6 C8.67 6.66 8.34 7.32 8 8 C2.25 5.25 2.25 5.25 0 3 C0 2.01 0 1.02 0 0 Z " fill="#689CC5" transform="translate(465,31)"/>
<path d="M0 0 C4.10958767 1.45044271 7.43258745 3.51110752 11 6 C9 7 9 7 6.625 6.3125 C3.79851052 4.89925526 2.06644393 3.37258377 0 1 C0 0.67 0 0.34 0 0 Z " fill="#6C7F99" transform="translate(477,193)"/>
<path d="M0 0 C0.66 1.32 1.32 2.64 2 4 C0.35 5.65 -1.3 7.3 -3 9 C-3.33 7.02 -3.66 5.04 -4 3 C-2.68 2.01 -1.36 1.02 0 0 Z " fill="#2181CF" transform="translate(164,157)"/>
<path d="M0 0 C0.33 0 0.66 0 1 0 C1.32613618 4.67461851 0.70582788 7.16674383 -2 11 C-2.66 10.67 -3.32 10.34 -4 10 C-3.52219697 8.70782829 -3.04270894 7.41627954 -2.5625 6.125 C-2.29566406 5.40570313 -2.02882813 4.68640625 -1.75390625 3.9453125 C-1 2 -1 2 0 0 Z " fill="#5C9ACF" transform="translate(488,350)"/>
<path d="M0 0 C1 2 2 4 3 6 C0.03 5.67 -2.94 5.34 -6 5 C-5.195625 4.360625 -4.39125 3.72125 -3.5625 3.0625 C-1.7249496 1.59396498 -1.7249496 1.59396498 0 0 Z " fill="#2274C9" transform="translate(233,241)"/>
<path d="M0 0 C4.67692308 1.47692308 4.67692308 1.47692308 6.3125 4.125 C6.539375 4.74375 6.76625 5.3625 7 6 C4.37886292 6 2.49064888 5.68707555 0 5 C0 3.35 0 1.7 0 0 Z " fill="#0681D3" transform="translate(211,96)"/>
<path d="M0 0 C1.65 0 3.3 0 5 0 C4.2884375 0.7734375 4.2884375 0.7734375 3.5625 1.5625 C1.57190593 4.66782675 1.34939182 7.36632504 1 11 C0.67 11 0.34 11 0 11 C0 7.37 0 3.74 0 0 Z " fill="#0162A9" transform="translate(302,157)"/>
<path d="M0 0 C0 0.66 0 1.32 0 2 C-4.49885947 2.86516528 -7.01647791 3.30903272 -11 1 C-9.5437328 0.63743142 -8.08488815 0.28520207 -6.625 -0.0625 C-5.40683594 -0.35833984 -5.40683594 -0.35833984 -4.1640625 -0.66015625 C-2 -1 -2 -1 0 0 Z " fill="#1A7FCD" transform="translate(353,284)"/>
<path d="M0 0 C4.03520597 1.58962659 8.01811282 3.28232318 12 5 C11.34 5.66 10.68 6.32 10 7 C6.7 5.35 3.4 3.7 0 2 C0 1.34 0 0.68 0 0 Z " fill="#2C77BD" transform="translate(172,243)"/>
<path d="M0 0 C0.66 0.99 1.32 1.98 2 3 C-0.97 5.475 -0.97 5.475 -4 8 C-4.66 7.67 -5.32 7.34 -6 7 C-4.02 4.69 -2.04 2.38 0 0 Z " fill="#D0EBFB" transform="translate(225,221)"/>
<path d="M0 0 C1.65 0.33 3.3 0.66 5 1 C3.68 2.32 2.36 3.64 1 5 C0.34 4.67 -0.32 4.34 -1 4 C-0.67 2.68 -0.34 1.36 0 0 Z " fill="#2381D4" transform="translate(167,153)"/>
<path d="M0 0 C2.97 0.495 2.97 0.495 6 1 C6 1.99 6 2.98 6 4 C4.02 4 2.04 4 0 4 C0 2.68 0 1.36 0 0 Z " fill="#0A61A7" transform="translate(466,36)"/>
<path d="M0 0 C1.65 0 3.3 0 5 0 C5 0.66 5 1.32 5 2 C1.53846154 5 1.53846154 5 -1 5 C-0.67 3.35 -0.34 1.7 0 0 Z " fill="#279EE9" transform="translate(203,352)"/>
<path d="M0 0 C0.66 0.33 1.32 0.66 2 1 C1.67 1.99 1.34 2.98 1 4 C-0.98 4.33 -2.96 4.66 -5 5 C-3.35 3.35 -1.7 1.7 0 0 Z " fill="#389CD8" transform="translate(481,213)"/>
<path d="M0 0 C0.99 0.495 0.99 0.495 2 1 C1.01 1.495 1.01 1.495 0 2 C0 1.34 0 0.68 0 0 Z M-2 2 C-1.34 2.33 -0.68 2.66 0 3 C-1.65 4.98 -3.3 6.96 -5 9 C-5 5.48283697 -4.17554415 4.62878252 -2 2 Z " fill="#1885D9" transform="translate(113,103)"/>
</svg>
