<?xml version="1.0" standalone="no"?>
<!DOCTYPE svg PUBLIC "-//W3C//DTD SVG 20010904//EN"
 "http://www.w3.org/TR/2001/REC-SVG-20010904/DTD/svg10.dtd">
<svg version="1.0" xmlns="http://www.w3.org/2000/svg"
 width="512.000000pt" height="512.000000pt" viewBox="0 0 512.000000 512.000000"
 preserveAspectRatio="xMidYMid meet">

<g transform="translate(0.000000,512.000000) scale(0.100000,-0.100000)"
fill="#000000" stroke="none">
<path d="M695 5110 c-179 -24 -342 -136 -420 -289 -59 -117 -55 11 -55 -1961
0 -1986 -4 -1859 61 -1980 58 -109 179 -209 308 -253 l66 -22 1573 -3 c1502
-2 1573 -2 1568 15 -103 330 -137 445 -134 449 2 2 282 -235 621 -526 l617
-530 0 2317 c0 2523 3 2364 -55 2477 -76 147 -190 240 -360 294 -45 15 -229
17 -1890 18 -1012 1 -1867 -2 -1900 -6z m1465 -1215 c16 -19 18 -18 -65 -40
-101 -26 -246 -81 -350 -132 -93 -47 -229 -132 -222 -139 2 -3 35 9 72 26 156
70 382 133 595 167 163 25 540 25 695 0 218 -36 432 -97 619 -177 105 -46 90
-28 -51 56 -100 60 -270 135 -400 178 -46 15 -83 31 -83 35 0 4 9 16 20 26 19
17 25 17 135 1 192 -28 386 -102 558 -213 l69 -44 68 -142 c193 -402 320 -904
320 -1263 l0 -101 -57 -55 c-124 -118 -261 -200 -418 -251 -96 -32 -236 -57
-314 -57 -53 0 -58 2 -86 37 -102 125 -135 168 -135 174 0 3 19 11 43 18 71
21 206 88 270 135 66 47 163 142 117 114 -213 -129 -476 -225 -710 -258 -186
-27 -478 -8 -700 45 -181 44 -527 163 -589 203 l-26 17 20 -25 c67 -85 208
-178 360 -236 33 -12 59 -27 58 -33 -2 -6 -40 -56 -85 -111 -93 -112 -82 -107
-215 -89 -256 35 -462 134 -613 296 l-73 78 7 125 c24 430 137 864 331 1265
52 108 55 112 123 157 99 66 218 124 336 163 173 58 350 81 376 50z"/>
<path d="M1971 2943 c-63 -22 -134 -96 -156 -162 -22 -66 -17 -169 10 -226 25
-50 79 -105 130 -130 57 -28 175 -27 230 2 51 27 96 75 126 133 18 35 23 61
23 120 0 88 -16 130 -71 190 -74 83 -186 110 -292 73z"/>
<path d="M2945 2937 c-95 -45 -165 -154 -165 -257 0 -97 67 -208 152 -251 176
-90 388 45 388 246 0 162 -100 274 -254 282 -60 3 -79 0 -121 -20z"/>
</g>
</svg>
