<?xml version="1.0" standalone="no"?>
<!DOCTYPE svg PUBLIC "-//W3C//DTD SVG 20010904//EN"
 "http://www.w3.org/TR/2001/REC-SVG-20010904/DTD/svg10.dtd">
<svg version="1.0" xmlns="http://www.w3.org/2000/svg"
 width="512.000000pt" height="512.000000pt" viewBox="0 0 512.000000 512.000000"
 preserveAspectRatio="xMidYMid meet">

<g transform="translate(0.000000,512.000000) scale(0.100000,-0.100000)"
fill="#000000" stroke="none">
<path d="M1943 4839 c-50 -8 -144 -40 -172 -58 -14 -9 -18 -3 607 -1089 l180
-313 41 68 c22 37 204 351 405 698 358 617 365 630 343 642 -12 7 -51 21 -87
32 -60 18 -109 20 -665 24 -330 3 -623 1 -652 -4z"/>
<path d="M6 1742 c-9 -15 11 -133 31 -185 18 -47 572 -1015 609 -1063 78 -105
198 -180 326 -204 28 -6 697 -10 1606 -10 1722 -1 1597 -5 1726 63 119 63 145
99 466 653 292 504 330 580 344 687 l6 47 -508 2 c-279 2 -786 3 -1127 3 -341
0 -1262 4 -2046 9 -1032 6 -1428 6 -1433 -2z"/>
</g>
</svg>
