<?xml version="1.0" encoding="UTF-8"?>
<svg version="1.1" xmlns="http://www.w3.org/2000/svg" width="512" height="512">
<path d="M0 0 C1.7324979 -0.00417696 3.46499306 -0.00965646 5.19748318 -0.01631981 C9.9404382 -0.0307456 14.68321902 -0.02653865 19.42618346 -0.019153 C24.5483193 -0.01441653 29.67041772 -0.02693542 34.7925415 -0.03717041 C44.82032304 -0.05435437 54.8480419 -0.05519924 64.87583433 -0.04995751 C73.02767374 -0.04591381 81.17949464 -0.04736174 89.33133316 -0.05270576 C90.49216531 -0.05345419 91.65299745 -0.05420261 92.84900633 -0.05497371 C95.20734222 -0.05650521 97.56567811 -0.05804356 99.92401399 -0.05958868 C122.03319351 -0.07331228 144.14233764 -0.06787702 166.25151636 -0.05640347 C186.47010379 -0.04647136 206.68859971 -0.05941165 226.90717302 -0.08333766 C247.677185 -0.10773069 268.44715436 -0.11733601 289.21718037 -0.11068493 C300.87414214 -0.10719316 312.53103353 -0.10942207 324.18798447 -0.12693596 C334.1112997 -0.14166045 344.03449499 -0.14229007 353.95780788 -0.12486505 C359.01855504 -0.11635478 364.07908795 -0.1142063 369.13982391 -0.1295166 C373.77735285 -0.14337264 378.41448418 -0.13858867 383.05199017 -0.11927737 C384.72484005 -0.11551988 386.39772185 -0.11843205 388.07054327 -0.12888902 C404.43259905 -0.22385366 416.49260454 3.38970118 428.68338013 14.70018005 C439.9633509 26.61863974 441.38253309 39.8083509 441.32106018 55.45429993 C441.32523714 57.18679783 441.33071664 58.91929299 441.33737999 60.65178311 C441.35180578 65.39473813 441.34759883 70.13751895 441.34021318 74.88048339 C441.33547671 80.00261923 441.3479956 85.12471764 441.35823059 90.24684143 C441.37541455 100.27462296 441.37625942 110.30234182 441.37101769 120.33013426 C441.36697399 128.48197366 441.36842192 136.63379456 441.37376595 144.78563309 C441.37451437 145.94646523 441.37526279 147.10729738 441.37603389 148.30330626 C441.37756539 150.66164215 441.37910374 153.01997803 441.38064886 155.37831391 C441.39437246 177.48749344 441.3889372 199.59663757 441.37746365 221.70581628 C441.36753154 241.92440372 441.38047183 262.14289963 441.40439784 282.36147295 C441.42879087 303.13148493 441.43839619 323.90145428 441.43174511 344.6714803 C441.42825334 356.32844207 441.43048225 367.98533346 441.44799614 379.64228439 C441.46272063 389.56559963 441.46335025 399.48879492 441.44592523 409.41210781 C441.43741496 414.47285497 441.43526648 419.53338788 441.45057678 424.59412384 C441.46443282 429.23165278 441.45964886 433.8687841 441.44033755 438.50629009 C441.43658006 440.17913998 441.43949223 441.85202178 441.4499492 443.5248432 C441.54491384 459.88689898 437.931359 471.94690447 426.62088013 484.13768005 C414.70242044 495.41765082 401.51270929 496.83683301 385.86676025 496.77536011 C384.13426235 496.77953707 382.40176719 496.78501657 380.66927707 496.79167992 C375.92632205 496.8061057 371.18354123 496.80189876 366.44057679 496.79451311 C361.31844095 496.78977664 356.19634254 496.80229553 351.07421875 496.81253052 C341.04643722 496.82971448 331.01871836 496.83055935 320.99092592 496.82531761 C312.83908652 496.82127392 304.68726562 496.82272185 296.53542709 496.82806587 C294.79417887 496.82918851 294.79417887 496.82918851 293.01775392 496.83033382 C290.65941803 496.83186532 288.30108215 496.83340366 285.94274627 496.83494879 C263.83356674 496.84867239 241.72442261 496.84323712 219.6152439 496.83176357 C199.39665646 496.82183147 179.17816055 496.83477175 158.95958723 496.85869776 C138.18957525 496.8830908 117.4196059 496.89269612 96.64957988 496.88604504 C84.99261811 496.88255327 73.33572672 496.88478218 61.67877579 496.90229607 C51.75546055 496.91702056 41.83226526 496.91765017 31.90895237 496.90022516 C26.84820521 496.89171488 21.7876723 496.88956641 16.72693634 496.90487671 C12.0894074 496.91873274 7.45227608 496.91394878 2.81477009 496.89463747 C1.1419202 496.89087998 -0.5309616 496.89379216 -2.20378302 496.90424912 C-18.5658388 496.99921377 -30.62584429 493.38565893 -42.81661987 482.07518005 C-54.09659064 470.15672037 -55.51577283 456.96700921 -55.45429993 441.32106018 C-55.45847689 439.58856228 -55.46395639 437.85606712 -55.47061974 436.123577 C-55.48504552 431.38062198 -55.48083858 426.63784116 -55.47345293 421.89487672 C-55.46871646 416.77274088 -55.48123535 411.65064246 -55.49147034 406.52851868 C-55.5086543 396.50073714 -55.50949917 386.47301828 -55.50425743 376.44522585 C-55.50021374 368.29338644 -55.50166167 360.14156554 -55.50700569 351.98972702 C-55.50775411 350.82889487 -55.50850254 349.66806273 -55.50927364 348.47205385 C-55.51080514 346.11371796 -55.51234348 343.75538207 -55.5138886 341.39704619 C-55.52761221 319.28786667 -55.52217694 297.17872254 -55.51070339 275.06954382 C-55.50077129 254.85095639 -55.51371157 234.63246048 -55.53763758 214.41388716 C-55.56203062 193.64387518 -55.57163594 172.87390582 -55.56498486 152.10387981 C-55.56149308 140.44691804 -55.563722 128.79002665 -55.58123589 117.13307571 C-55.59596038 107.20976048 -55.59658999 97.28656519 -55.57916497 87.3632523 C-55.5706547 82.30250514 -55.56850623 77.24197223 -55.58381653 72.18123627 C-55.59767256 67.54370733 -55.5928886 62.906576 -55.57357729 58.26907001 C-55.5698198 56.59622013 -55.57273198 54.92333833 -55.58318894 53.25051691 C-55.67815359 36.88846113 -52.06459875 24.82845564 -40.75411987 12.63768005 C-28.83566019 1.35770928 -15.64594903 -0.0614729 0 0 Z " fill="#EDEDEE" transform="translate(63.066619873046875,7.6123199462890625)"/>
<path d="M0 0 C0.75796875 0.62390625 1.5159375 1.2478125 2.296875 1.890625 C8.31759521 6.99785663 13.20830711 12.74074065 18 19 C18.59554688 19.76828125 19.19109375 20.5365625 19.8046875 21.328125 C28.53204989 33.1522934 36.31969583 47.4645043 39 62 C39.99257813 62.27972656 40.98515625 62.55945313 42.0078125 62.84765625 C63.71748404 69.16495812 81.01351701 79.80497365 92.26171875 99.93359375 C103.93061841 121.87493364 106.15201497 145.20105364 99 169 C95.3963956 179.14085903 90.37791854 188.11935036 83 196 C82.22785156 196.85078125 81.45570313 197.7015625 80.66015625 198.578125 C75.02376366 204.52616647 69.16835746 209.04671885 62 213 C61.04867188 213.53496094 60.09734375 214.06992187 59.1171875 214.62109375 C42.765724 223.0059235 24.65320162 223.59176811 6.64868164 223.48583984 C4.48950979 223.48799218 2.3303391 223.49187941 0.1711731 223.49734497 C-5.62803442 223.50693734 -11.42692822 223.49186548 -17.22609782 223.47143888 C-23.32582213 223.45371336 -29.42553899 223.45739587 -35.52528381 223.4581604 C-45.75559663 223.45629507 -55.98578983 223.4390306 -66.21606445 223.41162109 C-78.01665904 223.38011969 -89.81712318 223.36962742 -101.61775678 223.3710922 C-114.23256082 223.37244613 -126.84731512 223.3585547 -139.46210408 223.34019899 C-143.07757652 223.33595191 -146.69304085 223.3345188 -150.30851555 223.33372116 C-155.99930791 223.3317023 -161.68999216 223.31941181 -167.38074875 223.29938889 C-169.46033503 223.2935823 -171.53993376 223.29107927 -173.61952782 223.29224396 C-205.03074026 223.30317302 -230.90105522 216.04611232 -254.1875 194.25 C-273.71569094 173.69184118 -281.79384664 147.16587204 -281.08886719 119.20361328 C-280.22445171 97.76895927 -270.46485986 76.63015505 -256 61 C-255.31550781 60.23558594 -254.63101563 59.47117187 -253.92578125 58.68359375 C-243.26157642 47.34918011 -228.92907759 37.43565035 -213.58984375 33.91796875 C-203.30654072 31.56682034 -203.30654072 31.56682034 -196.125 24 C-195.09176537 22.26812553 -194.08452653 20.5238235 -193.08642578 18.77148438 C-178.65909866 -4.75316407 -150.07528226 -22.62791323 -123.640625 -29.08984375 C-79.29969381 -39.45336392 -34.79086787 -29.58407132 0 0 Z " fill="#259FE9" transform="translate(345,153)"/>
<path d="M0 0 C0.75796875 0.62390625 1.5159375 1.2478125 2.296875 1.890625 C8.31759521 6.99785663 13.20830711 12.74074065 18 19 C18.59554688 19.76828125 19.19109375 20.5365625 19.8046875 21.328125 C28.77584681 33.4825989 36.58648233 48.0117985 39 63 C37.96294922 63.00410889 36.92589844 63.00821777 35.85742188 63.01245117 C31.92807471 63.03458777 27.9996809 63.08921886 24.07080078 63.15258789 C22.38567394 63.17547233 20.70041008 63.1900925 19.01513672 63.19555664 C-1.08545452 63.27346591 -16.12801307 69.64035902 -34.0625 78.25 C-37.48581434 79.89115377 -40.91491734 81.5192953 -44.34765625 83.140625 C-45.11441177 83.51350647 -45.8811673 83.88638794 -46.67115784 84.27056885 C-51.17956207 86.40003688 -55.02483312 87.56491404 -60 88 C-60 88.66 -60 89.32 -60 90 C-76.76871635 97.71174977 -93.54967091 105.38926861 -110.43405151 112.84500122 C-126.01584588 119.72575041 -141.49037456 126.81881475 -156.93432617 134.00317383 C-167.41601155 138.8787728 -177.91027972 143.72345513 -188.4375 148.5 C-189.08373322 148.79327179 -189.72996643 149.08654358 -190.39578247 149.38870239 C-197.93858946 152.81028215 -205.48664321 156.22026402 -213.03425598 159.63122559 C-215.86283868 160.90958078 -218.69130708 162.18818862 -221.51977539 163.46679688 C-225.15507156 165.11007625 -228.79103355 166.75186868 -232.42749023 168.39257812 C-234.12099632 169.15740745 -235.81443853 169.92237821 -237.5078125 170.6875 C-238.31829544 171.05339233 -239.12877838 171.41928467 -239.96382141 171.79626465 C-243.82318839 173.54319154 -247.67223569 175.30816086 -251.50292969 177.1171875 C-252.20030243 177.44630127 -252.89767517 177.77541504 -253.61618042 178.11450195 C-255.48675076 179.00070423 -257.35456645 179.8927144 -259.22216797 180.78515625 C-262 182 -262 182 -264 182 C-278.34811044 158.25263111 -285.41562213 131.58717517 -279 104 C-274.77682849 87.9413016 -267.31300575 73.22438624 -256 61 C-255.31550781 60.23558594 -254.63101563 59.47117187 -253.92578125 58.68359375 C-243.26157642 47.34918011 -228.92907759 37.43565035 -213.58984375 33.91796875 C-203.30654072 31.56682034 -203.30654072 31.56682034 -196.125 24 C-195.09176537 22.26812553 -194.08452653 20.5238235 -193.08642578 18.77148438 C-178.65909866 -4.75316407 -150.07528226 -22.62791323 -123.640625 -29.08984375 C-79.29969381 -39.45336392 -34.79086787 -29.58407132 0 0 Z " fill="#1480D9" transform="translate(345,153)"/>
<path d="M0 0 C0.75796875 0.62390625 1.5159375 1.2478125 2.296875 1.890625 C8.31759521 6.99785663 13.20830711 12.74074065 18 19 C18.89332031 20.15242188 18.89332031 20.15242188 19.8046875 21.328125 C28.77584681 33.4825989 36.58648233 48.0117985 39 63 C37.96294922 63.00410889 36.92589844 63.00821777 35.85742188 63.01245117 C31.92807471 63.03458777 27.9996809 63.08921886 24.07080078 63.15258789 C22.38567394 63.17547233 20.70041008 63.1900925 19.01513672 63.19555664 C-1.08545452 63.27346591 -16.12801307 69.64035902 -34.0625 78.25 C-37.48581434 79.89115377 -40.91491734 81.5192953 -44.34765625 83.140625 C-45.11441177 83.51350647 -45.8811673 83.88638794 -46.67115784 84.27056885 C-51.0994835 86.36221313 -55.01833578 87.90892753 -60 88 C-63.03173828 86.75927734 -63.03173828 86.75927734 -66.0703125 84.8359375 C-66.62461441 84.49264404 -67.17891632 84.14935059 -67.75001526 83.7956543 C-69.5534035 82.67301713 -71.33860619 81.52444765 -73.125 80.375 C-74.38401649 79.58490615 -75.6442038 78.79667514 -76.90551758 78.01025391 C-79.43676725 76.42823046 -81.9613074 74.83634432 -84.47998047 73.234375 C-89.18998951 70.23947796 -93.93833504 67.30726721 -98.6875 64.375 C-99.50943848 63.86557861 -100.33137695 63.35615723 -101.17822266 62.83129883 C-108.09963669 58.54345401 -115.03894211 54.28569041 -122 50.0625 C-123.00248779 49.44745605 -124.00497559 48.83241211 -125.0378418 48.19873047 C-134.3150093 42.5971044 -143.92334495 37.49870518 -154.4375 34.6875 C-155.54996094 34.38199219 -156.66242188 34.07648438 -157.80859375 33.76171875 C-163.48671989 32.40647444 -168.97725754 31.82456283 -174.8046875 31.68359375 C-175.5286673 31.66281265 -176.25264709 31.64203156 -176.99856567 31.62062073 C-179.29062239 31.55571147 -181.58278474 31.49651563 -183.875 31.4375 C-185.43751053 31.39425888 -187.00001072 31.35064289 -188.5625 31.30664062 C-192.37489426 31.20009104 -196.1873938 31.09866205 -200 31 C-197.64331174 23.42835834 -192.97228021 18.02310499 -188 12 C-187.17242187 10.99195313 -186.34484375 9.98390625 -185.4921875 8.9453125 C-138.0710468 -45.72676715 -53.23098822 -45.26444576 0 0 Z " fill="#056ABC" transform="translate(345,153)"/>
<path d="M0 0 C0.33 0 0.66 0 1 0 C1.3403125 1.60875 1.3403125 1.60875 1.6875 3.25 C5.26268447 17.03999726 11.61624813 27.36722449 23.9375 35 C34.68991742 41.18844168 45.9285147 41.43878116 57.97013855 41.40113831 C59.6800258 41.40675058 61.3899092 41.41365585 63.09978658 41.42173427 C67.77574166 41.44000961 72.45153521 41.43969687 77.12751782 41.43615115 C82.17950911 41.43553713 87.23144942 41.45211442 92.28341675 41.46632385 C102.17269276 41.49120186 112.06191512 41.49948649 121.95121982 41.50116099 C129.99287634 41.50258842 138.03451522 41.50876243 146.07616615 41.51826286 C168.89520916 41.54467114 191.7142099 41.55852275 214.5332683 41.55627144 C215.76244845 41.55615157 216.9916286 41.5560317 218.25805664 41.5559082 C219.48874429 41.55578556 220.71943193 41.55566292 221.98741315 41.55553656 C241.92844521 41.55431743 261.86930728 41.58302251 281.81029018 41.6253233 C302.30463269 41.66845357 322.79889235 41.68913172 343.29328138 41.68654197 C354.79167032 41.68554742 366.28988102 41.69372918 377.78822899 41.72607613 C387.57859392 41.75344257 397.36869979 41.75987499 407.15908649 41.73954786 C412.14955816 41.72977785 417.1395333 41.72948765 422.1299572 41.7556076 C426.70798757 41.77932163 431.28513098 41.77479058 435.86314074 41.74875521 C437.50979233 41.74417601 439.15651142 41.74950079 440.80308332 41.76633544 C455.79791254 41.90935918 469.86396643 38.7894765 481 28 C481.93199219 27.14341797 481.93199219 27.14341797 482.8828125 26.26953125 C489.68539134 19.36388303 493.75356136 9.53670496 495 0 C495.33 0 495.66 0 496 0 C496.10002068 4.90716833 496.17200237 9.81372362 496.21972656 14.72167969 C496.23965287 16.38584754 496.26680428 18.04994714 496.30175781 19.71386719 C496.64899689 36.68773034 493.53870902 48.97640915 481.6875 61.75 C469.76904032 73.02997077 456.57932916 74.44915296 440.93338013 74.38768005 C439.20088223 74.39185701 437.46838707 74.39733652 435.73589694 74.40399987 C430.99294193 74.41842565 426.2501611 74.41421871 421.50719666 74.40683305 C416.38506083 74.40209659 411.26296241 74.41461548 406.14083862 74.42485046 C396.11305709 74.44203443 386.08533823 74.4428793 376.0575458 74.43763756 C367.90570639 74.43359386 359.75388549 74.4350418 351.60204697 74.44038582 C349.86079875 74.44150845 349.86079875 74.44150845 348.08437379 74.44265376 C345.72603791 74.44418526 343.36770202 74.44572361 341.00936614 74.44726873 C318.90018661 74.46099233 296.79104249 74.45555707 274.68186377 74.44408352 C254.46327634 74.43415141 234.24478042 74.4470917 214.0262071 74.47101771 C193.25619513 74.49541074 172.48622577 74.50501606 151.71619976 74.49836498 C140.05923798 74.49487321 128.40234659 74.49710212 116.74539566 74.51461601 C106.82208043 74.52934051 96.89888513 74.52997012 86.97557224 74.5125451 C81.91482509 74.50403483 76.85429218 74.50188635 71.79355621 74.51719666 C67.15602728 74.53105269 62.51889595 74.52626873 57.88138996 74.50695742 C56.20854008 74.50319993 54.53565827 74.50611211 52.86283685 74.51656907 C36.50078108 74.61153371 24.44077558 70.99797888 12.25 59.6875 C0.40943234 47.17671153 -0.44151779 33.66728546 -0.1875 17.375 C-0.17242441 15.68620986 -0.1587411 13.9974067 -0.14648438 12.30859375 C-0.11370964 8.20540271 -0.06208718 4.1028479 0 0 Z " fill="#B8B8BA" transform="translate(8,430)"/>
<path d="M0 0 C2.63106092 0.02148801 5.25940112 0.00006968 7.89038086 -0.02539062 C17.75811325 -0.04228146 26.30143965 0.76613688 35.56811523 4.52148438 C36.62252808 4.93696533 36.62252808 4.93696533 37.69824219 5.36083984 C57.84675121 13.86467593 70.38156001 29.83323902 78.56811523 49.52148438 C85.58312623 68.57384757 86.24185575 91.52397272 77.96655273 110.45507812 C76.59291979 113.21861929 75.12852966 115.86219077 73.56811523 118.52148438 C66.24434728 114.6043449 59.08153394 110.49401152 52.00561523 106.14648438 C50.53185425 105.24518799 50.53185425 105.24518799 49.02832031 104.32568359 C45.8728549 102.3942933 42.72012137 100.45851441 39.56811523 98.52148438 C38.52075195 97.87824219 37.47338867 97.235 36.39428711 96.57226562 C27.70331312 91.2329916 19.01883387 85.88318647 10.3371582 80.52880859 C-2.58885953 72.55694518 -15.53659258 64.62348435 -28.52566528 56.75491333 C-37.14636604 51.53177499 -45.73510652 46.25987467 -54.29370117 40.93554688 C-60.15142205 37.29643051 -66.04555825 33.7240475 -71.99365234 30.234375 C-74.40492049 28.80763009 -76.44086741 27.51250173 -78.43188477 25.52148438 C-77.76721191 25.25408447 -77.10253906 24.98668457 -76.41772461 24.71118164 C-70.23342272 22.18237593 -64.14855264 19.50095698 -58.09594727 16.67382812 C-57.36293396 16.33267975 -56.62992065 15.99153137 -55.87469482 15.64004517 C-52.84113523 14.22744623 -49.80816759 12.81390019 -46.7824707 11.38452148 C-31.10382529 3.98973131 -17.44579591 -0.16923447 0 0 Z " fill="#1288DE" transform="translate(364.431884765625,215.478515625)"/>
<path d="M0 0 C0.33 0 0.66 0 1 0 C1.23074219 1.29292969 1.46148437 2.58585937 1.69921875 3.91796875 C6.71699657 31.06576879 18.44135488 54.02941257 41.32324219 70.29614258 C62.31013496 84.64011761 85.66884966 87.30440365 110.44555664 87.29052734 C112.59233837 87.29652156 114.73911796 87.30332914 116.88589478 87.31088257 C122.6858813 87.32846088 128.4858087 87.33323455 134.28581929 87.33451414 C137.91950475 87.33594117 141.55317545 87.34022123 145.18685722 87.34550858 C157.89240336 87.36398328 170.59790768 87.37218258 183.3034668 87.37060547 C195.09984587 87.36940544 206.89604157 87.39048742 218.69237429 87.4220928 C228.85847863 87.44834833 239.02452343 87.45896886 249.19066137 87.45769465 C255.24532275 87.45718765 261.29982107 87.46272435 267.35444832 87.48405075 C273.056714 87.5035896 278.75866369 87.50345182 284.46094131 87.48901749 C286.53759289 87.48694741 288.61426507 87.49152078 290.69088173 87.5037384 C314.95530824 87.63709446 338.60576123 84.18538116 357 67 C357.77730469 66.30132812 358.55460937 65.60265625 359.35546875 64.8828125 C365.03204198 59.5390367 369.21369669 53.79896291 373 47 C373.53625 46.04738281 374.0725 45.09476562 374.625 44.11328125 C379.52745482 34.54123821 381.21626812 24.52401807 383 14 C383.33 14 383.66 14 384 14 C384.37583387 39.81978682 383.4402405 62.40749599 366 83 C365.06220703 84.17755859 365.06220703 84.17755859 364.10546875 85.37890625 C355.64563271 95.56172316 344.85130714 101.57896413 333 107 C332.27039063 107.3403125 331.54078125 107.680625 330.7890625 108.03125 C318.06034286 113.40201778 303.27472488 112.2977985 289.77246094 112.29052734 C287.54199501 112.29652084 285.31153114 112.30332826 283.08106995 112.31088257 C277.05401982 112.328465 271.02702657 112.33323463 264.99995327 112.33451414 C261.2262533 112.33594057 257.45256757 112.34021943 253.67887115 112.34550858 C241.16949191 112.36303125 228.66014469 112.37235202 216.15075573 112.37084763 C215.47855029 112.37076772 214.80634484 112.3706878 214.11376953 112.37060547 C213.44072955 112.37052371 212.76768956 112.37044195 212.07425442 112.37035771 C201.17424267 112.36954532 190.27436926 112.38867906 179.37439749 112.4168822 C168.14270372 112.44571102 156.91107509 112.45905202 145.67933679 112.45769465 C139.38947099 112.45718686 133.09976198 112.46276886 126.80992889 112.48405075 C120.8901705 112.50353598 114.97071687 112.5034876 109.05094719 112.48901749 C106.89079526 112.4869411 104.73062373 112.49155959 102.57050514 112.5037384 C73.20755578 112.65843584 49.53654114 104.55589304 28 84 C27.39800781 83.47277344 26.79601562 82.94554687 26.17578125 82.40234375 C16.1396155 73.25516238 9.68074365 60.53381855 5 48 C4.68417969 47.16726563 4.36835937 46.33453125 4.04296875 45.4765625 C0.3019272 34.97216011 -0.26820639 24.97900332 -0.125 13.875 C-0.11494282 12.52344419 -0.10582184 11.17188107 -0.09765625 9.8203125 C-0.07427319 6.54668442 -0.04150061 3.27344006 0 0 Z " fill="#B7B8BA" transform="translate(64,288)"/>
</svg>
