<?xml version="1.0" encoding="UTF-8"?>
<svg version="1.1" xmlns="http://www.w3.org/2000/svg" width="512" height="512">
<path d="M0 0 C0 126.06 0 252.12 0 382 C-11.24995958 380.87500404 -11.24995958 380.87500404 -16.37034607 379.79707336 C-18.11366966 379.43410156 -18.11366966 379.43410156 -19.89221191 379.063797 C-21.13490845 378.79951401 -22.37760498 378.53523102 -23.65795898 378.26293945 C-25.00874015 377.97964051 -26.35961903 377.69680714 -27.71058655 377.41439819 C-31.37239821 376.64756641 -35.0328194 375.87427808 -38.69303012 375.09984612 C-42.60330228 374.27372866 -46.51486518 373.4537665 -50.42628479 372.63310242 C-57.90124442 371.06382168 -65.37507982 369.48925379 -72.84850985 367.91270655 C-81.894851 366.00457722 -90.94250703 364.10271549 -99.99023438 362.20117188 C-103.27288474 361.51122055 -106.55552395 360.8212162 -109.83815002 360.13114929 C-110.64590647 359.96134479 -111.45366292 359.79154029 -112.28589684 359.6165902 C-117.55780207 358.50815867 -122.82934142 357.39800427 -128.10069275 356.28694153 C-160.3921255 349.48417331 -192.69725363 342.7498276 -225 336 C-225 239.31 -225 142.62 -225 43 C-210.67791397 40.01623208 -196.36601688 37.049701 -182.00585938 34.26708984 C-180.2548767 33.92653268 -178.50392139 33.58583479 -176.75299072 33.24501038 C-172.08434624 32.336658 -167.41532339 31.43026551 -162.74621391 30.52430677 C-157.81549721 29.56725291 -152.88512757 28.60841413 -147.95471191 27.64981079 C-139.69137122 26.04345755 -131.42779888 24.43830078 -123.1640625 22.83398438 C-112.60169778 20.78340749 -102.03972221 18.73083334 -91.47786713 16.67763329 C-82.32656427 14.89865745 -73.17508479 13.12059085 -64.02357674 11.34267092 C-61.11349468 10.77727368 -58.20343611 10.2117557 -55.29338074 9.64622116 C-50.70333548 8.75426174 -46.11317943 7.86287448 -41.52294159 6.97190666 C-39.85254771 6.64760407 -38.18218674 6.32313187 -36.51186371 5.99846458 C-32.05601089 5.13243292 -27.59938506 4.27060214 -23.14175224 3.41377974 C-20.92933095 2.98634696 -18.71825888 2.55232031 -16.50715637 2.1181221 C-15.06816727 1.83948757 -13.62913791 1.5610609 -12.19006348 1.28286743 C-10.92512306 1.03577845 -9.66018265 0.78868946 -8.35691071 0.53411293 C-5 0 -5 0 0 0 Z M-144.9375 136.1875 C-160.55385007 153.04215096 -164.70549739 174.68125033 -164.25 196.9921875 C-163.63066582 213.18777629 -159.08845822 228.19105867 -149 241 C-148.53980469 241.63550781 -148.07960938 242.27101563 -147.60546875 242.92578125 C-140.66001461 251.95287006 -129.97567681 256.87812002 -119 259 C-104.61086483 260.39300759 -91.68860009 256.99986625 -80.3671875 247.87890625 C-66.66521614 235.11973109 -59.77083123 216.96218305 -58.87719727 198.45703125 C-58.18152689 174.70697161 -61.59251741 153.06318119 -77.9375 134.83984375 C-86.90909899 126.33551554 -98.27816193 122.28771795 -110.5078125 121.92578125 C-123.86232166 122.32348607 -135.28296629 127.03553106 -144.9375 136.1875 Z " fill="#0071C6" transform="translate(293,65)"/>
<path d="M0 0 C0.09354372 19.40209056 0.16402834 38.80413519 0.20724869 58.20640469 C0.22785226 67.21572354 0.25593058 76.22490208 0.30175781 85.23413086 C0.34169323 93.08884165 0.36744884 100.94345078 0.37635398 108.79826027 C0.38155741 112.95531526 0.39374104 117.11207949 0.42292023 121.26904106 C0.45019553 125.18673978 0.45842075 129.10402969 0.45243073 133.02181435 C0.45352558 134.45484519 0.46140734 135.88789058 0.4768219 137.32083893 C0.56376425 145.82462108 0.50824538 153.82573832 -5.34124374 160.53938961 C-12.75898795 167.27323777 -20.12252991 167.42745929 -29.63647461 167.34057617 C-30.8957074 167.34101425 -32.15494019 167.34145233 -33.45233154 167.34190369 C-36.88788807 167.34276087 -40.32312737 167.32518052 -43.75861049 167.30418181 C-47.35537891 167.28536847 -50.95215542 167.28366092 -54.54896545 167.28010559 C-61.35220943 167.27079875 -68.15530797 167.24620355 -74.95848805 167.21605712 C-84.15713447 167.17618472 -93.35582094 167.16004723 -102.55453205 167.14255047 C-117.03646353 167.11438134 -131.51808819 167.05460294 -146 167 C-146 131.36 -146 95.72 -146 59 C-137.0022992 60.1247126 -137.0022992 60.1247126 -133.67578125 62.6171875 C-132.95712891 63.14183594 -132.23847656 63.66648438 -131.49804688 64.20703125 C-130.77681641 64.75746094 -130.05558594 65.30789062 -129.3125 65.875 C-127.85127631 66.95710233 -126.3890625 68.03786914 -124.92578125 69.1171875 C-124.24467285 69.61959961 -123.56356445 70.12201172 -122.86181641 70.63964844 C-118.88481568 73.96332093 -118.88481568 73.96332093 -114.09877014 74.71063232 C-111.8524586 73.95004327 -110.16572636 72.9923333 -108.18920898 71.68457031 C-107.44575729 71.19654434 -106.7023056 70.70851837 -105.93632507 70.20570374 C-105.13104874 69.66860275 -104.3257724 69.13150177 -103.49609375 68.578125 C-102.64179276 68.01455795 -101.78749176 67.45099091 -100.90730286 66.87034607 C-98.08013547 65.00271811 -95.25873412 63.12657646 -92.4375 61.25 C-90.46275135 59.94218293 -88.48781375 58.63465112 -86.51269531 57.32739258 C-68.30040357 45.25772277 -50.19236472 33.03344255 -32.09416199 20.79368591 C-24.86655881 15.90677436 -17.62825542 11.0362531 -10.375 6.1875 C-9.40336914 5.53547607 -8.43173828 4.88345215 -7.43066406 4.21166992 C-6.5744043 3.64037354 -5.71814453 3.06907715 -4.8359375 2.48046875 C-4.10938965 1.99473389 -3.3828418 1.50899902 -2.63427734 1.00854492 C-1 0 -1 0 0 0 Z " fill="#0072C6" transform="translate(444,185)"/>
<path d="M0 0 C17.36776763 -0.09347659 34.73545665 -0.16399541 52.10341835 -0.20724869 C60.16782673 -0.22786652 68.23207872 -0.25597207 76.29638672 -0.30175781 C83.32594323 -0.34164962 90.35538648 -0.36743849 97.38505304 -0.37635398 C101.10663334 -0.38156482 104.82788963 -0.39379549 108.549366 -0.42292023 C112.70574515 -0.45518417 116.86156241 -0.45595792 121.01806641 -0.45410156 C122.24949371 -0.46848267 123.48092102 -0.48286377 124.74966431 -0.49768066 C131.12672393 -0.46680641 135.20058803 -0.38445856 140 4 C144.25828789 8.73143099 146.95165281 13.17481046 146.73046875 19.65234375 C145.26025289 24.37747602 140.88214261 26.29046306 136.88832092 28.79988098 C133.50589967 30.94957282 130.17941511 33.1830624 126.84765625 35.41015625 C126.06758713 35.93092743 125.28751801 36.45169861 124.48381042 36.98825073 C117.00777712 41.98465168 109.55445124 47.01452509 102.10473633 52.05004883 C98.48099375 54.49926167 94.85433136 56.94406643 91.2253418 59.38549805 C82.64966218 65.15597806 74.08028386 70.93350324 65.5592804 76.7845459 C61.99927819 79.22558178 58.42964879 81.65228312 54.85824585 84.07659912 C53.17272955 85.22592407 51.49167039 86.38181531 49.81533813 87.54449463 C47.48832599 89.15746766 45.14681734 90.74690679 42.80078125 92.33203125 C42.12551392 92.80867722 41.45024658 93.28532318 40.7545166 93.77641296 C35.93695786 96.98317689 32.78840256 97.73410513 27 97 C23.9362793 95.65478516 23.9362793 95.65478516 21.07421875 93.7890625 C20.03072266 93.12132812 18.98722656 92.45359375 17.91210938 91.765625 C16.31592773 90.70601562 16.31592773 90.70601562 14.6875 89.625 C13.06231445 88.57699219 13.06231445 88.57699219 11.40429688 87.5078125 C7.58139961 85.03682856 3.78740376 82.52493584 0 80 C-0.2864952 77.39712638 -0.37848245 75.03294626 -0.34057617 72.42919922 C-0.34101425 71.64862152 -0.34145233 70.86804382 -0.34190369 70.06381226 C-0.33980941 67.47718511 -0.31644883 64.89120176 -0.29296875 62.3046875 C-0.28737506 60.51392979 -0.28310389 58.7231675 -0.28010559 56.93240356 C-0.26863895 52.21404392 -0.23915625 47.49596036 -0.20599365 42.77770996 C-0.17533187 37.96512589 -0.1616086 33.1524973 -0.14648438 28.33984375 C-0.11428819 18.89310772 -0.06306998 9.4465768 0 0 Z " fill="#0071C6" transform="translate(298,155)"/>
<path d="M0 0 C8.55569615 7.12974679 12.69067937 17.08309694 14 28 C14.31886059 33.06209229 14.41664883 38.11671182 14.4375 43.1875 C14.4475708 44.45803223 14.4576416 45.72856445 14.46801758 47.03759766 C14.34347361 60.62437261 11.93266156 74.06733844 2 84 C-4.07891213 88.56272659 -10.61685735 88.96518172 -18 88 C-24.25454685 86.23241067 -28.49039242 82.36880479 -32 77 C-38.05943963 66.05608134 -39.37472027 55.55219995 -39.3125 43.1875 C-39.30758545 42.03765625 -39.3026709 40.8878125 -39.29760742 39.703125 C-39.11202974 26.28823815 -37.10106432 13.33379227 -27.6875 3.0625 C-19.76131139 -4.1960399 -9.36670523 -5.22373945 0 0 Z " fill="#0071C6" transform="translate(194,213)"/>
</svg>
