<?xml version="1.0" standalone="no"?>
<!DOCTYPE svg PUBLIC "-//W3C//DTD SVG 20010904//EN"
 "http://www.w3.org/TR/2001/REC-SVG-20010904/DTD/svg10.dtd">
<svg version="1.0" xmlns="http://www.w3.org/2000/svg"
 width="512.000000pt" height="512.000000pt" viewBox="0 0 512.000000 512.000000"
 preserveAspectRatio="xMidYMid meet">

<g transform="translate(0.000000,512.000000) scale(0.100000,-0.100000)"
fill="#000000" stroke="none">
<path d="M4245 4354 c-11 -2 -45 -9 -75 -15 -133 -27 -280 -140 -339 -262
-108 -222 -72 -466 94 -632 104 -104 228 -155 374 -155 158 0 268 45 377 154
170 170 207 403 101 624 -58 121 -175 222 -303 262 -63 19 -191 33 -229 24z"/>
<path d="M380 3791 c-76 -24 -157 -98 -181 -167 -21 -58 -21 -2026 0 -2097 17
-60 77 -128 139 -159 l47 -23 1035 0 1035 0 41 22 c22 12 57 40 78 63 77 85
71 -4 71 1140 0 1024 0 1025 -21 1071 -26 55 -77 108 -130 135 -38 18 -72 19
-1064 21 -564 1 -1036 -2 -1050 -6z m1569 -545 c19 -17 21 -30 21 -143 0 -170
10 -163 -210 -163 l-170 0 0 -505 c0 -362 -3 -511 -12 -530 -16 -37 -66 -47
-197 -43 -104 3 -114 5 -132 27 -18 22 -19 46 -19 537 l0 514 -172 0 c-224 0
-218 -4 -218 156 0 62 3 120 6 129 17 43 43 45 575 42 483 -2 508 -3 528 -21z"/>
<path d="M3784 3116 c68 -29 107 -63 144 -126 l27 -45 0 -755 0 -755 -28 -110
c-15 -60 -43 -146 -62 -190 l-33 -80 51 -18 c84 -28 211 -40 313 -27 288 36
529 208 654 465 81 166 81 167 78 865 -3 598 -3 605 -25 645 -29 54 -78 99
-138 127 -50 23 -52 23 -545 26 l-495 2 59 -24z"/>
</g>
</svg>
