<?xml version="1.0" standalone="no"?>
<!DOCTYPE svg PUBLIC "-//W3C//DTD SVG 20010904//EN"
 "http://www.w3.org/TR/2001/REC-SVG-20010904/DTD/svg10.dtd">
<svg version="1.0" xmlns="http://www.w3.org/2000/svg"
 width="512.000000pt" height="512.000000pt" viewBox="0 0 512.000000 512.000000"
 preserveAspectRatio="xMidYMid meet">

<g transform="translate(0.000000,512.000000) scale(0.100000,-0.100000)"
fill="#000000" stroke="none">
<path d="M522 5105 c-251 -46 -462 -259 -508 -513 -20 -115 -20 -3949 0 -4064
43 -240 228 -439 469 -506 58 -16 202 -17 2077 -17 1893 0 2019 1 2079 18 175
48 326 170 407 330 75 147 69 -40 69 2207 0 1875 -1 2019 -17 2077 -67 241
-266 426 -506 469 -112 20 -3960 19 -4070 -1z m1530 -678 c65 -32 121 -89 152
-156 l21 -46 0 -1530 0 -1530 -28 -57 c-32 -65 -89 -121 -156 -152 -45 -21
-55 -21 -596 -21 l-550 0 -50 24 c-63 32 -124 92 -155 156 l-25 50 -3 1504
c-3 1651 -6 1554 57 1653 34 53 89 93 164 120 48 16 92 18 582 15 l530 -2 57
-28z m2230 -5 c75 -37 110 -72 147 -152 l26 -55 3 -859 c3 -948 4 -920 -60
-1013 -37 -55 -118 -109 -183 -123 -33 -7 -228 -10 -570 -8 l-520 3 -57 28
c-70 35 -131 101 -158 174 -20 54 -20 68 -18 931 3 872 3 877 24 923 41 89
123 157 218 180 17 4 267 7 556 6 l525 -2 67 -33z"/>
</g>
</svg>
