<?xml version="1.0" encoding="UTF-8"?>
<svg version="1.1" xmlns="http://www.w3.org/2000/svg" width="960" height="960">
<path d="M0 0 C1.42827892 -0.00269613 2.85655641 -0.00626551 4.28483123 -0.01062447 C8.20866907 -0.02006292 12.13241384 -0.01708817 16.05625621 -0.01206893 C20.32560715 -0.0087987 24.59493835 -0.01708783 28.86428297 -0.02388728 C36.34674555 -0.03419153 43.82918225 -0.03703033 51.31165123 -0.03497505 C62.43860369 -0.03192617 73.5655275 -0.04024656 84.69247439 -0.0507243 C105.72173424 -0.07007315 126.75098435 -0.07569286 147.78025205 -0.07683842 C164.01990079 -0.07775729 180.2595457 -0.08187282 196.49919319 -0.08823967 C201.17273151 -0.09003474 205.84626984 -0.09181437 210.51980817 -0.09358943 C211.68164611 -0.09403152 212.84348404 -0.09447362 214.04052919 -0.09492911 C246.72431015 -0.1072388 279.40808979 -0.11513011 312.09187317 -0.11424255 C313.94052272 -0.11419582 313.94052272 -0.11419582 315.82651873 -0.11414814 C322.07308395 -0.11398192 328.31964918 -0.11378384 334.5662144 -0.11357872 C336.42711839 -0.11351889 336.42711839 -0.11351889 338.32561641 -0.11345784 C340.83441803 -0.11337697 343.34321966 -0.11329337 345.85202129 -0.11320706 C384.88440673 -0.11198156 423.91675742 -0.12699393 462.94913292 -0.15435219 C506.79636012 -0.18507253 550.64356448 -0.20228471 594.49080312 -0.20042574 C599.16622758 -0.20027648 603.84165203 -0.20017907 608.51707649 -0.20011711 C609.66829414 -0.2000938 610.8195118 -0.20007049 612.00561483 -0.20004648 C630.5328153 -0.19998493 649.05998561 -0.21275745 667.58717712 -0.22998164 C686.20756035 -0.24693443 704.82789945 -0.24891473 723.44828613 -0.235763 C734.50971673 -0.22837146 745.57101327 -0.23203796 756.63242967 -0.25164768 C764.02449613 -0.26364486 771.41646547 -0.26105948 778.80852747 -0.24670668 C783.01815071 -0.23894151 787.22751447 -0.23739808 791.43711944 -0.25362138 C795.27437589 -0.26827983 799.11115909 -0.26418983 802.94839519 -0.24577365 C804.96278436 -0.24076118 806.97719414 -0.25517596 808.99153036 -0.27061921 C830.00443578 -0.107883 847.73380685 8.18752359 862.60098839 22.92523766 C876.37525224 37.47956414 882.59900841 54.43046116 883.78696632 74.21266651 C883.85698282 75.28824105 883.92699931 76.36381558 883.99913752 77.47198328 C884.23108023 81.07837453 884.45161794 84.68534838 884.67087364 88.29253197 C884.83362095 90.9069749 884.99641703 93.5214148 885.15925765 96.13585192 C885.65105499 104.08873692 886.12176764 112.04282583 886.58841175 119.99722101 C886.72338325 122.29379702 886.85923634 124.59031941 886.99530458 126.88683069 C889.35235997 166.72164042 891.31386429 206.5591308 892.66586876 246.44124413 C892.69692074 247.355307 892.72797272 248.26936988 892.75996568 249.21113163 C893.43400149 269.1105895 894.05484058 289.01135962 894.61778142 308.9142645 C894.89413592 318.67772379 895.18160362 328.44084146 895.47501183 338.20380211 C895.51849049 339.66021499 895.51849049 339.66021499 895.56284751 341.14605036 C896.40670518 369.25177023 897.78977677 397.27823574 899.68536731 425.33214775 C905.75627132 515.21127613 911.65772663 608.23030133 817.10317605 840.19023671 C761.17080412 904.19641036 692.0850495 957.42207738 543.49192894 980.59207577 C477.53015134 985.00658299 411.32774819 981.38772059 345.47466115 976.95297307 C317.42858567 975.06913072 289.4055709 973.79742696 261.30875206 972.9735775 C260.34021141 972.94498484 259.37167075 972.91639218 258.37378039 972.88693307 C248.63686118 972.60000714 238.89968411 972.32281568 229.16230185 972.0520931 C209.32403083 971.49981076 189.48836643 970.87119791 169.65376854 970.20029259 C168.74267615 970.1695219 167.83158376 970.1387512 166.8928825 970.10704807 C127.97152098 968.78691657 89.09167972 966.87008881 50.21659052 964.56880689 C46.41502243 964.3439374 42.61320705 964.12360954 38.8112981 963.90458881 C31.05041063 963.45713713 23.29096834 962.99054229 15.53263416 962.50078972 C13.00241431 962.34259934 10.47190911 962.1888933 7.94111303 962.040206 C-19.17893767 960.42985706 -40.03343142 955.28618603 -59.40291786 934.81976891 C-72.52121385 919.85411794 -77.40916875 902.76165427 -77.34768677 883.16685104 C-77.35038289 881.73857212 -77.35395228 880.31029463 -77.35831124 878.88201982 C-77.36774969 874.95818197 -77.36477494 871.0344372 -77.35975569 867.11059484 C-77.35648547 862.84124389 -77.3647746 858.5719127 -77.37157404 854.30256808 C-77.3818783 846.82010549 -77.3847171 839.33766879 -77.38266182 831.85519981 C-77.37961294 820.72824735 -77.38793333 809.60132355 -77.39841107 798.47437665 C-77.41775992 777.4451168 -77.42337963 756.41586669 -77.42452519 735.38659899 C-77.42544405 719.14695025 -77.42955959 702.90730534 -77.43592644 686.66765785 C-77.43772151 681.99411953 -77.43950114 677.3205812 -77.44127619 672.64704287 C-77.44171829 671.48520494 -77.44216039 670.323367 -77.44261588 669.12632186 C-77.45492557 636.44254089 -77.46281688 603.75876126 -77.46192932 571.07497787 C-77.46189816 569.84254484 -77.46186701 568.6101118 -77.4618349 567.34033231 C-77.46166869 561.09376709 -77.46147061 554.84720187 -77.46126549 548.60063665 C-77.4612256 547.36003398 -77.46118571 546.11943132 -77.46114461 544.84123464 C-77.46106374 542.33243301 -77.46098014 539.82363138 -77.46089383 537.31482975 C-77.45966833 498.28244431 -77.4746807 459.25009362 -77.50203896 420.21771812 C-77.5327593 376.37049093 -77.54997147 332.52328656 -77.54811251 288.67604792 C-77.54796325 284.00062346 -77.54786584 279.32519901 -77.54780388 274.64977455 C-77.54778057 273.4985569 -77.54775726 272.34733925 -77.54773325 271.16123621 C-77.5476717 252.63403574 -77.56044422 234.10686543 -77.57766841 215.57967393 C-77.5946212 196.95929069 -77.59660149 178.33895159 -77.58344977 159.71856491 C-77.57605823 148.65713431 -77.57972472 137.59583777 -77.59933445 126.53442137 C-77.61133162 119.14235491 -77.60874625 111.75038557 -77.59439345 104.35832357 C-77.58662828 100.14870033 -77.58508485 95.93933657 -77.60130815 91.7297316 C-77.6159666 87.89247515 -77.6118766 84.05569195 -77.59346042 80.21845586 C-77.58844795 78.20406668 -77.60286273 76.1896569 -77.61830598 74.17532068 C-77.45556977 53.16241527 -69.16016318 35.4330442 -54.42244911 20.56586266 C-38.87166717 5.84854998 -21.16880706 -0.06642068 0 0 Z " fill="#4184F3" transform="translate(77.09041786193848,-0.25726890563964844)"/>
<path d="M0 0 C75.24 0 150.48 0 228 0 C237.11488489 118.11707763 237.11488489 118.11707763 239.03515625 169.1875 C239.44830186 180.11722803 239.87228478 191.04645513 240.32287459 201.9747096 C240.38387122 203.45478387 240.44452308 204.93487238 240.50482602 206.41497508 C241.36148428 227.37872846 242.74849437 248.23487724 244.66433226 269.12785707 C250.94720655 337.67219659 255.52270533 408.62717804 168.80966855 599.59453344 C115.18675466 663.89267847 46.40866302 726.4414588 -95.24905913 752.30475933 C-166.43079433 758.55493634 -238.29815581 754.48624886 -309.43492085 749.69561407 C-337.48099922 747.81189409 -365.50401582 746.54015792 -393.60083008 745.71630859 C-394.56937073 745.68771593 -395.53791138 745.65912327 -396.53580175 745.62966417 C-406.27272096 745.34273823 -416.00989803 745.06554678 -425.74728029 744.79482419 C-445.58555131 744.24254185 -465.4212157 743.613929 -485.2558136 742.94302368 C-486.16690599 742.91225299 -487.07799838 742.8814823 -488.01669964 742.84977916 C-526.93806116 741.52964766 -565.81790242 739.6128199 -604.69299161 737.31153798 C-608.49455971 737.08666849 -612.29637509 736.86634063 -616.09828404 736.6473199 C-623.85917151 736.19986823 -631.6186138 735.73327339 -639.37694798 735.24352081 C-641.90716783 735.08533043 -644.43767303 734.93162439 -646.96846911 734.78293709 C-674.08851981 733.17258815 -694.94301355 728.02891712 -714.3125 707.5625 C-757.92251279 657.81120376 -732 538.27848015 -732 506 C-490.11 506 -248.22 506 1 506 C0.67 339.02 0.34 172.04 0 0 Z " fill="#34A752" transform="translate(732,227)"/>
<path d="M0 0 C1.20851586 0.00351175 1.20851586 0.00351175 2.44144619 0.00709444 C3.29324077 0.005641 4.14503536 0.00418756 5.0226419 0.00269008 C7.91422907 -0.00099722 10.80576443 0.00252904 13.69735134 0.00595194 C15.77640136 0.0048012 17.85545118 0.00321399 19.93450058 0.0012247 C25.67670928 -0.00297507 31.4189015 -0.00087504 37.16111028 0.00221092 C43.34249316 0.00446218 49.52387309 0.00098678 55.70525539 -0.00176901 C67.12446566 -0.0059705 78.54366916 -0.00558973 89.96287927 -0.00285754 C100.5104891 -0.00034615 111.05809698 0.00031667 121.60570705 -0.00088018 C122.30421196 -0.00095657 123.00271687 -0.00103295 123.7223886 -0.00111165 C126.55754749 -0.00142297 129.39270638 -0.00174137 132.22786527 -0.00207142 C158.84669646 -0.00513331 185.46552428 -0.00235237 212.08435495 0.00302548 C235.75540438 0.00777141 259.42644844 0.00734679 283.09749782 0.00256449 C309.66633583 -0.00278526 336.23517085 -0.0049162 362.80400932 -0.00182325 C365.63412845 -0.00150251 368.46424758 -0.00118967 371.29436672 -0.00088018 C371.99126064 -0.0008011 372.68815456 -0.00072203 373.40616647 -0.00064055 C383.94948745 0.00049894 394.49280629 -0.00083711 405.03612697 -0.00335974 C417.01929468 -0.0062125 429.00245602 -0.00542132 440.98562348 -0.00007899 C447.10611333 0.00255921 453.22659223 0.0035611 459.34708202 0.00027186 C464.94031374 -0.00268869 470.53352427 -0.00110236 476.12675405 0.00424941 C478.15970272 0.00537464 480.19265316 0.00478011 482.22560072 0.00237362 C484.96996916 -0.00062801 487.71426316 0.00241166 490.45862758 0.00709444 C491.26430482 0.00475328 492.06998206 0.00241211 492.90007377 0 C498.33588654 0.01878524 498.33588654 0.01878524 499.45003688 1.13293558 C499.54897267 3.81130268 499.58179869 6.46389577 499.57308471 9.14275557 C499.57423846 9.99685092 499.5753922 10.85094627 499.57658091 11.73092329 C499.57925401 14.62894883 499.57472074 17.52692024 499.5702914 20.42494303 C499.57072836 22.50377515 499.57160441 24.58260723 499.57288539 26.661439 C499.57514121 32.41459414 499.57109755 38.16773087 499.56610961 43.92088367 C499.56176329 50.20488769 499.56320287 56.48889077 499.56392753 62.77289587 C499.56439996 73.59790384 499.56131682 84.42290446 499.55561244 95.24791056 C499.54745339 110.75837412 499.54551038 126.26883109 499.54464138 141.77929789 C499.53938436 179.08467828 499.52542334 216.39005704 499.51253688 253.69543558 C499.49191188 336.99981058 499.47128688 420.30418558 499.45003688 506.13293558 C332.47003688 506.13293558 165.49003688 506.13293558 -6.54996312 506.13293558 C-6.57058812 422.82856058 -6.59121312 339.52418558 -6.61246312 253.69543558 C-6.62156712 227.33998881 -6.63067112 200.98454203 -6.64005101 173.83044535 C-6.64456761 141.77929789 -6.64456761 141.77929789 -6.64540684 126.80027872 C-6.64640464 115.58835896 -6.65072828 104.37644534 -6.65663654 93.16452751 C-6.66257294 81.74566467 -6.66472486 70.32680679 -6.66340807 58.90794205 C-6.6628025 52.70408777 -6.66379956 46.50024485 -6.66917825 40.29639262 C-6.67400284 34.69796303 -6.67431401 29.09955297 -6.67086422 23.50112253 C-6.67043654 21.46638166 -6.6717358 19.43163962 -6.6748457 17.39690107 C-6.67880723 14.64549479 -6.67672765 11.89416053 -6.67301095 9.14275557 C-6.67563797 8.33515338 -6.67826499 7.52755119 -6.68097163 6.69547621 C-6.66102358 0.250402 -6.44624984 0.02227714 0 0 Z " fill="#FEFEFE" transform="translate(233.5499631166458,226.86706441640854)"/>
<path d="M0 0 C75.24 0 150.48 0 228 0 C237.54996407 123.75513915 237.54996407 123.75513915 239.47680664 168.86987305 C239.53676794 170.26013416 239.59676178 171.65039388 239.6567864 173.04065226 C240.54426504 193.66828327 241.30706821 214.29918306 241.97969466 234.93489021 C242.076041 237.89000379 242.17407728 240.84505311 242.27373093 243.80005699 C244.65901512 314.6057208 245.94323628 386.13151909 162.71765137 607.8338623 C148.44949251 622.92706526 133.0183719 636.66502506 117.1001476 649.98251545 C115.0551393 651.693659 113.01450709 653.40991338 110.97433186 655.12681484 C18.25733253 733 18.25733253 733 1 733 C0.67 491.11 0.34 249.22 0 0 Z " fill="#FABB04" transform="translate(732,227)"/>
<path d="M0 0 C40.1259375 -0.12375 40.1259375 -0.12375 81.0625 -0.25 C93.7005896 -0.30462402 93.7005896 -0.30462402 106.59399414 -0.36035156 C116.93640137 -0.37841797 116.93640137 -0.37841797 121.78855896 -0.3817749 C125.15467523 -0.38547956 128.52053541 -0.40038077 131.88658142 -0.42230225 C136.19713261 -0.44999745 140.50731823 -0.45791754 144.81795013 -0.4522891 C146.3893406 -0.45346382 147.96074555 -0.46124162 149.53205884 -0.47686052 C170.3381004 -0.67385323 188.60568194 5.48535726 204 20 C218.5651873 34.43834968 227.15627696 51.63375695 227.24981105 72.37066215 C227.24881878 74.60597696 227.23799698 76.84112939 227.22705078 79.07641602 C227.2264373 80.71953033 227.22670647 82.36264516 227.2277813 84.00575924 C227.22823073 88.38519955 227.216683 92.76452942 227.20256042 97.14394379 C227.19112646 101.26128976 227.19063179 105.37860957 227.18920898 109.49597168 C227.17873608 121.51816228 227.15081359 133.54033255 227.125 145.5625 C227.08375 172.436875 227.0425 199.31125 227 227 C152.09 227 77.18 227 0 227 C0 152.09 0 77.18 0 0 Z " fill="#1866D2" transform="translate(733,0)"/>
<path d="M0 0 C74.91 0 149.82 0 227 0 C227 74.91 227 149.82 227 227 C186.8740625 227.12375 186.8740625 227.12375 145.9375 227.25 C137.51210693 227.28641602 129.08671387 227.32283203 120.40600586 227.36035156 C110.06359863 227.37841797 110.06359863 227.37841797 105.21144104 227.3817749 C101.84532477 227.38547956 98.47946459 227.40038077 95.11341858 227.42230225 C90.80286739 227.44999745 86.49268177 227.45791754 82.18204987 227.4522891 C80.6106594 227.45346382 79.03925445 227.46124162 77.46794116 227.47686052 C56.6618996 227.67385323 38.39431806 221.51464274 23 207 C8.4348127 192.56165032 -0.15627696 175.36624305 -0.24981105 154.62933785 C-0.24881878 152.39402304 -0.23799698 150.15887061 -0.22705078 147.92358398 C-0.2264373 146.28046967 -0.22670647 144.63735484 -0.2277813 142.99424076 C-0.22823073 138.61480045 -0.216683 134.23547058 -0.20256042 129.85605621 C-0.19112646 125.73871024 -0.19063179 121.62139043 -0.18920898 117.50402832 C-0.17873608 105.48183772 -0.15081359 93.45966745 -0.125 81.4375 C-0.08375 54.563125 -0.0425 27.68875 0 0 Z " fill="#177F37" transform="translate(0,733)"/>
<path d="M0 0 C16.52299991 11.63118418 28.70784236 28.34372661 33.42578125 48.1640625 C35.33375128 60.90982148 35.131833 74.73778594 31 87 C30.6596875 88.010625 30.319375 89.02125 29.96875 90.0625 C24.09336617 105.62432743 12.37727587 118.44712471 -1.98046875 126.66015625 C-2.64691406 127.10230469 -3.31335938 127.54445313 -4 128 C-4 128.66 -4 129.32 -4 130 C-3.16597656 130.42410156 -2.33195313 130.84820312 -1.47265625 131.28515625 C5.60057273 134.97166162 11.86511063 138.85420504 18 144 C19.010625 144.763125 20.02125 145.52625 21.0625 146.3125 C33.18483398 157.40314598 43.24112067 173.95754384 44.14526367 190.68798828 C44.17004407 193.83376651 44.18565815 196.97911693 44.1875 200.125 C44.19974609 201.20265625 44.21199219 202.2803125 44.22460938 203.390625 C44.26622019 226.4152748 35.74527999 246.20160993 20 263 C8.03081919 274.3866932 -6.30275437 282.15945611 -22 287 C-22.65709961 287.21027832 -23.31419922 287.42055664 -23.99121094 287.63720703 C-49.98265669 295.64774778 -81.1954956 292.54184005 -105.24023438 280.12768555 C-128.82631431 267.60260439 -145.82669682 249.32883394 -155 224 C-155.71150366 221.34344305 -156.34867532 218.67229112 -157 216 C-151.37824473 213.59344752 -145.75484357 211.19079863 -140.12988281 208.79174805 C-138.21666484 207.97511084 -136.3039006 207.15740978 -134.39160156 206.33862305 C-131.64246382 205.16174659 -128.89171581 203.98870861 -126.140625 202.81640625 C-124.85916595 202.26636681 -124.85916595 202.26636681 -123.55181885 201.70521545 C-122.75129089 201.3649382 -121.95076294 201.02466095 -121.12597656 200.67407227 C-120.42426331 200.3742897 -119.72255005 200.07450714 -118.99957275 199.76564026 C-117.01836732 199.00703288 -115.06707226 198.46911598 -113 198 C-112.57589844 199.18335938 -112.15179688 200.36671875 -111.71484375 201.5859375 C-108.40972519 210.5768111 -105.09161637 218.48597574 -99 226 C-98.401875 226.886875 -97.80375 227.77375 -97.1875 228.6875 C-87.29699205 239.14317983 -73.35400219 244.88392507 -59.11035156 245.35595703 C-42.72907147 245.50828653 -28.14050886 240.89894031 -16.19140625 229.41015625 C-7.40209952 219.74348557 -4.27469771 208.1471326 -4.66015625 195.2265625 C-5.87480909 183.69434131 -11.14914213 174.03628061 -19.91796875 166.48828125 C-31.3325567 158.07680048 -43.66287593 153.97662589 -57.80078125 153.68359375 C-58.54275757 153.66494263 -59.28473389 153.6462915 -60.04919434 153.6270752 C-62.80351601 153.55911415 -65.55802095 153.49875135 -68.3125 153.4375 C-74.479375 153.293125 -80.64625 153.14875 -87 153 C-87 138.48 -87 123.96 -87 109 C-70.5 108.625 -70.5 108.625 -65.34179688 108.52197266 C-63.96742953 108.4867122 -62.59307906 108.45078506 -61.21875 108.4140625 C-60.52555664 108.40270264 -59.83236328 108.39134277 -59.11816406 108.37963867 C-46.28691822 108.00621882 -34.33642427 103.26602261 -25.125 94.3203125 C-16.88149372 85.31913101 -14.40431499 75.47798245 -14.71875 63.3984375 C-15.60725585 52.66232513 -19.91773869 45.2467555 -28.0625 38.3125 C-40.2868584 29.25818709 -55.54431615 27.39647604 -70.29296875 29.4609375 C-81.50457248 31.92662008 -91.70498296 37.95091838 -98.10400391 47.67822266 C-102.64761785 55.05352567 -102.64761785 55.05352567 -106 63 C-111.27060949 62.36700372 -115.76476759 60.70014805 -120.64453125 58.7265625 C-121.86011971 58.23994644 -121.86011971 58.23994644 -123.1002655 57.74349976 C-124.80340113 57.05908252 -126.50523123 56.37140852 -128.20581055 55.68066406 C-130.81654578 54.62336153 -133.43422971 53.58476127 -136.05273438 52.546875 C-137.70878815 51.87873037 -139.36440336 51.20949745 -141.01953125 50.5390625 C-142.19755058 50.07483383 -142.19755058 50.07483383 -143.39936829 49.60122681 C-145.302883 48.81784794 -147.15766586 47.9180717 -149 47 C-150.22520062 43.32439814 -149.34455365 42.02355914 -147.7019043 38.65698242 C-147.34652588 37.96580322 -146.99114746 37.27462402 -146.625 36.5625 C-146.25995361 35.84747314 -145.89490723 35.13244629 -145.51879883 34.39575195 C-134.55121541 13.51744861 -115.65794807 -4.56963827 -92.85253906 -11.66845703 C-88.27199658 -12.9592257 -83.65649677 -14.02245102 -79 -15 C-78.22769043 -15.1757959 -77.45538086 -15.3515918 -76.65966797 -15.53271484 C-50.47970627 -20.13235196 -22.31038831 -14.03303882 0 0 Z " fill="#1B73E8" transform="translate(449,347)"/>
<path d="M0 0 C74.91 0 149.82 0 227 0 C220.24996108 7.8750454 220.24996108 7.8750454 216.82868481 11.29715633 C216.05100819 12.0774407 215.27333157 12.85772507 214.47208899 13.66165441 C213.63423954 14.49727315 212.79639008 15.33289188 211.93315125 16.1938324 C211.03034874 17.09819489 210.12754624 18.00255738 209.19738609 18.9343248 C206.70676486 21.42910025 204.21305926 23.92077205 201.71880758 26.41191709 C199.02381841 29.1046366 196.33171709 31.80024074 193.63923645 34.49546814 C188.37194421 39.76719923 183.10196165 45.03623287 177.83099856 50.30429339 C173.5496593 54.58337265 169.26929904 58.86342894 164.98963356 63.14418221 C164.38015575 63.75381325 163.77067794 64.36344429 163.1427311 64.991549 C161.9046038 66.22999603 160.66647875 67.4684453 159.42835591 68.70689679 C147.82979029 80.3083113 136.2281659 91.90666307 124.62548784 103.50396449 C114.66126406 113.46371401 104.69967453 123.42609195 94.73999023 133.39038086 C83.17437287 144.96134279 71.60714415 156.53068991 60.03731662 168.09744221 C58.80530485 169.32913542 57.57329517 170.56083073 56.34128761 171.79252815 C55.73509399 172.3985675 55.12890037 173.00460684 54.50433725 173.62901102 C50.22378124 177.90870202 45.94438994 182.18955555 41.66544151 186.47085381 C36.45859406 191.68049784 31.24998503 196.88837275 26.03906813 202.09394645 C23.37846503 204.75191165 20.71868588 207.41068819 18.0610466 210.07161713 C15.18736745 212.94879975 12.30986899 215.82213091 9.43193054 218.6950531 C8.58292748 219.54628689 7.73392441 220.39752067 6.85919398 221.27454942 C6.0945561 222.03657956 5.32991822 222.79860969 4.54210949 223.58373165 C3.87743386 224.24824492 3.21275824 224.9127582 2.52794093 225.59740824 C1 227 1 227 0 227 C0 152.09 0 77.18 0 0 Z " fill="#EA4235" transform="translate(733,733)"/>
<path d="M0 0 C0 97.02 0 194.04 0 294 C-15.84 294 -31.68 294 -48 294 C-48.33 218.43 -48.66 142.86 -49 65 C-55.27 69.62 -61.54 74.24 -68 79 C-71.22475314 81.3402886 -74.44983904 83.67794579 -77.6875 86 C-79.10861051 87.02008481 -80.52918737 88.04091349 -81.94921875 89.0625 C-82.61614746 89.54074219 -83.28307617 90.01898438 -83.97021484 90.51171875 C-85.39306496 91.55498244 -86.79840792 92.62234874 -88.18994141 93.70703125 C-88.89683105 94.25746094 -89.6037207 94.80789063 -90.33203125 95.375 C-91.28106323 96.12910156 -91.28106323 96.12910156 -92.24926758 96.8984375 C-94 98 -94 98 -97 98 C-98.69824219 95.87963867 -98.69824219 95.87963867 -100.546875 92.91796875 C-101.2275 91.83966797 -101.908125 90.76136719 -102.609375 89.65039062 C-103.32321274 88.49627682 -104.03675313 87.34197905 -104.75 86.1875 C-105.4409375 85.08728516 -106.131875 83.98707031 -106.84375 82.85351562 C-108.22355044 80.65543127 -109.59924034 78.45476099 -110.97070312 76.25146484 C-113.94835326 71.4804898 -116.97200691 66.7391308 -120 62 C-111.30367734 55.42693534 -102.56978326 48.92584627 -93.6796875 42.6171875 C-89.51932954 39.66430932 -85.38428726 36.67672357 -81.25 33.6875 C-80.49219238 33.139729 -79.73438477 32.59195801 -78.95361328 32.02758789 C-77.40715075 30.90961007 -75.86076446 29.79152678 -74.31445312 28.67333984 C-69.80654425 25.41414075 -65.29666775 22.15766326 -60.78613281 18.90209961 C-56.83331957 16.04859203 -52.88348193 13.19107366 -48.9375 10.328125 C-48.11121094 9.72935547 -47.28492188 9.13058594 -46.43359375 8.51367188 C-44.84158547 7.35991307 -43.25040513 6.20501074 -41.66015625 5.04882812 C-40.94730469 4.53255859 -40.23445312 4.01628906 -39.5 3.484375 C-38.55640625 2.79939941 -38.55640625 2.79939941 -37.59375 2.10058594 C-27.26616093 -5.03127245 -12.55079679 0 0 0 Z " fill="#1C74E8" transform="translate(648,338)"/>
</svg>
