<?xml version="1.0" encoding="UTF-8"?>
<svg version="1.1" xmlns="http://www.w3.org/2000/svg" width="512" height="512">
<path d="M0 0 C0 42.24 0 84.48 0 128 C14.88480469 127.95359375 29.76960938 127.9071875 45.10546875 127.859375 C54.5162788 127.83894506 63.92707285 127.81952456 73.33789062 127.8046875 C88.28626987 127.78093105 103.23455909 127.75296764 118.18286133 127.69824219 C129.06848683 127.65840907 139.95403946 127.63257539 150.83973581 127.62364602 C156.60518017 127.61842533 162.37041605 127.60613119 168.13579369 127.57707977 C173.56039453 127.54996651 178.98470063 127.5415468 184.40936279 127.54756927 C186.40201226 127.54646721 188.3946714 127.53848914 190.38726234 127.5231781 C193.10527444 127.50331424 195.82216967 127.50804762 198.54020691 127.51898193 C199.72650004 127.50150488 199.72650004 127.50150488 200.9367587 127.48367476 C204.6722663 127.52437185 206.79136934 127.86600711 209.96623707 129.90506363 C212.71946082 132.74110144 213.12492974 134.21030421 213.13422108 138.04276752 C213.13867892 138.89361465 213.14313676 139.74446177 213.14772969 140.62109214 C213.14745315 142.03132479 213.14745315 142.03132479 213.14717102 143.470047 C213.15084771 144.46461479 213.1545244 145.45918259 213.1583125 146.4838888 C213.16938222 149.83797852 213.17319872 153.1920373 213.17700195 156.54614258 C213.18326405 158.94223632 213.18991062 161.33832909 213.19691467 163.73442078 C213.2161658 170.94019577 213.226746 178.14596823 213.23564246 185.35176113 C213.24002402 188.74366554 213.24539116 192.13556838 213.25063133 195.52747154 C213.267644 206.8003612 213.28213884 218.07324987 213.28938007 229.3461504 C213.29129002 232.27218947 213.29321034 235.19822854 213.29516602 238.12426758 C213.29564976 238.85153503 213.2961335 239.57880248 213.2966319 240.32810833 C213.30493474 252.11312966 213.33027572 263.89804956 213.36274669 275.68302659 C213.39579961 287.77763883 213.41382721 299.87219949 213.41702431 311.96685714 C213.41919101 318.75952707 213.42796288 325.55204909 213.45348549 332.34467506 C213.47743281 338.73286732 213.48102927 345.12086538 213.47072411 351.50909615 C213.47022685 353.85650263 213.47660287 356.20392191 213.49028015 358.5512886 C213.5078829 361.75084966 213.50094976 364.94944162 213.48774719 368.14900208 C213.50420106 369.54919648 213.50420106 369.54919648 213.52098733 370.97767764 C213.47892081 375.18717897 213.36828253 377.40989509 211.0945158 381.05318737 C207.27682698 384.60165657 203.86901751 384.13835247 198.90097046 384.12025452 C197.63046418 384.12153615 197.63046418 384.12153615 196.3342911 384.12284368 C193.4798383 384.12449832 190.62544353 384.11897735 187.77099609 384.11352539 C185.73131817 384.11324349 183.69164014 384.11340131 181.65196228 384.1139679 C176.10059604 384.11425576 170.54925124 384.10836086 164.99789 384.10139394 C159.20160753 384.09515851 153.40532461 384.09455645 147.60903931 384.09336853 C136.62660969 384.09025578 125.64418999 384.08204313 114.66176474 384.07201904 C99.82568636 384.05877043 84.98960529 384.05335755 70.15352249 384.04751682 C46.76900757 384.03810321 23.38451356 384.01818391 0 384 C0 426.24 0 468.48 0 512 C-6.50603939 511.40854187 -12.4742446 510.85643496 -18.80728149 509.6721344 C-19.51584351 509.5410753 -20.22440552 509.4100162 -20.9544391 509.27498561 C-23.292975 508.8411888 -25.63009971 508.40023824 -27.96728516 507.95922852 C-29.66532613 507.64271159 -31.36345102 507.32664459 -33.06165218 507.01098824 C-37.67232445 506.1526693 -42.28180719 505.28811124 -46.89110875 504.42246604 C-51.79625174 503.50242427 -56.70249908 502.58830871 -61.60862732 501.67353821 C-69.96015888 500.11555829 -78.31102178 498.55403865 -86.66140747 496.9899292 C-99.60079587 494.56626803 -112.54137702 492.14901749 -125.48217773 489.73291016 C-129.76830317 488.93259833 -134.05441933 488.1322369 -138.3405304 487.33184814 C-139.3957049 487.13480868 -140.45087941 486.93776921 -141.5380289 486.73475885 C-148.95679932 485.3493011 -156.37537602 483.96280912 -163.79386902 482.5758667 C-186.83708997 478.26804 -209.88234666 473.97171021 -232.93359375 469.70703125 C-234.12358978 469.48679605 -235.31358582 469.26656086 -236.53964233 469.03965187 C-247.01064059 467.10184518 -257.48204659 465.16626667 -267.95424175 463.23493862 C-271.52419397 462.57611736 -275.09384404 461.91567104 -278.66340828 461.25475121 C-280.9991484 460.82290044 -283.33530603 460.39336608 -285.67149353 459.96394348 C-287.02719727 459.71292157 -288.38287641 459.46176671 -289.73852539 459.21044922 C-290.88801163 458.99846893 -292.03749786 458.78648865 -293.22181702 458.56808472 C-296 458 -296 458 -299 457 C-299 324.34 -299 191.68 -299 55 C-270.25907254 49.25181451 -270.25907254 49.25181451 -257.54223633 46.88818359 C-256.06669607 46.61264959 -254.59118232 46.33697357 -253.11569214 46.06117153 C-249.17594488 45.32514987 -245.23583663 44.59107875 -241.29565263 43.85739923 C-237.06257335 43.06879535 -232.82985642 42.27825088 -228.59709167 41.48796082 C-219.53509195 39.79636544 -210.4726733 38.10702277 -201.41015625 36.41820145 C-195.80128694 35.37296523 -190.19250206 34.32727648 -184.58374023 33.28146362 C-183.65440206 33.10818002 -182.72506388 32.93489641 -181.76756394 32.75636178 C-178.94855729 32.23072748 -176.12955201 31.70508578 -173.31054688 31.17944336 C-169.55655108 30.47946615 -165.80255321 29.77950008 -162.04855347 29.07954407 C-161.12185061 28.9067531 -160.19514776 28.73396214 -159.240363 28.55593508 C-153.63783381 27.51133087 -148.03525618 26.46698692 -142.4326452 25.42282146 C-121.0744656 21.44217739 -99.7182198 17.45150396 -78.3654232 13.44208527 C-71.17957781 12.09328798 -63.99322525 10.74719553 -56.80684757 9.40123749 C-50.34881995 8.1913642 -43.8916509 6.97703581 -37.43507862 5.75942135 C-33.54044737 5.02610661 -29.64500294 4.29719233 -25.74929237 3.56963539 C-23.98983407 3.24009348 -22.230723 2.90869097 -20.47200584 2.57521629 C-18.11895427 2.12924159 -15.76476206 1.68987972 -13.41015625 1.25219727 C-12.73835233 1.12316198 -12.0665484 0.9941267 -11.37438679 0.86118126 C-7.42307161 0.13556368 -4.10002867 0 0 0 Z " fill="#1D82C0" transform="translate(299,0)"/>
<path d="M0 0 C3.50393057 2.83939201 6.7647405 5.86089332 10 9 C10.92039063 9.81017578 10.92039063 9.81017578 11.859375 10.63671875 C30.39665768 27.51585 40.46885862 57.70849789 42 82 C43.62119083 123.26638584 43.62119083 123.26638584 38 141 C37.75862305 141.78101074 37.51724609 142.56202148 37.26855469 143.36669922 C32.05617705 159.76110209 24.76665046 175.29441478 13 188 C11.84564453 189.29164063 11.84564453 189.29164063 10.66796875 190.609375 C0.85189521 201.07562465 -13.89231962 210.94208785 -28.66796875 211.9375 C-29.82232422 211.9684375 -29.82232422 211.9684375 -31 212 C-32.17175781 212.061875 -33.34351563 212.12375 -34.55078125 212.1875 C-54.48729952 212.95072532 -69.3824877 205.08167278 -84.0859375 192.16796875 C-97.12014877 179.93229612 -105.0670318 163.28655037 -110.8125 146.625 C-111.0904541 145.83673828 -111.3684082 145.04847656 -111.65478516 144.23632812 C-116.17604058 130.44416004 -117.50921579 116.20509695 -117.39111328 101.76782227 C-117.37497453 99.43381606 -117.39111551 97.10153406 -117.41015625 94.76757812 C-117.45472849 63.12045549 -106.97775013 31.74609667 -84.77734375 8.75390625 C-61.06351456 -14.75980623 -27.86246326 -19.56633656 0 0 Z " fill="#F8F9F9" transform="translate(176,156)"/>
<path d="M0 0 C16.33411212 9.46008117 25.3609898 27.69892405 30.3137207 45.29223633 C37.91170032 74.1011075 34.4284873 105.4765085 20.546875 131.890625 C13.74912059 143.27886298 4.85217556 152.4480307 -8.06640625 156.24609375 C-17.74236607 158.25884112 -24.88990285 155.86619385 -33.11328125 150.671875 C-47.082873 140.87408966 -54.51769542 123.57074516 -59.11328125 107.671875 C-59.43425781 106.57939453 -59.43425781 106.57939453 -59.76171875 105.46484375 C-66.95798395 79.02639116 -63.24774665 46.59421751 -50.11328125 22.671875 C-39.294935 4.07861814 -21.88136058 -10.18269852 0 0 Z " fill="#2788C4" transform="translate(153.11328125,179.328125)"/>
<path d="M0 0 C0.32411652 5.49463803 0.55841718 10.98360394 0.71411133 16.4855957 C0.77905267 18.35149094 0.86745443 20.21673569 0.98071289 22.08032227 C1.87085099 37.11600345 1.87085099 37.11600345 -1.24038696 41.91210938 C-4.66699327 45.68787948 -8.70297735 48.30893208 -13 51 C-14.6217138 52.269566 -16.23020472 53.55663165 -17.8125 54.875 C-18.61042969 55.50792969 -19.40835938 56.14085937 -20.23046875 56.79296875 C-23.71368458 59.56873313 -27.16985828 62.37691565 -30.625 65.1875 C-31.30796143 65.7429248 -31.99092285 66.29834961 -32.69458008 66.87060547 C-34.09757779 68.01177787 -35.50049041 69.1530549 -36.90332031 70.29443359 C-40.26762714 73.03116479 -43.63388328 75.7654955 -47 78.5 C-48.3333433 79.58332107 -49.66667662 80.66665442 -51 81.75 C-69.66666667 96.91666667 -88.33333333 112.08333333 -107 127.25 C-107.6607251 127.78689453 -108.3214502 128.32378906 -109.00219727 128.87695312 C-110.32798712 129.95404599 -111.65399427 131.03087144 -112.98022461 132.10742188 C-116.4308554 134.90901656 -119.87694499 137.71595002 -123.31640625 140.53125 C-124.02732422 141.11197266 -124.73824219 141.69269531 -125.47070312 142.29101562 C-126.81848029 143.39214076 -128.16493922 144.49488237 -129.50976562 145.59960938 C-143.04616819 156.64655859 -143.04616819 156.64655859 -152.19921875 156.52734375 C-157.79236585 155.47424074 -161.71623611 151.54201148 -166 148 C-167.57796715 146.7864822 -169.15607048 145.57310634 -170.7409668 144.36865234 C-172.39370933 143.11076044 -174.03778852 141.84231852 -175.6796875 140.5703125 C-178.94740873 138.03941156 -182.22288975 135.51872578 -185.5 133 C-188.80991508 130.45483607 -192.11903625 127.9086567 -195.42578125 125.359375 C-195.99296875 124.92238281 -196.56015625 124.48539062 -197.14453125 124.03515625 C-198.70728929 122.83106399 -200.26967378 121.62648697 -201.83203125 120.421875 C-204.7441671 118.10233594 -204.7441671 118.10233594 -207.03190613 116.77920532 C-212.57725389 113.25106338 -212.57725389 113.25106338 -213.70271301 109.92041016 C-213.92468575 107.46461729 -213.9017383 105.12687283 -213.78125 102.6640625 C-213.76993042 101.78471039 -213.75861084 100.90535828 -213.74694824 99.99935913 C-213.70235453 97.20563764 -213.60204047 94.4171545 -213.5 91.625 C-213.45985027 89.72533485 -213.42335209 87.82558878 -213.390625 85.92578125 C-213.30267671 81.28185261 -213.16476058 76.64181251 -213 72 C-210.19403842 73.31772317 -207.7982135 74.79272252 -205.34765625 76.6875 C-204.31705078 77.48027344 -204.31705078 77.48027344 -203.265625 78.2890625 C-202.17507813 79.13597656 -202.17507813 79.13597656 -201.0625 80 C-200.30324219 80.58523437 -199.54398437 81.17046875 -198.76171875 81.7734375 C-197.22173373 82.96083336 -195.68282293 84.14962381 -194.14501953 85.33984375 C-191.26826732 87.56633078 -188.3841509 89.78310525 -185.5 92 C-183.95505859 93.18916016 -183.95505859 93.18916016 -182.37890625 94.40234375 C-171.63456607 102.66647555 -160.86664118 110.89712883 -150 119 C-137.29703128 109.59980315 -125.06344114 99.64042246 -112.89355469 89.56591797 C-104.00436552 82.2148015 -95.0354623 74.96021922 -86.08056641 67.68945312 C-82.71974572 64.96041309 -79.3599111 62.23015975 -76 59.5 C-74.66667165 58.41666054 -73.33333831 57.33332721 -72 56.25 C-71.34 55.71375 -70.68 55.1775 -70 54.625 C-57.33333333 44.33333333 -44.66666667 34.04166667 -32 23.75 C-31.33887207 23.2127832 -30.67774414 22.67556641 -29.99658203 22.12207031 C-28.67484138 21.04825705 -27.35290406 19.97468582 -26.03076172 18.90136719 C-22.51833657 16.04942031 -19.01029178 13.19228083 -15.5078125 10.328125 C-14.77433594 9.72935547 -14.04085937 9.13058594 -13.28515625 8.51367188 C-11.87244555 7.36025617 -10.46093592 6.20536741 -9.05078125 5.04882812 C-2.86108185 0 -2.86108185 0 0 0 Z " fill="#EFEFF0" transform="translate(512,137)"/>
<path d="M0 0 C0.32411652 5.49463803 0.55841718 10.98360394 0.71411133 16.4855957 C0.77905267 18.35149094 0.86745443 20.21673569 0.98071289 22.08032227 C1.87085099 37.11600345 1.87085099 37.11600345 -1.24038696 41.91210938 C-4.66699327 45.68787948 -8.70297735 48.30893208 -13 51 C-14.6217138 52.269566 -16.23020472 53.55663165 -17.8125 54.875 C-18.61042969 55.50792969 -19.40835938 56.14085937 -20.23046875 56.79296875 C-23.71368458 59.56873313 -27.16985828 62.37691565 -30.625 65.1875 C-31.30796143 65.7429248 -31.99092285 66.29834961 -32.69458008 66.87060547 C-34.09757779 68.01177787 -35.50049041 69.1530549 -36.90332031 70.29443359 C-40.26762714 73.03116479 -43.63388328 75.7654955 -47 78.5 C-48.3333433 79.58332107 -49.66667662 80.66665442 -51 81.75 C-53.66666667 83.91666667 -56.33333333 86.08333333 -59 88.25 C-59.99132935 89.05570435 -59.99132935 89.05570435 -61.00268555 89.87768555 C-62.32640929 90.95287737 -63.65078349 92.02726892 -64.97583008 93.10083008 C-68.46214887 95.92726154 -71.93365391 98.76972105 -75.38671875 101.63671875 C-76.10666016 102.23097656 -76.82660156 102.82523437 -77.56835938 103.4375 C-78.94498405 104.57432554 -80.31762827 105.71599468 -81.68554688 106.86328125 C-82.30880859 107.37632812 -82.93207031 107.889375 -83.57421875 108.41796875 C-84.38765747 109.09508911 -84.38765747 109.09508911 -85.2175293 109.78588867 C-87 111 -87 111 -92 113 C-98.93 106.07 -105.86 99.14 -113 92 C-110.99143889 87.98287778 -109.79618238 86.75500154 -106.375 84.0625 C-105.38628906 83.27488281 -104.39757812 82.48726563 -103.37890625 81.67578125 C-102.83637207 81.2473291 -102.29383789 80.81887695 -101.73486328 80.37744141 C-98.570061 77.86466144 -95.44514967 75.3026563 -92.3125 72.75 C-90.93382241 71.62992682 -89.55491328 70.51013858 -88.17578125 69.390625 C-84.11641719 66.09469762 -80.05809858 62.79748528 -76 59.5 C-74.66667165 58.41666054 -73.33333831 57.33332721 -72 56.25 C-71.34 55.71375 -70.68 55.1775 -70 54.625 C-57.33333333 44.33333333 -44.66666667 34.04166667 -32 23.75 C-31.33887207 23.2127832 -30.67774414 22.67556641 -29.99658203 22.12207031 C-28.67484138 21.04825705 -27.35290406 19.97468582 -26.03076172 18.90136719 C-22.51833657 16.04942031 -19.01029178 13.19228083 -15.5078125 10.328125 C-14.77433594 9.72935547 -14.04085937 9.13058594 -13.28515625 8.51367188 C-11.87244555 7.36025617 -10.46093592 6.20536741 -9.05078125 5.04882812 C-2.86108185 0 -2.86108185 0 0 0 Z " fill="#FDFEFE" transform="translate(512,137)"/>
<path d="M0 0 C0 1.98 0 3.96 0 6 C-1.22074219 6.18175781 -2.44148438 6.36351562 -3.69921875 6.55078125 C-12.3029595 7.85650275 -20.76310124 9.31326184 -29.22265625 11.3828125 C-32.38726404 12.08605868 -35.48814786 12.40428499 -38.7109375 12.69140625 C-41.4439013 13.05984335 -44.02213528 13.73072123 -46.6875 14.4375 C-52.46911096 15.96289285 -58.23600322 16.82439776 -64.1640625 17.5703125 C-66.94089087 17.84203835 -66.94089087 17.84203835 -69 19 C-70.70385013 19.27892208 -72.41361617 19.52181549 -74.125 19.75 C-80.47814415 20.68837468 -86.72205035 21.96480195 -93 23.3125 C-103.04169878 25.4544979 -113.11320396 27.26026355 -123.23794556 28.96084595 C-131.5378589 30.36975406 -139.80322815 31.90570067 -148.06200027 33.54146767 C-165.34391761 36.95798665 -182.6580641 40.20074581 -199.9765625 43.42578125 C-201.2548996 43.66387009 -202.53323669 43.90195892 -203.85031128 44.14726257 C-211.7630329 45.62056653 -219.67612985 47.09184505 -227.58935547 48.56243896 C-238.29174882 50.55144142 -248.9936956 52.54284432 -259.69553757 54.53481102 C-263.39672742 55.22342771 -267.09808714 55.91112532 -270.79946899 56.59870911 C-273.06765272 57.02061093 -275.3358313 57.44254038 -277.60400391 57.86450195 C-278.61488068 58.05203033 -279.62575745 58.23955872 -280.66726685 58.43276978 C-286.7884755 59.57253717 -292.89783049 60.76231341 -299 62 C-299 59.69 -299 57.38 -299 55 C-279.80173543 51.08456412 -260.5573424 47.44401025 -241.29565263 43.85739923 C-237.06257335 43.06879535 -232.82985642 42.27825088 -228.59709167 41.48796082 C-219.53509195 39.79636544 -210.4726733 38.10702277 -201.41015625 36.41820145 C-195.80128694 35.37296523 -190.19250206 34.32727648 -184.58374023 33.28146362 C-183.65440206 33.10818002 -182.72506388 32.93489641 -181.76756394 32.75636178 C-178.94855729 32.23072748 -176.12955201 31.70508578 -173.31054688 31.17944336 C-169.55655108 30.47946615 -165.80255321 29.77950008 -162.04855347 29.07954407 C-161.12185061 28.9067531 -160.19514776 28.73396214 -159.240363 28.55593508 C-153.63783381 27.51133087 -148.03525618 26.46698692 -142.4326452 25.42282146 C-121.0744656 21.44217739 -99.7182198 17.45150396 -78.3654232 13.44208527 C-71.17957781 12.09328798 -63.99322525 10.74719553 -56.80684757 9.40123749 C-50.34881995 8.1913642 -43.8916509 6.97703581 -37.43507862 5.75942135 C-33.54044737 5.02610661 -29.64500294 4.29719233 -25.74929237 3.56963539 C-23.98983407 3.24009348 -22.230723 2.90869097 -20.47200584 2.57521629 C-18.11895427 2.12924159 -15.76476206 1.68987972 -13.41015625 1.25219727 C-12.73835233 1.12316198 -12.0665484 0.9941267 -11.37438679 0.86118126 C-7.5340638 0.15594623 -3.90201588 -0.12037725 0 0 Z " fill="#539FCF" transform="translate(299,0)"/>
<path d="M0 0 C9.78918242 0.51340403 19.26500482 1.97497105 28.875 3.8125 C30.4955023 4.1166797 32.11611243 4.42028538 33.73681641 4.72338867 C44.34058247 6.71297478 54.9349513 8.7523633 65.53125 10.78125 C70.13771225 11.66289807 74.74423268 12.54424102 79.35081482 13.42526245 C81.3809336 13.81363513 83.41098848 14.20234056 85.44104004 14.59106445 C107.15212821 18.74646551 128.89330519 22.7061232 150.66064453 26.55737305 C164.27263419 28.96709989 177.86719973 31.44702577 191.44448853 34.04489136 C203.72117402 36.39351197 216.0124808 38.6518987 228.3125 40.875 C251.8959889 45.13829095 275.44940294 49.55906571 299 54 C299 55.98 299 57.96 299 60 C289.53640277 59.41511986 280.33042417 57.71363796 271.03271484 55.95922852 C269.33467387 55.64271159 267.63654898 55.32664459 265.93834782 55.01098824 C261.32767555 54.1526693 256.71819281 53.28811124 252.10889125 52.42246604 C247.20374826 51.50242427 242.29750092 50.58830871 237.39137268 49.67353821 C229.03984112 48.11555829 220.68897822 46.55403865 212.33859253 44.9899292 C199.39920413 42.56626803 186.45862298 40.14901749 173.51782227 37.73291016 C169.23169683 36.93259833 164.94558067 36.1322369 160.6594696 35.33184814 C159.6042951 35.13480868 158.54912059 34.93776921 157.4619711 34.73475885 C150.04320068 33.3493011 142.62462398 31.96280912 135.20613098 30.5758667 C112.16291003 26.26804 89.11765334 21.97171021 66.06640625 17.70703125 C64.87641022 17.48679605 63.68641418 17.26656086 62.46035767 17.03965187 C51.98935941 15.10184518 41.51795341 13.16626667 31.04575825 11.23493862 C27.47580603 10.57611736 23.90615596 9.91567104 20.33659172 9.25475121 C18.0008516 8.82290044 15.66469397 8.39336608 13.32850647 7.96394348 C11.97280273 7.71292157 10.61712359 7.46176671 9.26147461 7.21044922 C7.53724525 6.89247879 7.53724525 6.89247879 5.77818298 6.56808472 C3 6 3 6 0 5 C0 3.35 0 1.7 0 0 Z " fill="#1C78B1" transform="translate(0,452)"/>
<path d="M0 0 C0.33 0 0.66 0 1 0 C1.32470459 4.13998349 1.4304413 6.33999001 -0.875 9.875 C-4.13773151 13.13773151 -6.13627871 13.11661477 -10.67599738 13.12908131 C-11.47559799 13.12616847 -12.27519861 13.12325563 -13.09902954 13.12025452 C-13.94603373 13.12110894 -14.79303792 13.12196337 -15.6657089 13.12284368 C-18.5201617 13.12449832 -21.37455647 13.11897735 -24.22900391 13.11352539 C-26.26868183 13.11324349 -28.30835986 13.11340131 -30.34803772 13.1139679 C-35.89940396 13.11425576 -41.45074876 13.10836086 -47.00211 13.10139394 C-52.79839247 13.09515851 -58.59467539 13.09455645 -64.39096069 13.09336853 C-75.37339031 13.09025578 -86.35581001 13.08204313 -97.33823526 13.07201904 C-109.83864708 13.06085618 -122.33905936 13.05534702 -134.83947492 13.05032361 C-160.55965545 13.03986048 -186.27982717 13.02226211 -212 13 C-212 11.35 -212 9.7 -212 8 C-198.0001201 7.82275026 -184.00011219 7.6578075 -170 7.5 C-168.93975239 7.48797546 -167.87950478 7.47595093 -166.78712845 7.46356201 C-140.78374886 7.17039721 -114.78253967 6.95581816 -88.77734375 6.96875 C-87.6819289 6.96925858 -86.58651405 6.96976715 -85.45790482 6.97029114 C-74.84463037 6.97672935 -64.23142447 6.99438295 -53.61820126 7.02805328 C-49.69621718 7.03978927 -45.77422984 7.04784976 -41.85223579 7.05543518 C-39.19613067 7.06222817 -36.54009894 7.07482419 -33.88401794 7.08776855 C-29.25505467 7.10350768 -24.62834183 7.0783199 -20 7 C-18.90749876 6.9817215 -18.90749876 6.9817215 -17.79292679 6.96307373 C-15.7124634 6.91554381 -13.63584413 6.83729886 -11.55688477 6.74609375 C-10.38335953 6.70025146 -9.20983429 6.65440918 -8.00074768 6.60717773 C-4.43811458 5.8863069 -3.23382454 4.80917703 -1 2 C-0.67 1.34 -0.34 0.68 0 0 Z " fill="#076DAB" transform="translate(511,371)"/>
<path d="M0 0 C26.90305989 -0.09338631 53.80609553 -0.16395128 80.70928478 -0.20724869 C93.20053204 -0.22788558 105.69167866 -0.25602783 118.18286133 -0.30175781 C129.06848683 -0.34159093 139.95403946 -0.36742461 150.83973581 -0.37635398 C156.60518017 -0.38157467 162.37041605 -0.39386881 168.13579369 -0.42292023 C173.56039453 -0.45003349 178.98470063 -0.4584532 184.40936279 -0.45243073 C186.40201226 -0.45353279 188.3946714 -0.46151086 190.38726234 -0.4768219 C193.10527444 -0.49668576 195.82216967 -0.49195238 198.54020691 -0.48101807 C199.72650004 -0.49849512 199.72650004 -0.49849512 200.9367587 -0.51632524 C204.64399683 -0.47593614 206.80359678 -0.12255193 209.97795582 1.85818863 C212.25979117 4.27517879 212.72732829 5.7279395 213 9 C212.01 9.33 211.02 9.66 210 10 C209.54625 9.525625 209.0925 9.05125 208.625 8.5625 C205.17844361 5.24850348 201.48735287 5.84735323 196.97689819 5.84178162 C195.71864257 5.83437465 195.71864257 5.83437465 194.43496764 5.82681805 C191.60817711 5.8113904 188.78140939 5.80306822 185.95458984 5.79467773 C183.93461403 5.78510335 181.91464024 5.77509353 179.89466858 5.76467896 C174.39704135 5.73757621 168.8994055 5.71659578 163.40174818 5.69667697 C157.66150294 5.67485046 151.92128446 5.64744549 146.18106079 5.62062073 C135.30489846 5.57064864 124.42872131 5.5257266 113.55252993 5.48259836 C101.1730158 5.43326453 88.79352851 5.37833214 76.41404033 5.32291877 C50.94271859 5.20902941 25.47137111 5.10220556 0 5 C0 3.35 0 1.7 0 0 Z " fill="#4098CE" transform="translate(299,128)"/>
</svg>
